<?xml version="1.0" encoding="utf-8"?>
<!-- Generator: Adobe Illustrator 25.4.1, SVG Export Plug-In . SVG Version: 6.00 Build 0)  -->
<svg version="1.1" id="Layer_1" xmlns="http://www.w3.org/2000/svg" xmlns:xlink="http://www.w3.org/1999/xlink" x="0px" y="0px"
	 viewBox="0 0 178 191" style="enable-background:new 0 0 178 191;" xml:space="preserve">
<style type="text/css">
	.st0{display:none;}
	.st1{fill:#0377E0;}
	.st2{fill:#A9BEC6;}
	.st3{fill:#FFFFFF;}
</style>
<g id="SilhV3.tif" class="st0">
	
		<image style="display:inline;overflow:visible;" width="101" height="101" id="Layer_1_00000023282554829876438810000013661174727109339579_" xlink:href="7D348569BCA5E363.png"  transform="matrix(0.6436 0 0 0.6436 57 67)">
	</image>
</g>
<g id="zaAjrQ.tif" class="st0">
	
		<image style="display:inline;overflow:visible;" width="101" height="101" id="Layer_1_00000060002696043278971150000016817748568987106213_" xlink:href="7D348569BCA5E361.png"  transform="matrix(0.7228 0 0 0.7228 53 63)">
	</image>
</g>
<g>
	<circle id="Path-4" class="st1" cx="89.5" cy="95.8" r="58"/>
	<g id="Group_1494_5_" transform="matrix(0.875, 0.485, -0.485, 0.875, 322.297, -11.667)">
		<path id="Path_68_5_" class="st2" d="M-111.3,143.2L-111.3,143.2l-4.1,6.6c8.2,5.3,15.2,12.3,20.4,20.6l6.7-3.9l0.1,0
			C-94.1,157.2-102,149.2-111.3,143.2z"/>
		<path id="Path_69_5_" class="st2" d="M-116.9,140c-9.9-5.2-20.8-8.1-31.9-8.6v7.8c9.7,0.4,19.2,3,27.8,7.5L-116.9,140L-116.9,140z
			"/>
		<path id="Path_70_5_" class="st2" d="M-186.1,274L-186.1,274c9.5,4.9,20.1,7.7,30.8,8.1v-7.8c-9.4-0.4-18.6-2.8-26.9-7L-186.1,274
			z"/>
		<path id="Path_71_5_" class="st2" d="M-219.6,210.8h-7.8c0.6,10.8,3.5,21.4,8.5,31l0.1,0l6.7-3.9
			C-216.5,229.5-219,220.3-219.6,210.8z"/>
		<path id="Path_72_5_" class="st2" d="M-115.6,263.8l3.7,6.8l0,0.1c9.1-5.7,16.9-13.4,22.8-22.3l-0.1,0l-6.7-3.9
			C-101,252.2-107.8,258.8-115.6,263.8z"/>
		<path id="Path_73_5_" class="st2" d="M-148.8,274.3v7.8c10.9-0.4,21.6-3.3,31.3-8.3l0-0.1l-3.7-6.8
			C-129.8,271.4-139.2,273.9-148.8,274.3z"/>
		<path id="Path_74_5_" class="st2" d="M-84.4,204.3h7.8c-0.3-11.2-3.2-22.2-8.3-32.2l-0.1,0l-6.7,3.9
			C-87.2,184.8-84.7,194.5-84.4,204.3z"/>
		<path id="Path_75_5_" class="st2" d="M-155.3,146.6v-15.2c-11.2,0.5-22.1,3.4-32,8.7l0,0.1l3.9,6.7l3.7,6.5
			c-1.9,1-3.7,2.1-5.5,3.2l-0.1,0.1l-3.7-6.5l-3.9-6.7l0-0.1c-9.3,6-17.2,14-23.1,23.4l0.1,0l6.7,3.9l6.5,3.7
			c-1.2,1.8-2.2,3.7-3.2,5.6l-6.5-3.8l-6.7-3.9l-0.1,0c-5.1,9.9-7.9,20.9-8.2,32h15.2v2.4c0,9.9,2.4,19.6,7,28.3
			c0.6,1.2,1.3,2.4,2,3.5l0.8,1.3l-6.4,3.7l-6.7,3.9l-0.1,0c6.1,9.5,14.2,17.5,23.8,23.5l0-0.1l3.9-6.7l3.7-6.5l0.2,0.1
			c1.2,0.7,2.4,1.5,3.7,2.1c7.7,4.1,16.2,6.5,25,6.9c1.1,0.1,2.2,0.1,3.2,0.1c1.1,0,2.2,0,3.2-0.1c8.8-0.5,17.3-2.8,25.1-7l0.9-0.5
			c9.2-5.1,17-12.6,22.4-21.7l1-1.7l0.5-0.8l6.5,3.7l6.7,3.9l0.1,0c5.4-9.8,8.4-20.8,9-32H-92c0.1-1.3,0.1-2.7,0.1-4.1
			c0-0.8,0-1.6-0.1-2.4c-1.3-32.1-27.7-57.8-60.1-57.8L-155.3,146.6z M-94.3,206.7c0,0.1,0,0.1,0,0.2c-0.1,31.8-25.9,57.5-57.7,57.5
			s-57.6-25.7-57.7-57.5c0-0.1,0-0.1,0-0.2c0-2.8,0.2-5.7,0.6-8.5c4.3-27.7,28.2-48.9,57.1-48.9s52.9,21.2,57.1,48.9
			C-94.5,201.1-94.3,203.9-94.3,206.7z"/>
		<path id="Path_76_5_" class="st2" d="M-152,297.2v2.7c27.4,0,53.4-12,71.1-33l-3.5-0.1C-101.6,286.1-126.2,297.2-152,297.2z"/>
		<path id="Path_77_5_" class="st2" d="M-152,116.3v-2.7c-33.6,0-63,17.8-79.4,44.4l2.5,1.1C-213,133.5-184.5,116.3-152,116.3z"/>
		<path id="Path_78_5_" class="st2" d="M-66.2,206.7c0-47.4-38.4-85.9-85.9-85.9v2.5c46,0,83.4,37.3,83.4,83.4s-37.3,83.4-83.4,83.4
			s-83.4-37.3-83.4-83.4h-2.5c0,47.4,38.4,85.9,85.9,85.9S-66.2,254.2-66.2,206.7z"/>
	</g>
</g>
<path id="Composite_Path-5" class="st3" d="M122.1,56.4H70.2V79H52.1v47.4h38.4v-4.5h31.6V56.4z M96.1,63.2c-3.1,0-6,1.9-7.2,4.7
	L75,58.7h42.2l-13.9,9.3C102.1,65.1,99.3,63.2,96.1,63.2L96.1,63.2z M96.1,76.7c-3.1,0-5.6-2.5-5.6-5.6s2.5-5.6,5.6-5.6
	c3.1,0,5.6,2.5,5.6,5.6C101.8,74.2,99.2,76.7,96.1,76.7L96.1,76.7z M72.4,59.7l15.9,10.6c0,0.3,0,0.6-0.1,0.9c0,3,1.8,5.8,4.5,7.1
	v10.9H95V78.9c0.7,0.1,1.5,0.1,2.3,0v8h2.3v-8.7c2.8-1.3,4.5-4.1,4.5-7.1c0-0.3,0-0.6-0.1-0.9l15.9-10.6v58l-4-4.8H96.6l19.3-19.3
	c2.3-2.3,2.4-6,0.1-8.4c-2.3-2.3-6-2.4-8.4-0.1c0,0,0,0-0.1,0.1l-17,17V79H72.4L72.4,59.7z M84.8,117.4c-0.4,0.1-0.9-0.1-1-0.5
	c0-0.1,0-0.2,0-0.2c0-0.1,0-0.2,0-0.3l1.6-4.7l4.2,4.2L84.8,117.4z M91.6,114.7l-5.2-5.2l14.2-14.2l5.2,5.2L91.6,114.7z M110.8,95.5
	l-5.2-5.2l3.4-3.4c1.4-1.4,3.7-1.4,5.2,0s1.4,3.7,0,5.2L110.8,95.5z M104,91.9l5.2,5.2l-1.8,1.8l-5.2-5.2L104,91.9z M54.4,124.2
	V81.3h33.9v23.2l-4.4,4.4l-2.2,6.7c-0.5,1.6,0.3,3.3,1.9,3.9c0.6,0.2,1.3,0.2,1.9,0l2.7-0.9v5.6L54.4,124.2z M90.5,117.8l1.7-0.6
	l2.1-2.1h20.5l3.8,4.5H90.5L90.5,117.8z M96.1,67.7c-1.9,0-3.4,1.5-3.4,3.4c0,1.9,1.5,3.4,3.4,3.4c1.9,0,3.4-1.5,3.4-3.4
	c0,0,0,0,0,0C99.5,69.2,98,67.7,96.1,67.7L96.1,67.7z M96.1,72.2c-0.6,0-1.1-0.5-1.1-1.1c0-0.6,0.5-1.1,1.1-1.1
	c0.6,0,1.1,0.5,1.1,1.1l0,0C97.3,71.7,96.8,72.2,96.1,72.2L96.1,72.2z M76.6,119c-0.4,0.6-0.6,0.7-0.8,0.7s-0.4-0.1-0.8-0.7
	c-0.7-1.4-2.5-2-3.9-1.3c-0.5,0.3-1,0.7-1.3,1.3c-0.4,0.6-0.6,0.7-0.8,0.7s-0.4-0.1-0.8-0.7c-0.5-0.9-1.5-1.5-2.6-1.6h-1
	c-0.3,0-0.7-0.2-0.8-0.5c-0.5-1.1-1.6-1.8-2.8-1.8h-0.4c-1.5,0-2.8,1.1-3.1,2.5l-0.8,4l2.2,0.4l0.8-4c0.1-0.4,0.5-0.7,0.9-0.7H61
	c0.3,0,0.7,0.2,0.8,0.5c0.5,1.1,1.6,1.8,2.8,1.8h1c0.2,0,0.4,0.1,0.8,0.7c0.7,1.4,2.5,2,3.9,1.3c0.5-0.3,1-0.7,1.3-1.3
	c0.4-0.6,0.6-0.7,0.8-0.7s0.4,0.1,0.8,0.7c0.7,1.4,2.5,2,3.9,1.3c0.5-0.3,1-0.7,1.3-1.3c0.4-0.6,0.6-0.7,0.8-0.7v-2.3
	C78.1,117.4,77.1,118,76.6,119L76.6,119z M56.6,110.6v2.3h22.6v-2.3H56.6z M56.6,106.1v2.3h22.6v-2.3H56.6z M61.1,101.6v2.3H86v-2.3
	H61.1z M56.6,101.6v2.3h2.3v-2.3H56.6z M74.7,97.1v2.3H86v-2.3H74.7z M79.2,92.6v2.3H86v-2.3H79.2z M74.7,92.6v2.3h2.3v-2.3H74.7z
	 M74.7,88v2.3H86V88H74.7z M74.7,83.5v2.3H86v-2.3L74.7,83.5z M72.4,83.5H56.6v15.8h15.8V83.5z M70.2,97.1H58.9V85.8h11.3V97.1z"/>
</svg>
