<?xml version="1.0" encoding="utf-8"?>
<!-- Generator: Adobe Illustrator 25.4.1, SVG Export Plug-In . SVG Version: 6.00 Build 0)  -->
<svg version="1.1" id="Layer_1" xmlns="http://www.w3.org/2000/svg" xmlns:xlink="http://www.w3.org/1999/xlink" x="0px" y="0px"
	 viewBox="0 0 178 191" style="enable-background:new 0 0 178 191;" xml:space="preserve">
<style type="text/css">
	.st0{display:none;}
	.st1{fill:#0377E0;}
	.st2{fill:#A9BEC6;}
	.st3{fill-rule:evenodd;clip-rule:evenodd;fill:#FFFFFF;}
	.st4{fill:#FFFFFF;}
</style>
<g id="SilhV3.tif" class="st0">
	
		<image style="display:inline;overflow:visible;" width="101" height="101" id="Layer_1_00000023282554829876438810000013661174727109339579_" xlink:href="7D56319CA4DF3487.png"  transform="matrix(0.6436 0 0 0.6436 57 67)">
	</image>
</g>
<g id="zaAjrQ.tif" class="st0">
	
		<image style="display:inline;overflow:visible;" width="101" height="101" id="Layer_1_00000060002696043278971150000016817748568987106213_" xlink:href="7D56319CA4DF3485.png"  transform="matrix(0.7228 0 0 0.7228 53 63)">
	</image>
</g>
<g>
	<circle id="Path-4" class="st1" cx="89.5" cy="95.8" r="58"/>
	<g id="Group_1494_5_" transform="matrix(0.875, 0.485, -0.485, 0.875, 322.297, -11.667)">
		<path id="Path_68_5_" class="st2" d="M-111.3,143.2L-111.3,143.2l-4.1,6.6c8.2,5.3,15.2,12.3,20.4,20.6l6.7-3.9l0.1,0
			C-94.1,157.2-102,149.2-111.3,143.2z"/>
		<path id="Path_69_5_" class="st2" d="M-116.9,140c-9.9-5.2-20.8-8.1-31.9-8.6v7.8c9.7,0.4,19.2,3,27.8,7.5L-116.9,140L-116.9,140z
			"/>
		<path id="Path_70_5_" class="st2" d="M-186.1,274L-186.1,274c9.5,4.9,20.1,7.7,30.8,8.1v-7.8c-9.4-0.4-18.6-2.8-26.9-7L-186.1,274
			z"/>
		<path id="Path_71_5_" class="st2" d="M-219.6,210.8h-7.8c0.6,10.8,3.5,21.4,8.5,31l0.1,0l6.7-3.9
			C-216.5,229.5-219,220.3-219.6,210.8z"/>
		<path id="Path_72_5_" class="st2" d="M-115.6,263.8l3.7,6.8l0,0.1c9.1-5.7,16.9-13.4,22.8-22.3l-0.1,0l-6.7-3.9
			C-101,252.2-107.8,258.8-115.6,263.8z"/>
		<path id="Path_73_5_" class="st2" d="M-148.8,274.3v7.8c10.9-0.4,21.6-3.3,31.3-8.3l0-0.1l-3.7-6.8
			C-129.8,271.4-139.2,273.9-148.8,274.3z"/>
		<path id="Path_74_5_" class="st2" d="M-84.4,204.3h7.8c-0.3-11.2-3.2-22.2-8.3-32.2l-0.1,0l-6.7,3.9
			C-87.2,184.8-84.7,194.5-84.4,204.3z"/>
		<path id="Path_75_5_" class="st2" d="M-155.3,146.6v-15.2c-11.2,0.5-22.1,3.4-32,8.7l0,0.1l3.9,6.7l3.7,6.5
			c-1.9,1-3.7,2.1-5.5,3.2l-0.1,0.1l-3.7-6.5l-3.9-6.7l0-0.1c-9.3,6-17.2,14-23.1,23.4l0.1,0l6.7,3.9l6.5,3.7
			c-1.2,1.8-2.2,3.7-3.2,5.6l-6.5-3.8l-6.7-3.9l-0.1,0c-5.1,9.9-7.9,20.9-8.2,32h15.2v2.4c0,9.9,2.4,19.6,7,28.3
			c0.6,1.2,1.3,2.4,2,3.5l0.8,1.3l-6.4,3.7l-6.7,3.9l-0.1,0c6.1,9.5,14.2,17.5,23.8,23.5l0-0.1l3.9-6.7l3.7-6.5l0.2,0.1
			c1.2,0.7,2.4,1.5,3.7,2.1c7.7,4.1,16.2,6.5,25,6.9c1.1,0.1,2.2,0.1,3.2,0.1c1.1,0,2.2,0,3.2-0.1c8.8-0.5,17.3-2.8,25.1-7l0.9-0.5
			c9.2-5.1,17-12.6,22.4-21.7l1-1.7l0.5-0.8l6.5,3.7l6.7,3.9l0.1,0c5.4-9.8,8.4-20.8,9-32H-92c0.1-1.3,0.1-2.7,0.1-4.1
			c0-0.8,0-1.6-0.1-2.4c-1.3-32.1-27.7-57.8-60.1-57.8L-155.3,146.6z M-94.3,206.7c0,0.1,0,0.1,0,0.2c-0.1,31.8-25.9,57.5-57.7,57.5
			s-57.6-25.7-57.7-57.5c0-0.1,0-0.1,0-0.2c0-2.8,0.2-5.7,0.6-8.5c4.3-27.7,28.2-48.9,57.1-48.9s52.9,21.2,57.1,48.9
			C-94.5,201.1-94.3,203.9-94.3,206.7z"/>
		<path id="Path_76_5_" class="st2" d="M-152,297.2v2.7c27.4,0,53.4-12,71.1-33l-3.5-0.1C-101.6,286.1-126.2,297.2-152,297.2z"/>
		<path id="Path_77_5_" class="st2" d="M-152,116.3v-2.7c-33.6,0-63,17.8-79.4,44.4l2.5,1.1C-213,133.5-184.5,116.3-152,116.3z"/>
		<path id="Path_78_5_" class="st2" d="M-66.2,206.7c0-47.4-38.4-85.9-85.9-85.9v2.5c46,0,83.4,37.3,83.4,83.4s-37.3,83.4-83.4,83.4
			s-83.4-37.3-83.4-83.4h-2.5c0,47.4,38.4,85.9,85.9,85.9S-66.2,254.2-66.2,206.7z"/>
	</g>
</g>
<g id="k6xnrG.tif">
	
		<image style="overflow:visible;" width="294" height="340" id="Layer_0_00000111881923048789515460000005764162076686605755_" xlink:href="7D56319CA4DF348B.png"  transform="matrix(1 0 0 1 220 -43)">
	</image>
</g>
<g>
	<path class="st3" d="M-159.7,177.2V188c-3,5.3-5.3,7.4-10.1,10.7c-4.8-3.3-7.1-5.4-10.1-10.7v-10.9c1-0.5,10.1-4.6,10.1-4.6
		S-160.7,176.7-159.7,177.2L-159.7,177.2z M-194.5,163h49.4c3.4,0,6.3,2.8,6.3,6.3v34.5h5v4.4c0,3.8-3.1,7-7,7h-57.9
		c-3.8,0-7-3.1-7-7v-4.4h5v-34.5C-200.8,165.8-197.9,163-194.5,163L-194.5,163z M-158.9,207c0,1.7-1.4,3-3.1,3h-15.7
		c-1.7,0-3.1-1.4-3.1-3h-21.7v1.1c0,2,1.7,3.7,3.7,3.7h57.9c2,0,3.7-1.7,3.7-3.7V207H-158.9z M-145.1,166.3h-49.4c-1.6,0-3,1.3-3,3
		v34.4h55.4v-34.4C-142.1,167.6-143.4,166.3-145.1,166.3L-145.1,166.3z M-175.7,185.9c-1-1,0.5-2.4,1.5-1.5l3.2,3.2l5.7-6.3
		c0.9-1,2.4,0.4,1.5,1.4l-6.4,7.1c-0.4,0.5-1.1,0.5-1.5,0.1L-175.7,185.9z"/>
</g>
<g>
	<path class="st4" d="M72.8,122.5c-1.5-0.3-2.5-1.3-3.5-2.3c-0.7-0.8-1.5-1.5-2.2-2.2c-0.9-0.9-0.9-1.7-0.1-2.6
		c0.9-1,1.2-2.2,1.2-3.4c-0.1-2.8-1.8-5-4.7-5.6c-1.8-0.4-3.3,0.2-4.8,1.3c-0.7,0.5-1.5,0.4-2.1-0.2c-1.2-1.2-2.4-2.4-3.6-3.6
		c-1.3-1.3-1.3-4.1,0.1-5.3c2.6-2.4,5-5,7.5-7.5c6.1-6.1,12.3-12.2,18.4-18.3c1.2-1.2,2.5-2.4,3.7-3.6c2.6-2.6,5.3-5.2,7.9-7.9
		c1.6-1.6,4-1.5,5.5,0c1.1,1.1,2.1,2.2,3.2,3.2c0.9,0.9,1,1.6,0.3,2.6c-1,1.4-1.3,3.1-0.9,4.8c0.6,2.3,2.6,4.1,5,4.3
		c1.5,0.1,2.9-0.3,4.1-1.2c0.6-0.4,1.5-0.4,2,0.1c1.4,1.4,2.8,2.9,4.2,4.3c0.3,0.3,0.3,0.7,0.5,1c0,0.7,0,1.4,0,2.1
		c-0.4,0.8-0.9,1.5-1.6,2.1c-2.6,2.6-5.2,5.2-7.8,7.8c-0.5,0.5-1,0.6-1.6,0.5c-0.7-0.1-1.1-1.2-0.7-1.8c0.2-0.3,0.2-0.5,0.1-0.9
		c-0.2-0.5-0.2-1.1,0.2-1.5c0.4-0.4,1-0.5,1.5-0.2c0.2,0.2,0.4,0.1,0.6-0.1c2.1-2.1,4.2-4.2,6.2-6.3c0.5-0.5,0.5-1,0-1.5
		c-1-1-2-2-3-3c-1.7,1-3.5,1.4-5.4,1.2c-2.2-0.3-4.1-1.3-5.4-3c-2.4-3-2.5-6.3-0.8-9.8c-1-1-2-2-3.1-3c-0.4-0.4-1-0.4-1.4,0
		c-2.2,2.1-4.3,4.3-6.4,6.4c-0.1,0.1-0.1,0.3-0.1,0.4c0.3,0.6,0.2,1.2-0.3,1.6c-0.5,0.4-1.1,0.3-1.7,0c-0.1,0.1-0.3,0.3-0.5,0.4
		C78.4,77,73.2,82.2,68,87.3c-4.3,4.3-8.6,8.6-12.9,12.8c-0.7,0.7-0.7,1.2,0,1.9c0.9,0.9,1.9,1.9,2.7,2.7c1.1-0.4,2.1-0.8,3.1-1.1
		c1.5-0.4,3-0.2,4.4,0.4c3,1.2,4.8,3.4,5.3,6.6c0.3,1.9,0,3.7-0.9,5.3c-0.2,0.4-0.2,0.6,0.1,0.9c0.8,0.8,1.6,1.6,2.4,2.4
		c0.7,0.7,1.2,0.7,1.9,0c2.8-2.8,5.6-5.6,8.5-8.5c0.8-0.8,2-0.7,2.3,0.4c0.2,0.6-0.1,1.1-0.5,1.6c-1.3,1.3-2.6,2.6-3.9,3.9
		c-1.1,1.1-2.3,2.3-3.4,3.4c-1,1-2,2.2-3.5,2.4C73.3,122.5,73.1,122.5,72.8,122.5z"/>
	<path class="st4" d="M99,122.5c-1-0.2-2-0.4-3-0.8c-1.6-0.6-3.1-1.5-4.4-2.7c-1.4-1.2-2.5-2.6-3.2-4.3c-0.8-1.6-1.2-3.2-1.3-4.9
		c-0.2-2.7,0.3-5.3,1.6-7.7c1.8-3.4,4.6-5.7,8.4-6.7c1.3-0.3,2.6-0.6,3.9-0.6c3.1,0,5.9,0.9,8.4,2.9c2.8,2.2,4.4,5,5.2,8.4
		c0.1,0.2,0.1,0.5,0.1,0.7c0,1.2,0,2.4,0,3.5c-0.1,0.5-0.2,1-0.4,1.5c-1.2,4.8-4.2,8-8.8,9.7c-0.9,0.3-1.9,0.5-2.8,0.7
		C101.3,122.5,100.1,122.5,99,122.5z M89.6,108.6c-0.1,6.3,5,11.1,10.7,11.2c6.6,0.2,11.4-5,11.6-10.7c0.2-6.6-5-11.4-10.7-11.6
		C94.5,97.3,89.5,102.7,89.6,108.6z"/>
	<path class="st4" d="M96.7,80.9c0,0.5-0.3,0.8-0.7,1.1c-0.4,0.2-0.8,0.4-1.3,0c-0.7-0.6-1.5-1.2-2-1.9c-0.6-0.7-0.5-1.9,0.5-2.2
		c0.4-0.1,0.9,0,1.2,0.2c0.7,0.6,1.3,1.2,1.9,1.9C96.5,80.2,96.6,80.6,96.7,80.9z"/>
	<path class="st4" d="M102,86.3c-0.2,0.3-0.4,0.7-0.7,0.9c-0.4,0.3-0.9,0.4-1.3,0c-0.7-0.6-1.4-1.2-2-1.9c-0.7-0.7-0.5-1.8,0.5-2.2
		c0.3-0.1,1-0.1,1.2,0.2c0.7,0.6,1.3,1.2,1.9,1.9C101.8,85.5,101.8,85.8,102,86.3z"/>
	<path class="st4" d="M87,73.9c0-0.7,0.4-1,0.9-1.3c0.6-0.2,1,0,1.4,0.4c0.5,0.5,1,1,1.5,1.5c0.6,0.7,0.7,1.3,0.3,1.9
		c-0.4,0.5-1.2,0.7-1.8,0.2c-0.7-0.6-1.4-1.4-2-2.1C87.1,74.3,87.1,74.1,87,73.9z"/>
	<path class="st4" d="M102.6,108.7c1.1,1.1,2.2,2.2,3.3,3.3c0.8,0.8,0.6,1.9-0.4,2.3c-0.7,0.3-1.2-0.2-1.6-0.6
		c-1.1-1-2.1-2.1-3.2-3.1c-1,1.1-2.1,2.1-3.1,3.1c-0.4,0.4-0.9,0.8-1.6,0.6c-1.1-0.4-1.3-1.4-0.5-2.3c1.1-1.1,2.2-2.2,3.3-3.3
		c-1.1-1.1-2.2-2.2-3.3-3.3c-0.4-0.4-0.6-0.9-0.4-1.6c0.3-0.9,1.5-1.2,2.3-0.3c1.1,1.1,2.2,2.2,3.3,3.3c1.1-1.1,2.2-2.2,3.3-3.3
		c0.8-0.8,1.7-0.7,2.2,0.3c0.3,0.6,0.2,0.9-0.5,1.7C104.8,106.6,103.7,107.7,102.6,108.7z"/>
</g>
</svg>
