<?xml version="1.0" encoding="utf-8"?>
<!-- Generator: Adobe Illustrator 25.4.1, SVG Export Plug-In . SVG Version: 6.00 Build 0)  -->
<svg version="1.1" id="Layer_1" xmlns="http://www.w3.org/2000/svg" xmlns:xlink="http://www.w3.org/1999/xlink" x="0px" y="0px"
	 viewBox="0 0 178 191" style="enable-background:new 0 0 178 191;" xml:space="preserve">
<style type="text/css">
	.st0{display:none;}
	.st1{fill:#0377E0;}
	.st2{fill:#A9BEC6;}
	.st3{fill:#FFFFFF;}
</style>
<g id="SilhV3.tif" class="st0">
	
		<image style="display:inline;overflow:visible;" width="101" height="101" id="Layer_1_00000023282554829876438810000013661174727109339579_" xlink:href="7D23AF5048893AD1.png"  transform="matrix(0.6436 0 0 0.6436 57 67)">
	</image>
</g>
<g id="zaAjrQ.tif" class="st0">
	
		<image style="display:inline;overflow:visible;" width="101" height="101" id="Layer_1_00000060002696043278971150000016817748568987106213_" xlink:href="7D23AF5048893AD3.png"  transform="matrix(0.7228 0 0 0.7228 53 63)">
	</image>
</g>
<g>
	<circle id="Path-4" class="st1" cx="89.5" cy="95.8" r="58"/>
	<g id="Group_1494_5_" transform="matrix(0.875, 0.485, -0.485, 0.875, 322.297, -11.667)">
		<path id="Path_68_5_" class="st2" d="M-111.3,143.2L-111.3,143.2l-4.1,6.6c8.2,5.3,15.2,12.3,20.4,20.6l6.7-3.9l0.1,0
			C-94.1,157.2-102,149.2-111.3,143.2z"/>
		<path id="Path_69_5_" class="st2" d="M-116.9,140c-9.9-5.2-20.8-8.1-31.9-8.6v7.8c9.7,0.4,19.2,3,27.8,7.5L-116.9,140L-116.9,140z
			"/>
		<path id="Path_70_5_" class="st2" d="M-186.1,274L-186.1,274c9.5,4.9,20.1,7.7,30.8,8.1v-7.8c-9.4-0.4-18.6-2.8-26.9-7L-186.1,274
			z"/>
		<path id="Path_71_5_" class="st2" d="M-219.6,210.8h-7.8c0.6,10.8,3.5,21.4,8.5,31l0.1,0l6.7-3.9
			C-216.5,229.5-219,220.3-219.6,210.8z"/>
		<path id="Path_72_5_" class="st2" d="M-115.6,263.8l3.7,6.8l0,0.1c9.1-5.7,16.9-13.4,22.8-22.3l-0.1,0l-6.7-3.9
			C-101,252.2-107.8,258.8-115.6,263.8z"/>
		<path id="Path_73_5_" class="st2" d="M-148.8,274.3v7.8c10.9-0.4,21.6-3.3,31.3-8.3l0-0.1l-3.7-6.8
			C-129.8,271.4-139.2,273.9-148.8,274.3z"/>
		<path id="Path_74_5_" class="st2" d="M-84.4,204.3h7.8c-0.3-11.2-3.2-22.2-8.3-32.2l-0.1,0l-6.7,3.9
			C-87.2,184.8-84.7,194.5-84.4,204.3z"/>
		<path id="Path_75_5_" class="st2" d="M-155.3,146.6v-15.2c-11.2,0.5-22.1,3.4-32,8.7l0,0.1l3.9,6.7l3.7,6.5
			c-1.9,1-3.7,2.1-5.5,3.2l-0.1,0.1l-3.7-6.5l-3.9-6.7l0-0.1c-9.3,6-17.2,14-23.1,23.4l0.1,0l6.7,3.9l6.5,3.7
			c-1.2,1.8-2.2,3.7-3.2,5.6l-6.5-3.8l-6.7-3.9l-0.1,0c-5.1,9.9-7.9,20.9-8.2,32h15.2v2.4c0,9.9,2.4,19.6,7,28.3
			c0.6,1.2,1.3,2.4,2,3.5l0.8,1.3l-6.4,3.7l-6.7,3.9l-0.1,0c6.1,9.5,14.2,17.5,23.8,23.5l0-0.1l3.9-6.7l3.7-6.5l0.2,0.1
			c1.2,0.7,2.4,1.5,3.7,2.1c7.7,4.1,16.2,6.5,25,6.9c1.1,0.1,2.2,0.1,3.2,0.1c1.1,0,2.2,0,3.2-0.1c8.8-0.5,17.3-2.8,25.1-7l0.9-0.5
			c9.2-5.1,17-12.6,22.4-21.7l1-1.7l0.5-0.8l6.5,3.7l6.7,3.9l0.1,0c5.4-9.8,8.4-20.8,9-32H-92c0.1-1.3,0.1-2.7,0.1-4.1
			c0-0.8,0-1.6-0.1-2.4c-1.3-32.1-27.7-57.8-60.1-57.8L-155.3,146.6z M-94.3,206.7c0,0.1,0,0.1,0,0.2c-0.1,31.8-25.9,57.5-57.7,57.5
			s-57.6-25.7-57.7-57.5c0-0.1,0-0.1,0-0.2c0-2.8,0.2-5.7,0.6-8.5c4.3-27.7,28.2-48.9,57.1-48.9s52.9,21.2,57.1,48.9
			C-94.5,201.1-94.3,203.9-94.3,206.7z"/>
		<path id="Path_76_5_" class="st2" d="M-152,297.2v2.7c27.4,0,53.4-12,71.1-33l-3.5-0.1C-101.6,286.1-126.2,297.2-152,297.2z"/>
		<path id="Path_77_5_" class="st2" d="M-152,116.3v-2.7c-33.6,0-63,17.8-79.4,44.4l2.5,1.1C-213,133.5-184.5,116.3-152,116.3z"/>
		<path id="Path_78_5_" class="st2" d="M-66.2,206.7c0-47.4-38.4-85.9-85.9-85.9v2.5c46,0,83.4,37.3,83.4,83.4s-37.3,83.4-83.4,83.4
			s-83.4-37.3-83.4-83.4h-2.5c0,47.4,38.4,85.9,85.9,85.9S-66.2,254.2-66.2,206.7z"/>
	</g>
	<g id="icon-3">
		<path id="Composite_Path-2" class="st3" d="M62.1,126h40.7c4.2,0,7.7-3.5,7.7-7.7v-3.3c1.1-0.5,2.1-1.2,3-2l0.8,0.8
			c-0.8,1.2-0.6,2.9,0.4,3.9l7.3,7.3c1.2,1.2,3.1,1.2,4.3,0c0,0,0,0,0,0l1.4-1.4c1.1-1.3,1.1-3.1,0-4.4l-7.3-7.3
			c-1-1-2.6-1.2-3.9-0.4l-0.8-0.8c5.8-7,4.8-17.4-2.2-23.2s-17.4-4.8-23.2,2.2c-5.8,7-4.8,17.4,2.2,23.2c4.1,3.4,9.7,4.6,14.9,3.2
			v2.1c0,2.5-2,4.5-4.5,4.6H63.7V61.1h29.6v7.8c0,3.8,3.1,6.9,6.9,6.9h7.2v4.8c0,0.9,0.7,1.6,1.6,1.6s1.6-0.7,1.6-1.6v-6.4
			c0-0.4-0.2-0.8-0.4-1.1L96,58.5c-0.3-0.3-0.7-0.5-1.1-0.5H62.1c-0.9,0-1.6,0.7-1.6,1.6v64.8C60.5,125.3,61.2,126,62.1,126
			C62.1,126,62.1,126,62.1,126z M125.5,121.4l-1.3,1.3l-7.3-7.2l1.3-1.4L125.5,121.4z M93.7,109.7c-5.2-5.2-5.1-13.6,0-18.7
			c5.2-5.2,13.6-5.1,18.7,0c5.2,5.2,5.1,13.6,0,18.7c-2.5,2.5-5.8,3.9-9.3,3.9C99.6,113.6,96.2,112.2,93.7,109.7L93.7,109.7z
			 M100.2,72.7c-2.1,0-3.7-1.7-3.7-3.8v-5.4l8.8,9.2L100.2,72.7z M112.6,105.5c3-4.4,2.1-10.4-2.1-13.7c-0.7-0.5-1.7-0.4-2.2,0.2
			c-0.5,0.7-0.4,1.7,0.2,2.2l0,0c2.9,2.3,3.5,6.4,1.4,9.5c-0.5,0.7-0.3,1.7,0.4,2.2C111.1,106.4,112.1,106.3,112.6,105.5
			L112.6,105.5z M107.2,106.3c-0.6,0.6-0.6,1.6,0,2.2c0.6,0.6,1.6,0.6,2.2,0s0.6-1.6,0-2.2c0,0,0,0,0,0
			C108.8,105.7,107.8,105.7,107.2,106.3L107.2,106.3z M101.9,100.6h-8.2c-0.9,0-1.6,0.7-1.5,1.6c0,0.8,0.7,1.5,1.5,1.5h6.6v5.8
			c0,0.9,0.7,1.6,1.6,1.6s1.6-0.7,1.6-1.6l0,0v-7.4C103.5,101.3,102.8,100.6,101.9,100.6C101.9,100.6,101.9,100.6,101.9,100.6
			L101.9,100.6z M96.1,96.6h3.2c0.9,0,1.6-0.7,1.6-1.6s-0.7-1.6-1.6-1.6h-3.2c-0.9,0-1.6,0.7-1.6,1.6S95.3,96.6,96.1,96.6z
			 M83.6,106.1c0.9,0,1.6-0.7,1.5-1.6c0-0.8-0.7-1.5-1.5-1.5H69.4c-0.9,0-1.6,0.7-1.6,1.6c0,0,0,0,0,0v6.4c0,0.9,0.7,1.6,1.6,1.6h0
			h17.4c0.9,0,1.6-0.7,1.6-1.6c0-0.9-0.7-1.6-1.6-1.6H70.9v-3.3L83.6,106.1z M69.4,99.3h10.3c0.9,0,1.6-0.7,1.6-1.6
			s-0.7-1.6-1.6-1.6H69.4c-0.9,0-1.6,0.7-1.6,1.6S68.5,99.3,69.4,99.3z M69.4,115.1c-0.9,0-1.6,0.7-1.5,1.6c0,0.8,0.7,1.5,1.5,1.5
			h6.8c0.9,0,1.6-0.7,1.5-1.6c0-0.8-0.7-1.5-1.5-1.5H69.4z M92,78.7c0-0.9-0.7-1.6-1.6-1.6h-6.8c-0.9,0-1.6,0.7-1.6,1.6
			s0.7,1.6,1.6,1.6h6.8C91.3,80.3,92,79.5,92,78.7L92,78.7z M88.4,85.4c0-0.9-0.7-1.6-1.6-1.6c0,0,0,0,0,0h-3.2
			c-0.9,0-1.6,0.7-1.6,1.6s0.7,1.6,1.6,1.6h3.2C87.7,86.9,88.4,86.2,88.4,85.4L88.4,85.4z M83.6,73.6h3.2c0.9,0,1.6-0.7,1.5-1.6
			c0-0.8-0.7-1.5-1.5-1.5h-3.2c-0.9,0-1.6,0.7-1.5,1.6C82.1,72.9,82.8,73.6,83.6,73.6z M69.4,92.1h8.5c0.9,0,1.6-0.7,1.6-1.6
			c0,0,0,0,0,0V72c0-0.9-0.7-1.6-1.6-1.6h-8.5c-0.9,0-1.6,0.7-1.6,1.6l0,0v18.6C67.8,91.4,68.5,92.1,69.4,92.1L69.4,92.1z
			 M70.9,73.6h5.4V89h-5.4V73.6z"/>
	</g>
</g>
</svg>
