<?xml version="1.0" encoding="utf-8"?>
<!-- Generator: Adobe Illustrator 25.4.1, SVG Export Plug-In . SVG Version: 6.00 Build 0)  -->
<svg version="1.1" id="Layer_1" xmlns="http://www.w3.org/2000/svg" xmlns:xlink="http://www.w3.org/1999/xlink" x="0px" y="0px"
	 viewBox="0 0 178 191" style="enable-background:new 0 0 178 191;" xml:space="preserve">
<style type="text/css">
	.st0{display:none;}
	.st1{fill:#0377E0;}
	.st2{fill:#FFFFFF;}
	.st3{fill:#A9BEC6;}
</style>
<g id="SilhV3.tif" class="st0">
	
		<image style="display:inline;overflow:visible;" width="101" height="101" id="Layer_1_00000023282554829876438810000013661174727109339579_" xlink:href="7D12D936D46C923F.png"  transform="matrix(0.6436 0 0 0.6436 57 67)">
	</image>
</g>
<g id="zaAjrQ.tif" class="st0">
	
		<image style="display:inline;overflow:visible;" width="101" height="101" id="Layer_1_00000060002696043278971150000016817748568987106213_" xlink:href="7D12D936D46C923D.png"  transform="matrix(0.7228 0 0 0.7228 53 63)">
	</image>
</g>
<g>
	<circle id="Path-4" class="st1" cx="89.5" cy="95.8" r="58"/>
	<g id="Icon-6">
		<path id="Composite_Path-3" class="st2" d="M118.8,78.9h-3.4V60.8H63.5v18.1h-3.4c-3.1,0-5.6,2.5-5.6,5.6v33.9
			c0,3.1,2.5,5.6,5.6,5.6h14.7v4.5h-4.5v2.3h38.4v-2.3h-4.5v-4.5h14.7c3.1,0,5.6-2.5,5.6-5.6V84.5C124.5,81.4,121.9,78.9,118.8,78.9
			z M99.1,96.3l1.3-2.6l-4.3-4.3l-2.6,1.3l-0.9-2.8h-6.1l-0.9,2.8l-2.6-1.3l-4.3,4.3l1.3,2.6l-2.8,0.9v1.9H65.8V72.1h47.4v27.1
			h-11.3v-1.9L99.1,96.3z M97.7,106.5l-2,2l-2.4-1.2l-0.5,0.2l-0.4,0.2l-0.5,0.2l-0.9,2.6H88l-0.9-2.6l-0.5-0.2l-0.4-0.2l-0.5-0.2
			l-2.4,1.2l-2-2l1.2-2.4l-0.2-0.5l-0.2-0.4l-0.2-0.5l-2.6-0.9v-2.9l2.6-0.9l0.2-0.5l0.2-0.4l0.2-0.5l-1.2-2.4l2-2l2.4,1.2l0.5-0.2
			l0.4-0.2l0.5-0.2l0.9-2.6h2.9l0.9,2.6l0.5,0.2l0.4,0.2l0.5,0.2l2.4-1.2l2,2l-1.2,2.4l0.2,0.5l0.2,0.4L97,98l2.6,0.9v2.9l-2.6,0.9
			l-0.2,0.5l-0.2,0.4l-0.2,0.5L97.7,106.5z M113.2,63.1v6.8H65.8v-6.8H113.2z M60.1,81.1h3.4v20.3H77v1.9l2.8,0.9l-1.3,2.6l4.3,4.3
			l2.6-1.3l0.9,2.8h6.1l0.9-2.8l2.6,1.3l4.3-4.3l-1.3-2.6l2.8-0.9v-1.9h13.5V81.1h3.4c1.9,0,3.4,1.5,3.4,3.4V115H56.7V84.5
			C56.7,82.7,58.2,81.2,60.1,81.1L60.1,81.1z M101.9,128.6H77v-4.5h24.8L101.9,128.6z M118.8,121.8H60.1c-1.9,0-3.4-1.5-3.4-3.4
			v-1.1h65.5v1.1C122.2,120.3,120.7,121.8,118.8,121.8L118.8,121.8z M68,83.4v2.3h22.6v-2.3H68z M68,78.9v2.3h22.6v-2.3H68z
			 M68,74.4v2.3h22.6v-2.3H68z M89.5,94.7c-3.1,0-5.6,2.5-5.6,5.6s2.5,5.6,5.6,5.6s5.6-2.5,5.6-5.6c0,0,0,0,0,0
			C95.1,97.2,92.6,94.7,89.5,94.7z M89.5,103.7c-1.9,0-3.4-1.5-3.4-3.4c0-1.9,1.5-3.4,3.4-3.4c1.9,0,3.4,1.5,3.4,3.4l0,0
			C92.9,102.2,91.3,103.7,89.5,103.7L89.5,103.7z M77,65.3v2.3h2.3v-2.3H77z M72.5,65.3v2.3h2.3v-2.3H72.5z M68,65.3v2.3h2.3v-2.3
			H68z"/>
	</g>
	<g id="Group_1494_5_" transform="matrix(0.875, 0.485, -0.485, 0.875, 322.297, -11.667)">
		<path id="Path_68_5_" class="st3" d="M-111.3,143.2L-111.3,143.2l-4.1,6.6c8.2,5.3,15.2,12.3,20.4,20.6l6.7-3.9l0.1,0
			C-94.1,157.2-102,149.2-111.3,143.2z"/>
		<path id="Path_69_5_" class="st3" d="M-116.9,140c-9.9-5.2-20.8-8.1-31.9-8.6v7.8c9.7,0.4,19.2,3,27.8,7.5L-116.9,140L-116.9,140z
			"/>
		<path id="Path_70_5_" class="st3" d="M-186.1,274L-186.1,274c9.5,4.9,20.1,7.7,30.8,8.1v-7.8c-9.4-0.4-18.6-2.8-26.9-7L-186.1,274
			z"/>
		<path id="Path_71_5_" class="st3" d="M-219.6,210.8h-7.8c0.6,10.8,3.5,21.4,8.5,31l0.1,0l6.7-3.9
			C-216.5,229.5-219,220.3-219.6,210.8z"/>
		<path id="Path_72_5_" class="st3" d="M-115.6,263.8l3.7,6.8l0,0.1c9.1-5.7,16.9-13.4,22.8-22.3l-0.1,0l-6.7-3.9
			C-101,252.2-107.8,258.8-115.6,263.8z"/>
		<path id="Path_73_5_" class="st3" d="M-148.8,274.3v7.8c10.9-0.4,21.6-3.3,31.3-8.3l0-0.1l-3.7-6.8
			C-129.8,271.4-139.2,273.9-148.8,274.3z"/>
		<path id="Path_74_5_" class="st3" d="M-84.4,204.3h7.8c-0.3-11.2-3.2-22.2-8.3-32.2l-0.1,0l-6.7,3.9
			C-87.2,184.8-84.7,194.5-84.4,204.3z"/>
		<path id="Path_75_5_" class="st3" d="M-155.3,146.6v-15.2c-11.2,0.5-22.1,3.4-32,8.7l0,0.1l3.9,6.7l3.7,6.5
			c-1.9,1-3.7,2.1-5.5,3.2l-0.1,0.1l-3.7-6.5l-3.9-6.7l0-0.1c-9.3,6-17.2,14-23.1,23.4l0.1,0l6.7,3.9l6.5,3.7
			c-1.2,1.8-2.2,3.7-3.2,5.6l-6.5-3.8l-6.7-3.9l-0.1,0c-5.1,9.9-7.9,20.9-8.2,32h15.2v2.4c0,9.9,2.4,19.6,7,28.3
			c0.6,1.2,1.3,2.4,2,3.5l0.8,1.3l-6.4,3.7l-6.7,3.9l-0.1,0c6.1,9.5,14.2,17.5,23.8,23.5l0-0.1l3.9-6.7l3.7-6.5l0.2,0.1
			c1.2,0.7,2.4,1.5,3.7,2.1c7.7,4.1,16.2,6.5,25,6.9c1.1,0.1,2.2,0.1,3.2,0.1c1.1,0,2.2,0,3.2-0.1c8.8-0.5,17.3-2.8,25.1-7l0.9-0.5
			c9.2-5.1,17-12.6,22.4-21.7l1-1.7l0.5-0.8l6.5,3.7l6.7,3.9l0.1,0c5.4-9.8,8.4-20.8,9-32H-92c0.1-1.3,0.1-2.7,0.1-4.1
			c0-0.8,0-1.6-0.1-2.4c-1.3-32.1-27.7-57.8-60.1-57.8L-155.3,146.6z M-94.3,206.7c0,0.1,0,0.1,0,0.2c-0.1,31.8-25.9,57.5-57.7,57.5
			s-57.6-25.7-57.7-57.5c0-0.1,0-0.1,0-0.2c0-2.8,0.2-5.7,0.6-8.5c4.3-27.7,28.2-48.9,57.1-48.9s52.9,21.2,57.1,48.9
			C-94.5,201.1-94.3,203.9-94.3,206.7z"/>
		<path id="Path_76_5_" class="st3" d="M-152,297.2v2.7c27.4,0,53.4-12,71.1-33l-3.5-0.1C-101.6,286.1-126.2,297.2-152,297.2z"/>
		<path id="Path_77_5_" class="st3" d="M-152,116.3v-2.7c-33.6,0-63,17.8-79.4,44.4l2.5,1.1C-213,133.5-184.5,116.3-152,116.3z"/>
		<path id="Path_78_5_" class="st3" d="M-66.2,206.7c0-47.4-38.4-85.9-85.9-85.9v2.5c46,0,83.4,37.3,83.4,83.4s-37.3,83.4-83.4,83.4
			s-83.4-37.3-83.4-83.4h-2.5c0,47.4,38.4,85.9,85.9,85.9S-66.2,254.2-66.2,206.7z"/>
	</g>
</g>
</svg>
