<?xml version="1.0" encoding="utf-8"?>
<!-- Generator: Adobe Illustrator 25.4.1, SVG Export Plug-In . SVG Version: 6.00 Build 0)  -->
<svg version="1.1" id="Layer_1" xmlns="http://www.w3.org/2000/svg" xmlns:xlink="http://www.w3.org/1999/xlink" x="0px" y="0px"
	 viewBox="0 0 178 191" style="enable-background:new 0 0 178 191;" xml:space="preserve">
<style type="text/css">
	.st0{display:none;}
	.st1{fill:#0377E0;}
	.st2{fill:#A9BEC6;}
	.st3{fill-rule:evenodd;clip-rule:evenodd;fill:#FFFFFF;}
	.st4{fill:#FFFFFF;}
</style>
<g id="SilhV3.tif" class="st0">
	
		<image style="display:inline;overflow:visible;" width="101" height="101" id="Layer_1_00000023282554829876438810000013661174727109339579_" xlink:href="7D3CF07676B437AA.png"  transform="matrix(0.6436 0 0 0.6436 57 67)">
	</image>
</g>
<g id="zaAjrQ.tif" class="st0">
	
		<image style="display:inline;overflow:visible;" width="101" height="101" id="Layer_1_00000060002696043278971150000016817748568987106213_" xlink:href="7D3CF07676B437AE.png"  transform="matrix(0.7228 0 0 0.7228 53 63)">
	</image>
</g>
<g>
	<circle id="Path-4" class="st1" cx="89.5" cy="95.8" r="58"/>
	<g id="Group_1494_5_" transform="matrix(0.875, 0.485, -0.485, 0.875, 322.297, -11.667)">
		<path id="Path_68_5_" class="st2" d="M-111.3,143.2L-111.3,143.2l-4.1,6.6c8.2,5.3,15.2,12.3,20.4,20.6l6.7-3.9l0.1,0
			C-94.1,157.2-102,149.2-111.3,143.2z"/>
		<path id="Path_69_5_" class="st2" d="M-116.9,140c-9.9-5.2-20.8-8.1-31.9-8.6v7.8c9.7,0.4,19.2,3,27.8,7.5L-116.9,140L-116.9,140z
			"/>
		<path id="Path_70_5_" class="st2" d="M-186.1,274L-186.1,274c9.5,4.9,20.1,7.7,30.8,8.1v-7.8c-9.4-0.4-18.6-2.8-26.9-7L-186.1,274
			z"/>
		<path id="Path_71_5_" class="st2" d="M-219.6,210.8h-7.8c0.6,10.8,3.5,21.4,8.5,31l0.1,0l6.7-3.9
			C-216.5,229.5-219,220.3-219.6,210.8z"/>
		<path id="Path_72_5_" class="st2" d="M-115.6,263.8l3.7,6.8l0,0.1c9.1-5.7,16.9-13.4,22.8-22.3l-0.1,0l-6.7-3.9
			C-101,252.2-107.8,258.8-115.6,263.8z"/>
		<path id="Path_73_5_" class="st2" d="M-148.8,274.3v7.8c10.9-0.4,21.6-3.3,31.3-8.3l0-0.1l-3.7-6.8
			C-129.8,271.4-139.2,273.9-148.8,274.3z"/>
		<path id="Path_74_5_" class="st2" d="M-84.4,204.3h7.8c-0.3-11.2-3.2-22.2-8.3-32.2l-0.1,0l-6.7,3.9
			C-87.2,184.8-84.7,194.5-84.4,204.3z"/>
		<path id="Path_75_5_" class="st2" d="M-155.3,146.6v-15.2c-11.2,0.5-22.1,3.4-32,8.7l0,0.1l3.9,6.7l3.7,6.5
			c-1.9,1-3.7,2.1-5.5,3.2l-0.1,0.1l-3.7-6.5l-3.9-6.7l0-0.1c-9.3,6-17.2,14-23.1,23.4l0.1,0l6.7,3.9l6.5,3.7
			c-1.2,1.8-2.2,3.7-3.2,5.6l-6.5-3.8l-6.7-3.9l-0.1,0c-5.1,9.9-7.9,20.9-8.2,32h15.2v2.4c0,9.9,2.4,19.6,7,28.3
			c0.6,1.2,1.3,2.4,2,3.5l0.8,1.3l-6.4,3.7l-6.7,3.9l-0.1,0c6.1,9.5,14.2,17.5,23.8,23.5l0-0.1l3.9-6.7l3.7-6.5l0.2,0.1
			c1.2,0.7,2.4,1.5,3.7,2.1c7.7,4.1,16.2,6.5,25,6.9c1.1,0.1,2.2,0.1,3.2,0.1c1.1,0,2.2,0,3.2-0.1c8.8-0.5,17.3-2.8,25.1-7l0.9-0.5
			c9.2-5.1,17-12.6,22.4-21.7l1-1.7l0.5-0.8l6.5,3.7l6.7,3.9l0.1,0c5.4-9.8,8.4-20.8,9-32H-92c0.1-1.3,0.1-2.7,0.1-4.1
			c0-0.8,0-1.6-0.1-2.4c-1.3-32.1-27.7-57.8-60.1-57.8L-155.3,146.6z M-94.3,206.7c0,0.1,0,0.1,0,0.2c-0.1,31.8-25.9,57.5-57.7,57.5
			s-57.6-25.7-57.7-57.5c0-0.1,0-0.1,0-0.2c0-2.8,0.2-5.7,0.6-8.5c4.3-27.7,28.2-48.9,57.1-48.9s52.9,21.2,57.1,48.9
			C-94.5,201.1-94.3,203.9-94.3,206.7z"/>
		<path id="Path_76_5_" class="st2" d="M-152,297.2v2.7c27.4,0,53.4-12,71.1-33l-3.5-0.1C-101.6,286.1-126.2,297.2-152,297.2z"/>
		<path id="Path_77_5_" class="st2" d="M-152,116.3v-2.7c-33.6,0-63,17.8-79.4,44.4l2.5,1.1C-213,133.5-184.5,116.3-152,116.3z"/>
		<path id="Path_78_5_" class="st2" d="M-66.2,206.7c0-47.4-38.4-85.9-85.9-85.9v2.5c46,0,83.4,37.3,83.4,83.4s-37.3,83.4-83.4,83.4
			s-83.4-37.3-83.4-83.4h-2.5c0,47.4,38.4,85.9,85.9,85.9S-66.2,254.2-66.2,206.7z"/>
	</g>
</g>
<g id="k6xnrG.tif">
	
		<image style="overflow:visible;" width="294" height="340" id="Layer_0_00000111881923048789515460000005764162076686605755_" xlink:href="7D3CF07676B437A9.png"  transform="matrix(1 0 0 1 220 -43)">
	</image>
</g>
<g>
	<g transform="translate(-360.000000, -264.000000)">
		<g transform="translate(360.000000, 267.000000)">
			<path class="st3" d="M92.4,115l1.1,5.7H76.4l1.1-5.7H92.4z"/>
			<path class="st3" d="M113.4,92.8V72.2c0-1.6-1.3-2.9-2.8-2.9H59.3c-1.5,0-2.8,1.3-2.8,2.9v37c0,1.6,1.3,2.9,2.8,2.9h34.8
				c-0.4-1.4-0.6-2.8-0.6-4.3c0-0.5,0-1,0.1-1.4H59.3V72.2h51.3v20C111.6,92.3,112.5,92.5,113.4,92.8z"/>
			<path class="st3" d="M75,117.8h20c0.8,0,1.4,0.6,1.4,1.4l0,0c0,0.8-0.6,1.4-1.4,1.4H75c-0.8,0-1.4-0.6-1.4-1.4l0,0
				C73.5,118.5,74.2,117.8,75,117.8z"/>
			<path class="st3" d="M78.1,83.2v-3.1l-12.6,7.2v2.4l12.6,6.8v-3.1l-9.6-4.9v-0.1L78.1,83.2z M83.2,100.9l6.1-24.5h-2.7l-6,24.5
				H83.2z M91.8,83.2l9.6,5.2v0.1l-9.6,4.9v3.1l12.6-6.8v-2.4l-12.6-7.2V83.2z"/>
			<g transform="translate(14.000000, 9.000000)">
				<path class="st4" d="M87.2,104.7c-1.4,0.6-2.3,1.2-2.8,1.6c-0.6,0.5-0.7,1.4-0.3,2c0.5,0.6,1.4,0.7,2,0.3
					c0.4-0.3,1.1-0.8,2.3-1.2c0.1,0,0.2-0.1,0.3-0.1C88,106.5,87.5,105.6,87.2,104.7z M101.7,107.2c0.1,0,0.2,0.1,0.2,0.1
					c1.2,0.5,1.9,1,2.3,1.2c0.6,0.5,1.5,0.4,2-0.3c0.5-0.6,0.4-1.5-0.3-2c-0.5-0.4-1.5-1-2.8-1.6
					C102.8,105.6,102.3,106.5,101.7,107.2z M103.6,103.1h3c0.8,0,1.4-0.6,1.4-1.4s-0.6-1.4-1.4-1.4h-2.9v1.4
					C103.7,102.2,103.7,102.7,103.6,103.1z M103.7,98.5c1.1-0.5,1.8-1,2.3-1.3c0.6-0.5,0.7-1.4,0.3-2c-0.5-0.6-1.4-0.7-2-0.3
					c-0.2,0.2-0.6,0.4-1.2,0.7C103.4,96.5,103.7,97.5,103.7,98.5z M99.9,91.7l0.9-2.4c0.3-0.7-0.1-1.6-0.8-1.8s-1.6,0.1-1.8,0.8
					l-0.8,2.2C98.2,90.8,99.1,91.2,99.9,91.7z M93.1,90.6l-0.8-2.2c-0.3-0.7-1.1-1.1-1.8-0.8s-1.1,1.1-0.8,1.8l0.9,2.3
					C91.2,91.2,92.1,90.8,93.1,90.6z M87.3,95.6c-0.6-0.3-1-0.5-1.2-0.7c-0.6-0.5-1.5-0.4-2,0.3c-0.5,0.6-0.4,1.5,0.3,2
					c0.5,0.4,1.2,0.8,2.3,1.3C86.7,97.5,86.9,96.5,87.3,95.6z M86.6,100.3h-2.9c-0.8,0-1.4,0.6-1.4,1.4s0.6,1.4,1.4,1.4h3
					c-0.1-0.5-0.1-1-0.1-1.5V100.3z"/>
				<path class="st3" d="M94.5,108.8c-3.6-0.4-6.4-3.4-6.4-7.1v-2.8c0,0,0,0,0,0h6.4V108.8z M95.9,108.8c3.6-0.4,6.4-3.4,6.4-7.1
					v-2.8c0,0,0,0,0,0h-6.4V108.8z M88.2,97.4c0.7-3.3,3.5-5.7,7-5.7c3.4,0,6.3,2.5,7,5.7H88.2z"/>
			</g>
		</g>
	</g>
</g>
</svg>
