<?xml version="1.0" encoding="utf-8"?>
<!-- Generator: Adobe Illustrator 25.4.1, SVG Export Plug-In . SVG Version: 6.00 Build 0)  -->
<svg version="1.1" id="Layer_1" xmlns="http://www.w3.org/2000/svg" xmlns:xlink="http://www.w3.org/1999/xlink" x="0px" y="0px"
	 viewBox="0 0 178 191" style="enable-background:new 0 0 178 191;" xml:space="preserve">
<style type="text/css">
	.st0{display:none;}
	.st1{fill:#0377E0;}
	.st2{fill:#FFFFFF;}
	.st3{fill:#A9BEC6;}
</style>
<g id="SilhV3.tif" class="st0">
	
		<image style="display:inline;overflow:visible;" width="101" height="101" id="Layer_1_00000023282554829876438810000013661174727109339579_" xlink:href="7D1B44438E7AE686.png"  transform="matrix(0.6436 0 0 0.6436 57 67)">
	</image>
</g>
<g id="zaAjrQ.tif" class="st0">
	
		<image style="display:inline;overflow:visible;" width="101" height="101" id="Layer_1_00000060002696043278971150000016817748568987106213_" xlink:href="7D1B44438E7AE68A.png"  transform="matrix(0.7228 0 0 0.7228 53 63)">
	</image>
</g>
<g>
	<circle id="Path-4" class="st1" cx="89.5" cy="95.8" r="58"/>
	<path id="Composite_Path-4" class="st2" d="M126.7,84.9l-13.6-15.4c-0.8-0.9-1.9-1.3-3.1-1.3c-1.6,0.1-3.1,0.7-4.3,1.7
		c-1.3,1.1-2.1,2.6-2.3,4.2l-2.5,2.2c-3.4-1.3-8.2,0.4-11.7,2.2l-0.1-0.1c-1.2-0.8-10.8-5.9-16.1-3.2l-2.7-1.9
		c-0.4-1.6-1.3-3.1-2.7-4c-1.1-0.8-2.5-1.3-3.9-1.3c-1.3-0.1-2.6,0.5-3.4,1.6l-12,16.6c-1.5,2-0.5,5.1,2.1,7
		c1.1,0.8,2.5,1.3,3.9,1.3c0.7,0,1.4-0.2,2.1-0.5l1.9,1.4c-0.9,4.7,4,10.5,6.4,12.8l-1.6,1.4c-1.5,1.3-1.2,3.8,0.6,5.9
		c0.9,1.1,2.3,1.9,3.7,2c0.2,1.1,0.8,2.1,1.5,2.9c1,1.2,2.4,2,4,2.1c0.1,0,0.2,0,0.3,0c0.3,0.9,0.8,1.7,1.5,2.4c1,1.2,2.4,2,4,2.2
		c0,0,0.1,0,0.1,0c0.3,0.9,0.8,1.8,1.5,2.5c1,1.3,2.4,2.1,4,2.3c0.5,0,1.1-0.2,1.5-0.5l5.1-4.4l1.4,1c0.8,0.6,1.7,0.8,2.7,0.8
		c2.6,0,4.8-2.1,4.9-4.7c0.6,0.2,1.3,0.2,2,0.1c1.3-0.2,2.4-0.9,3.2-1.9c0.5-0.8,0.9-1.7,0.9-2.6c0.5,0.2,1,0.2,1.6,0.2
		c0.3,0,0.6,0,0.8-0.1c1.2-0.2,2.3-0.9,3.1-1.9c0.6-0.8,0.9-1.7,0.8-2.7c0-0.2,0-0.4,0-0.6c0.2,0,0.4,0,0.6,0.1c0.3,0,0.6,0,0.9-0.1
		c1.2-0.2,2.3-0.8,3-1.8c0.5-0.7,0.8-1.6,0.8-2.6c-0.1-1.9-1-3.7-2.6-4.7l-0.4-0.3c1.7-2.5,4-6.8,2.9-10.4l1.8-1.6
		c0.5,0.2,1.1,0.3,1.6,0.3c1.6-0.1,3.1-0.7,4.3-1.7C127.8,89.9,128.4,86.8,126.7,84.9z M55.8,91.6c-0.3,0.4-0.8,0.6-1.3,0.5
		c-0.9,0-1.7-0.3-2.4-0.9c-1.6-1.1-2.1-2.7-1.5-3.5l12-16.7c0.3-0.4,0.8-0.6,1.3-0.5c0.9,0,1.7,0.3,2.4,0.9c1.6,1.1,2.1,2.7,1.5,3.5
		L55.8,91.6z M68.5,114.8L68.5,114.8l-0.4,0.3c-0.1,0-0.1,0-0.2,0c-0.8-0.1-1.5-0.6-2-1.2c-1-1.2-1-2.2-0.9-2.3l8.4-7.4
		c0.1,0,0.1,0,0.2,0c0.8,0.1,1.5,0.6,2,1.2c1,1.2,1,2.2,0.9,2.3l-0.7,0.6L68.5,114.8z M74.1,119.5C74,119.5,74,119.5,74.1,119.5
		l-0.8,0.7c0,0-0.1,0-0.1,0c-0.8-0.2-1.5-0.6-2-1.3c-0.6-0.6-1-1.4-1-2.2l0.1-0.1L78,110c0.8,0.2,1.5,0.6,2,1.2c0.6,0.6,1,1.4,1,2.2
		l-1,0.8L74.1,119.5z M79.5,124.3C79.5,124.3,79.5,124.3,79.5,124.3l-0.6,0.6c-0.8-0.2-1.5-0.7-2-1.3c-0.6-0.6-1-1.3-1.1-2.2
		l2.7-2.3l4.3-3.7c1.6,0.5,2.7,1.8,3.1,3.5L79.5,124.3z M84.5,130.8v-1.3l0,0V130.8z M84.4,129.5c-0.8-0.3-1.4-0.7-1.9-1.4
		c-0.6-0.6-1-1.3-1.1-2.1l6.2-5.4c1.5,0.6,2.6,1.9,3.1,3.5L84.4,129.5z M97.1,125.4c-0.7,1-2.1,1.3-3.1,0.6l-1-0.7
		c0.7-1.2,0.1-3.2-1.5-5c-0.8-1-1.9-1.7-3.1-2.1c-0.2-1-0.6-2-1.2-2.8l0.4,0.3l0,0l9.1,6.5c0.5,0.4,0.9,1,0.8,1.7
		C97.5,124.5,97.4,125,97.1,125.4L97.1,125.4z M115.1,110.4c0,0.4-0.1,0.8-0.3,1.1c-0.3,0.4-0.8,0.7-1.3,0.7
		c-0.9,0.1-1.9-0.1-2.6-0.7l-14-10c-0.4-0.3-1-0.3-1.4,0c0,0-0.1,0.1-0.1,0.1c-0.1,0.1-0.2,0.1-0.2,0.2l0,0c0,0,0,0,0,0
		c-0.4,0.6-0.3,1.4,0.3,1.8c0,0,0,0,0,0l13.2,9.4c0.8,0.5,1.3,1.4,1.3,2.3c0,0.4-0.1,0.8-0.4,1.2c-0.3,0.4-0.8,0.7-1.4,0.8
		c-0.8,0.1-1.6-0.1-2.3-0.6l-1.8-1.3c0,0-0.1,0-0.1-0.1l-10.7-7.6c0,0,0,0-0.1,0l-0.5-0.4c-0.6-0.4-1.4-0.3-1.8,0.3
		c-0.4,0.6-0.3,1.4,0.3,1.8c0,0,0,0,0,0l0.4,0.3c0,0,0.1,0.1,0.1,0.1l0.2,0.2l9.1,6.5c0,0,0.1,0,0.1,0.1l1.3,0.9c0,0,0,0,0.1,0
		c0.6,0.5,1,1.2,1,1.9c0,1.1-0.8,2-1.9,2.2c-0.7,0.1-1.3-0.1-1.9-0.4l-9-6.4l-2.1-1.5c-0.6-0.4-1.4-0.3-1.8,0.3
		c-0.3,0.4-0.3,0.8-0.1,1.3c-0.8-1-1.9-1.7-3.2-2c-0.2-1.3-0.7-2.4-1.6-3.4c-0.7-0.9-1.7-1.5-2.8-1.9c0-1.4-0.6-2.8-1.6-3.9
		c-1.8-2-4.4-2.6-5.8-1.4l-4.9,4.3c-2-1.7-7-7.6-5.7-11.1c0,0,0-0.1,0-0.1c0-0.1,0-0.2,0-0.3c0-0.1,0-0.2,0-0.2c0-0.1,0-0.2-0.1-0.2
		c0-0.1,0-0.2-0.1-0.2c0-0.1-0.1-0.1-0.1-0.2c-0.1-0.1-0.1-0.1-0.2-0.2c0,0,0,0-0.1-0.1l-2.3-1.6l11.5-15.9c0-0.1,0.1-0.1,0.1-0.2
		l2.4,1.7c0,0,0,0,0.1,0c0,0,0.1,0.1,0.1,0.1c0.1,0,0.2,0.1,0.3,0.1c0,0,0.1,0,0.1,0c0,0,0.1,0,0.1,0s0.1,0,0.1,0
		c0.1,0,0.2,0,0.3-0.1c0.1,0,0.1-0.1,0.2-0.1c0,0,0.1,0,0.1-0.1c2.7-2.1,9.8,0.4,12.9,2.1c-0.5,0.3-1,0.7-1.5,1.1
		c-0.1,0.1-0.1,0.2-0.2,0.3c-0.1,0-0.2,0.1-0.3,0.2L73.3,91.5c-0.9,0.8-1.3,1.9-1.3,3c0,1.3,0.5,2.5,1.4,3.4c0.9,1,2.2,1.7,3.6,1.8
		c0.1,0,0.2,0,0.3,0c0.9,0,1.9-0.3,2.6-0.9l10.7-9.4c0.6,0.9,1.5,1.7,2.5,2.2c0.1,0.2,0.2,0.3,0.3,0.4l18.8,14.7l0,0l0,0l1.4,1
		C114.5,108.4,115,109.4,115.1,110.4L115.1,110.4z M114.8,94.9c0,0.1,0,0.2,0.1,0.3c0,0,0,0.1,0,0.1c1.1,2.2-0.4,5.7-2.3,8.7
		L97.7,92.3c0.4-0.1,0.7-0.2,1.1-0.3c3.5-1.4,5.3-5.4,3.9-9c0,0,0,0,0,0c-0.3-0.7-1-1-1.7-0.7c-0.7,0.3-1,1-0.7,1.7c0,0,0,0,0,0
		c0.9,2.2-0.2,4.8-2.4,5.7c0,0,0,0,0,0c-1.1,0.4-2.3,0.4-3.4,0c-1.1-0.4-1.9-1.3-2.3-2.3c0-0.1-0.1-0.1-0.1-0.2
		c-0.1-0.3-0.3-0.5-0.5-0.6c-0.6-0.4-1.4-0.2-1.8,0.4c0,0.1-0.1,0.1-0.2,0.2L78,97c-0.3,0.2-0.6,0.3-1,0.3c-0.7-0.1-1.3-0.4-1.8-0.9
		c-0.4-0.5-0.7-1.1-0.7-1.8c0-0.4,0.1-0.8,0.4-1.1l11.5-10.1l0,0c0.1-0.1,0.1-0.1,0.2-0.2c0.1,0,0.2-0.1,0.3-0.2
		c1.6-1.4,10-6.2,13.5-4c0,0,0.1,0,0.1,0c0.2,0.1,0.3,0.1,0.5,0.1c0,0,0.1,0,0.1,0c0.1,0,0.1,0,0.2,0c0.1,0,0.1,0,0.2,0
		c0.1,0,0.2-0.1,0.3-0.1c0.1,0,0.1-0.1,0.2-0.1c0,0,0.1,0,0.1,0l2.2-1.9c0,0.1,0.1,0.1,0.1,0.2l13,14.7l-2.1,1.9c0,0,0,0,0,0.1
		c-0.1,0.1-0.1,0.1-0.2,0.2c0,0.1-0.1,0.1-0.1,0.2c0,0.1,0,0.2-0.1,0.2c0,0.1,0,0.2,0,0.2C114.8,94.8,114.8,94.8,114.8,94.9
		L114.8,94.9z M123.6,90.1c-0.7,0.7-1.6,1.1-2.6,1.1c-0.4,0-0.8-0.1-1.1-0.4l-13.6-15.4c-0.6-0.7-0.3-2.3,1.2-3.6
		c0.7-0.7,1.6-1.1,2.6-1.1c0.4,0,0.8,0.1,1.1,0.4l13.6,15.4C125.4,87.2,125.1,88.9,123.6,90.1L123.6,90.1z"/>
	<g id="Group_1494_5_" transform="matrix(0.875, 0.485, -0.485, 0.875, 322.297, -11.667)">
		<path id="Path_68_5_" class="st3" d="M-111.3,143.2L-111.3,143.2l-4.1,6.6c8.2,5.3,15.2,12.3,20.4,20.6l6.7-3.9l0.1,0
			C-94.1,157.2-102,149.2-111.3,143.2z"/>
		<path id="Path_69_5_" class="st3" d="M-116.9,140c-9.9-5.2-20.8-8.1-31.9-8.6v7.8c9.7,0.4,19.2,3,27.8,7.5L-116.9,140L-116.9,140z
			"/>
		<path id="Path_70_5_" class="st3" d="M-186.1,274L-186.1,274c9.5,4.9,20.1,7.7,30.8,8.1v-7.8c-9.4-0.4-18.6-2.8-26.9-7L-186.1,274
			z"/>
		<path id="Path_71_5_" class="st3" d="M-219.6,210.8h-7.8c0.6,10.8,3.5,21.4,8.5,31l0.1,0l6.7-3.9
			C-216.5,229.5-219,220.3-219.6,210.8z"/>
		<path id="Path_72_5_" class="st3" d="M-115.6,263.8l3.7,6.8l0,0.1c9.1-5.7,16.9-13.4,22.8-22.3l-0.1,0l-6.7-3.9
			C-101,252.2-107.8,258.8-115.6,263.8z"/>
		<path id="Path_73_5_" class="st3" d="M-148.8,274.3v7.8c10.9-0.4,21.6-3.3,31.3-8.3l0-0.1l-3.7-6.8
			C-129.8,271.4-139.2,273.9-148.8,274.3z"/>
		<path id="Path_74_5_" class="st3" d="M-84.4,204.3h7.8c-0.3-11.2-3.2-22.2-8.3-32.2l-0.1,0l-6.7,3.9
			C-87.2,184.8-84.7,194.5-84.4,204.3z"/>
		<path id="Path_75_5_" class="st3" d="M-155.3,146.6v-15.2c-11.2,0.5-22.1,3.4-32,8.7l0,0.1l3.9,6.7l3.7,6.5
			c-1.9,1-3.7,2.1-5.5,3.2l-0.1,0.1l-3.7-6.5l-3.9-6.7l0-0.1c-9.3,6-17.2,14-23.1,23.4l0.1,0l6.7,3.9l6.5,3.7
			c-1.2,1.8-2.2,3.7-3.2,5.6l-6.5-3.8l-6.7-3.9l-0.1,0c-5.1,9.9-7.9,20.9-8.2,32h15.2v2.4c0,9.9,2.4,19.6,7,28.3
			c0.6,1.2,1.3,2.4,2,3.5l0.8,1.3l-6.4,3.7l-6.7,3.9l-0.1,0c6.1,9.5,14.2,17.5,23.8,23.5l0-0.1l3.9-6.7l3.7-6.5l0.2,0.1
			c1.2,0.7,2.4,1.5,3.7,2.1c7.7,4.1,16.2,6.5,25,6.9c1.1,0.1,2.2,0.1,3.2,0.1c1.1,0,2.2,0,3.2-0.1c8.8-0.5,17.3-2.8,25.1-7l0.9-0.5
			c9.2-5.1,17-12.6,22.4-21.7l1-1.7l0.5-0.8l6.5,3.7l6.7,3.9l0.1,0c5.4-9.8,8.4-20.8,9-32H-92c0.1-1.3,0.1-2.7,0.1-4.1
			c0-0.8,0-1.6-0.1-2.4c-1.3-32.1-27.7-57.8-60.1-57.8L-155.3,146.6z M-94.3,206.7c0,0.1,0,0.1,0,0.2c-0.1,31.8-25.9,57.5-57.7,57.5
			s-57.6-25.7-57.7-57.5c0-0.1,0-0.1,0-0.2c0-2.8,0.2-5.7,0.6-8.5c4.3-27.7,28.2-48.9,57.1-48.9s52.9,21.2,57.1,48.9
			C-94.5,201.1-94.3,203.9-94.3,206.7z"/>
		<path id="Path_76_5_" class="st3" d="M-152,297.2v2.7c27.4,0,53.4-12,71.1-33l-3.5-0.1C-101.6,286.1-126.2,297.2-152,297.2z"/>
		<path id="Path_77_5_" class="st3" d="M-152,116.3v-2.7c-33.6,0-63,17.8-79.4,44.4l2.5,1.1C-213,133.5-184.5,116.3-152,116.3z"/>
		<path id="Path_78_5_" class="st3" d="M-66.2,206.7c0-47.4-38.4-85.9-85.9-85.9v2.5c46,0,83.4,37.3,83.4,83.4s-37.3,83.4-83.4,83.4
			s-83.4-37.3-83.4-83.4h-2.5c0,47.4,38.4,85.9,85.9,85.9S-66.2,254.2-66.2,206.7z"/>
	</g>
</g>
</svg>
