<svg width="32" height="32" viewBox="0 0 32 32" fill="none" xmlns="http://www.w3.org/2000/svg">
<path d="M26.6667 2.66675H10.6667C9.95942 2.66675 9.28115 2.9477 8.78105 3.4478C8.28095 3.94789 8 4.62617 8 5.33341V21.3334C8 22.0407 8.28095 22.7189 8.78105 23.219C9.28115 23.7191 9.95942 24.0001 10.6667 24.0001H26.6667C27.3739 24.0001 28.0522 23.7191 28.5523 23.219C29.0524 22.7189 29.3333 22.0407 29.3333 21.3334V5.33341C29.3333 4.62617 29.0524 3.94789 28.5523 3.4478C28.0522 2.9477 27.3739 2.66675 26.6667 2.66675ZM18.6667 6.00008C19.5507 6.00008 20.3986 6.35127 21.0237 6.97639C21.6488 7.60151 22 8.44936 22 9.33342C22 10.2175 21.6488 11.0653 21.0237 11.6904C20.3986 12.3156 19.5507 12.6667 18.6667 12.6667C17.7826 12.6667 16.9348 12.3156 16.3096 11.6904C15.6845 11.0653 15.3333 10.2175 15.3333 9.33342C15.3333 8.44936 15.6845 7.60151 16.3096 6.97639C16.9348 6.35127 17.7826 6.00008 18.6667 6.00008ZM25.3333 20.0001H12V19.6667C12 17.2014 15.0053 14.6667 18.6667 14.6667C22.328 14.6667 25.3333 17.2014 25.3333 19.6667V20.0001Z" fill="white"/>
<path d="M5.33366 10.6667H2.66699V26.6667C2.66699 28.1374 3.86299 29.3334 5.33366 29.3334H21.3337V26.6667H5.33366V10.6667Z" fill="white"/>
</svg>
