<svg width="21" height="15" viewBox="0 0 21 15" fill="none" xmlns="http://www.w3.org/2000/svg">
<path d="M2.40625 0C1.76807 0 1.15603 0.253515 0.704774 0.704774C0.253515 1.15603 0 1.76807 0 2.40625V12.4688C0 13.1069 0.253515 13.719 0.704774 14.1702C1.15603 14.6215 1.76807 14.875 2.40625 14.875H18.5938C19.2319 14.875 19.844 14.6215 20.2952 14.1702C20.7465 13.719 21 13.1069 21 12.4688V2.40625C21 1.76807 20.7465 1.15603 20.2952 0.704774C19.844 0.253515 19.2319 0 18.5938 0H2.40625ZM1.3125 12.4688V5.6875H19.6875V12.4688C19.6875 13.0725 19.1975 13.5625 18.5938 13.5625H2.40625C1.8025 13.5625 1.3125 13.0725 1.3125 12.4688ZM1.3125 4.375V2.40625C1.3125 1.8025 1.8025 1.3125 2.40625 1.3125H18.5938C19.1975 1.3125 19.6875 1.8025 19.6875 2.40625V4.375H1.3125Z" fill="#1C45F7"/>
</svg>
