<svg width="21" height="20" viewBox="0 0 21 20" fill="none" xmlns="http://www.w3.org/2000/svg">
<path d="M6.30119 0L6.1812 0.00839928C5.96532 0.037443 5.76729 0.143803 5.62387 0.30775C5.48044 0.471696 5.40135 0.682099 5.40126 0.899927V16.1291L1.53758 12.2678L1.43678 12.1814C1.25416 12.0457 1.02688 11.9841 0.800716 12.0092C0.574549 12.0343 0.366283 12.1441 0.217842 12.3166C0.0694019 12.4891 -0.0081904 12.7114 0.000685447 12.9388C0.00956129 13.1662 0.104246 13.3817 0.265679 13.5421L5.67004 18.9417L5.77083 19.0281C5.94418 19.1561 6.15773 19.2177 6.37264 19.2016C6.58756 19.1855 6.78957 19.0929 6.94194 18.9405L12.3379 13.5409L12.4243 13.4401C12.5527 13.2667 12.6144 13.0529 12.5984 12.8377C12.5823 12.6225 12.4894 12.4202 12.3367 12.2678L12.2359 12.1814C12.0625 12.053 11.8487 11.9913 11.6335 12.0073C11.4183 12.0234 11.216 12.1163 11.0636 12.269L7.20112 16.1339V0.899927L7.19392 0.777537C7.16434 0.56209 7.05775 0.36464 6.89386 0.221703C6.72997 0.0787651 6.51986 9.17073e-06 6.30239 0H6.30119ZM10.5008 0.599951C10.2622 0.599951 10.0333 0.694765 9.86451 0.863534C9.69574 1.0323 9.60092 1.2612 9.60092 1.49988C9.60092 1.73855 9.69574 1.96745 9.86451 2.13622C10.0333 2.30499 10.2622 2.39981 10.5008 2.39981H20.1001C20.3387 2.39981 20.5676 2.30499 20.7364 2.13622C20.9052 1.96745 21 1.73855 21 1.49988C21 1.2612 20.9052 1.0323 20.7364 0.863534C20.5676 0.694765 20.3387 0.599951 20.1001 0.599951H10.5008ZM9.60092 5.09959C9.60092 4.86091 9.69574 4.63201 9.86451 4.46324C10.0333 4.29447 10.2622 4.19966 10.5008 4.19966H16.5004C16.739 4.19966 16.9679 4.29447 17.1367 4.46324C17.3055 4.63201 17.4003 4.86091 17.4003 5.09959C17.4003 5.33826 17.3055 5.56716 17.1367 5.73593C16.9679 5.9047 16.739 5.99951 16.5004 5.99951H10.5008C10.2622 5.99951 10.0333 5.9047 9.86451 5.73593C9.69574 5.56716 9.60092 5.33826 9.60092 5.09959ZM10.5008 7.79937C10.2622 7.79937 10.0333 7.89418 9.86451 8.06295C9.69574 8.23172 9.60092 8.46062 9.60092 8.6993C9.60092 8.93797 9.69574 9.16687 9.86451 9.33564C10.0333 9.50441 10.2622 9.59922 10.5008 9.59922H12.9007C13.1393 9.59922 13.3682 9.50441 13.537 9.33564C13.7058 9.16687 13.8006 8.93797 13.8006 8.6993C13.8006 8.46062 13.7058 8.23172 13.537 8.06295C13.3682 7.89418 13.1393 7.79937 12.9007 7.79937H10.5008Z" fill="#7C5CD8"/>
</svg>
