<svg width="16" height="22" viewBox="0 0 16 22" fill="none" xmlns="http://www.w3.org/2000/svg">
<path d="M3.04762 0.333008C2.23934 0.333008 1.46417 0.654096 0.892627 1.22563C0.321087 1.79717 0 2.57235 0 3.38063V18.6187C0 19.427 0.321087 20.2022 0.892627 20.7737C1.46417 21.3453 2.23934 21.6663 3.04762 21.6663H12.1905C12.9988 21.6663 13.7739 21.3453 14.3455 20.7737C14.917 20.2022 15.2381 19.427 15.2381 18.6187V7.0591C15.2376 6.4531 14.9964 5.87211 14.5676 5.44387L10.1288 1.00196C9.91641 0.789744 9.66433 0.62144 9.38692 0.506659C9.10952 0.391879 8.81222 0.332872 8.512 0.333008H3.04762ZM1.52381 3.38063C1.52381 2.97649 1.68435 2.5889 1.97012 2.30313C2.25589 2.01736 2.64348 1.85682 3.04762 1.85682H7.61905V5.66634C7.61905 6.27255 7.85986 6.85393 8.28852 7.28259C8.71717 7.71124 9.29855 7.95205 9.90476 7.95205H13.7143V18.6187C13.7143 19.0229 13.5537 19.4104 13.268 19.6962C12.9822 19.982 12.5946 20.1425 12.1905 20.1425H3.04762C2.64348 20.1425 2.25589 19.982 1.97012 19.6962C1.68435 19.4104 1.52381 19.0229 1.52381 18.6187V3.38063ZM13.3989 6.42825H9.90476C9.70269 6.42825 9.5089 6.34797 9.36601 6.20509C9.22313 6.0622 9.14286 5.86841 9.14286 5.66634V2.17225L13.3989 6.42825Z" fill="#FFB746"/>
</svg>
