<?xml version="1.0" encoding="utf-8"?>
<!-- Generator: Adobe Illustrator 25.4.1, SVG Export Plug-In . SVG Version: 6.00 Build 0)  -->
<svg version="1.1" id="Layer_1" xmlns="http://www.w3.org/2000/svg" xmlns:xlink="http://www.w3.org/1999/xlink" x="0px" y="0px"
	 viewBox="0 0 158 168" style="enable-background:new 0 0 158 168;" xml:space="preserve">
<style type="text/css">
	.st0{fill:#163053;stroke:#163053;stroke-width:2;}
	.st1{fill:#0377E0;stroke:#1A83E3;stroke-width:2;}
	.st2{fill:#D2D8DA;}
</style>
<g id="Group_1628" transform="translate(-18131.881 -2175.324)">
	<g id="Icon" transform="translate(17336.586 514.584)">
		<path id="Composite_Path" class="st0" d="M854,1717.1c-0.2,0.3,0.3,0.1-0.2,1c-0.3,0.5-3.8,1.3-5.5,2.5c-2.3,1.1-4.8,4.3-5.8,6.2
			c-4.8,8.4-2,19,6.3,23.9c5.7,3.3,10.4,2.8,19.9,0.6c-0.5-2.7-0.7-5.3-1-7.9c-5.6,2-12,2.3-15.1,0.5c-4.9-2.8-5.5-9.1-3.2-13.1
			c2.4-4.4,8-6,12.3-3.5c0.1,0,0.1,0.1,0.2,0.1c12.3,7,2.8,32.5,19.4,42.1c3.4,1.9,3.6,1,9.4,3c0.1,0.4,0.5,0.3,0.2,0.8
			c-1.4,2.4-10.7-2-10.7-2c-5.2-3-9.1-9.4-11.1-18c-9.1,2.1-16.1,2.3-21.5-0.8c-9.8-5.6-11.7-17.9-6.8-26.6c2.5-4.7,6.9-8,12-9.3
			L854,1717.1z M867.1,1740.8c-5.2,1.9-9.8,2.8-13,1c-3.5-1.9-4.9-6.3-3-9.8c0-0.1,0.1-0.2,0.1-0.2c1.9-3.4,6.2-4.6,9.6-2.6
			c0,0,0.1,0,0.1,0.1C864.3,1731.1,865.7,1735.4,867.1,1740.8L867.1,1740.8z"/>
		<path id="Composite_Path-2" class="st1" d="M878.6,1736.4c9.8-2.6,15.4-2.6,21.5,0.8c9.5,5.4,13.1,16.7,7.3,26.6
			c-2.8,4.7-7.5,8-12.8,9.3c-0.1-0.4-0.6-0.7-0.2-1.5c0.2-0.3,6.7-2.5,9.6-6.2c0.5-0.8,1.4-1.7,1.8-2.5c5.2-8.8,1.2-19.6-6.7-24.1
			c-5.3-3-11.1-3.1-20-0.4c0.5,2.8,0.7,5.4,1,8c7.5-2.1,10.9-2.6,14.9-0.4c4.7,2.7,6.4,8.3,3.8,12.8c-2.8,4.6-8.6,6.2-13.3,3.7
			c-12-6.9-3.4-33.4-19.3-42.5c-2.3-1.3-6.7-2.7-9-2.3l-0.4-0.6c0.2-0.3-0.3-0.1,0.2-1c1.4-2.4,9.6,1.9,10.4,2.3
			C872.5,1721.6,876,1726.4,878.6,1736.4z M896.9,1757.8c-2.1,3.5-6.7,4.7-10.3,2.6c-3.7-2.1-4-5.8-5.9-11.5c5.3-1.9,9.7-2.9,13.1-1
			C897.6,1750.1,898.9,1754.4,896.9,1757.8L896.9,1757.8z"/>
	</g>
	<g id="Group_1627">
		<g id="Group_1626" transform="translate(17778.438 2129.852)">
			<path id="Path_68" class="st2" d="M467.9,74.3L467.9,74.3l-3.5,5.8c7.1,4.6,13.2,10.7,17.8,17.9l5.8-3.3l0.1,0
				C482.8,86.4,476,79.5,467.9,74.3z"/>
			<path id="Path_69" class="st2" d="M463,71.4c-8.6-4.5-18.1-7.1-27.7-7.5v6.8c8.4,0.4,16.7,2.6,24.2,6.5L463,71.4L463,71.4z"/>
			<path id="Path_70" class="st2" d="M402.9,188L402.9,188c8.3,4.3,17.4,6.7,26.8,7.1v-6.8c-8.1-0.4-16.1-2.5-23.4-6.1L402.9,188z"
				/>
			<path id="Path_71" class="st2" d="M373.7,133h-6.8c0.5,9.4,3,18.6,7.4,27l0.1,0l5.8-3.4C376.4,149.3,374.2,141.2,373.7,133z"/>
			<path id="Path_72" class="st2" d="M464.1,179.1l3.2,5.9l0,0.1c7.9-5,14.7-11.6,19.9-19.4l-0.1,0l-5.8-3.4
				C476.8,169,470.9,174.7,464.1,179.1z"/>
			<path id="Path_73" class="st2" d="M435.3,188.2v6.8c9.5-0.4,18.8-2.8,27.2-7.2l0-0.1l-3.2-5.9
				C451.8,185.7,443.6,187.9,435.3,188.2z"/>
			<path id="Path_74" class="st2" d="M491.2,127.4h6.8c-0.3-9.8-2.8-19.3-7.3-28l-0.1,0l-5.8,3.4C488.8,110.4,491,118.8,491.2,127.4
				z"/>
			<path id="Path_75" class="st2" d="M429.6,77.1V63.9c-9.7,0.4-19.2,3-27.8,7.5l0,0.1l3.4,5.8l3.3,5.6c-1.6,0.8-3.2,1.8-4.8,2.8
				l-0.1,0l-3.3-5.6l-3.4-5.8l0-0.1c-8.1,5.2-15,12.2-20.1,20.4l0.1,0l5.8,3.3l5.6,3.3c-1,1.6-1.9,3.2-2.8,4.9l-5.7-3.3l-5.8-3.4
				l-0.1,0c-4.4,8.6-6.9,18.1-7.2,27.8h13.2v2.1c0,8.6,2.1,17,6.1,24.6c0.6,1,1.1,2.1,1.8,3.1l0.7,1.1l-5.6,3.2l-5.8,3.4l-0.1,0
				c5.3,8.3,12.4,15.2,20.7,20.4l0-0.1l3.3-5.8l3.3-5.6l0.2,0.1c1,0.7,2.1,1.3,3.2,1.8c6.7,3.6,14.1,5.6,21.7,6
				c0.9,0,1.9,0.1,2.8,0.1c0.9,0,1.9,0,2.8-0.1c7.6-0.4,15.1-2.5,21.8-6.1l0.8-0.4c8-4.5,14.7-11,19.5-18.9l0.9-1.5l0.4-0.7l5.6,3.2
				l5.8,3.3l0.1,0c4.7-8.6,7.3-18.1,7.9-27.8h-13.3c0.1-1.2,0.1-2.3,0.1-3.5c0-0.7,0-1.4,0-2.1c-1.1-28.1-24.2-50.2-52.3-50.2
				L429.6,77.1z M482.6,129.5c0,0.1,0,0.1,0,0.2c0,27.7-22.5,50.2-50.2,50.2c-27.7,0-50.2-22.5-50.2-50.2c0-0.1,0-0.1,0-0.2
				c0-27.7,22.5-50.2,50.2-50.2C460.2,79.2,482.6,101.7,482.6,129.5C482.6,129.4,482.6,129.5,482.6,129.5z"/>
			<path id="Path_76" class="st2" d="M432.4,208.1v2.4c23.8,0,46.4-10.5,61.8-28.7l-3.1-0.1C476.3,198.5,454.9,208.1,432.4,208.1z"
				/>
			<path id="Path_77" class="st2" d="M432.4,50.9v-2.4c-28.2,0-54.3,14.6-69,38.6l2.2,1C379.9,65,405.2,50.9,432.4,50.9z"/>
			<path id="Path_78" class="st2" d="M507.1,129.5c0-41.2-33.4-74.7-74.7-74.7V57c40,0,72.5,32.5,72.5,72.5S472.5,202,432.4,202
				S360,169.5,360,129.5l0,0h-2.2c-0.2,41.2,33.2,74.8,74.4,74.9c41.2,0.2,74.8-33.2,74.9-74.4C507.1,129.8,507.1,129.7,507.1,129.5
				L507.1,129.5z"/>
		</g>
	</g>
</g>
</svg>
