<?xml version="1.0" encoding="utf-8"?>
<!-- Generator: Adobe Illustrator 25.4.1, SVG Export Plug-In . SVG Version: 6.00 Build 0)  -->
<svg version="1.1" id="Layer_1" xmlns="http://www.w3.org/2000/svg" xmlns:xlink="http://www.w3.org/1999/xlink" x="0px" y="0px"
	 viewBox="0 0 158 168" style="enable-background:new 0 0 158 168;" xml:space="preserve">
<style type="text/css">
	.st0{fill:#ADCAD9;}
</style>
<g id="Group_1627">
	<g id="Group_1626" transform="translate(17778.438 2129.852)">
		<path id="Path_68" class="st0" d="M-17664-2101.1L-17664-2101.1l-3.5,5.8c7.1,4.6,13.2,10.7,17.8,17.9l5.8-3.3l0.1,0
			C-17649.1-2089-17655.9-2095.9-17664-2101.1z"/>
		<path id="Path_69" class="st0" d="M-17668.9-2103.9c-8.6-4.5-18.1-7.1-27.7-7.5v6.8c8.4,0.4,16.7,2.6,24.2,6.5L-17668.9-2103.9
			L-17668.9-2103.9z"/>
		<path id="Path_70" class="st0" d="M-17729-1987.4L-17729-1987.4c8.3,4.3,17.4,6.7,26.8,7.1v-6.8c-8.1-0.4-16.1-2.5-23.4-6.1
			L-17729-1987.4z"/>
		<path id="Path_71" class="st0" d="M-17758.2-2042.3h-6.8c0.5,9.4,3,18.6,7.4,27l0.1,0l5.8-3.3
			C-17755.5-2026-17757.7-2034.1-17758.2-2042.3z"/>
		<path id="Path_72" class="st0" d="M-17667.8-1996.2l3.2,5.9l0,0.1c7.9-5,14.7-11.6,19.9-19.4l-0.1,0l-5.8-3.4
			C-17655.1-2006.4-17660.9-2000.6-17667.8-1996.2z"/>
		<path id="Path_73" class="st0" d="M-17696.6-1987.1v6.8c9.5-0.4,18.8-2.8,27.2-7.2l0-0.1l-3.2-5.9
			C-17680.1-1989.6-17688.3-1987.5-17696.6-1987.1z"/>
		<path id="Path_74" class="st0" d="M-17640.6-2047.9h6.8c-0.3-9.8-2.8-19.3-7.3-28l-0.1,0l-5.8,3.4
			C-17643.1-2064.9-17640.9-2056.5-17640.6-2047.9z"/>
		<path id="Path_75" class="st0" d="M-17702.2-2098.2v-13.2c-9.7,0.4-19.2,3-27.8,7.5l0,0.1l3.3,5.8l3.3,5.6
			c-1.6,0.8-3.2,1.8-4.8,2.8l-0.1,0l-3.3-5.6l-3.4-5.8l0-0.1c-8.1,5.2-15,12.2-20.1,20.4l0.1,0l5.8,3.3l5.6,3.3
			c-1,1.6-1.9,3.2-2.8,4.9l-5.7-3.3l-5.8-3.4l-0.1,0c-4.4,8.6-6.9,18.1-7.2,27.8h13.2v2.1c0,8.6,2.1,17,6.1,24.6
			c0.6,1,1.1,2.1,1.8,3.1l0.7,1.1l-5.6,3.2l-5.8,3.4l-0.1,0c5.3,8.3,12.4,15.2,20.7,20.4l0-0.1l3.3-5.8l3.3-5.6l0.2,0.1
			c1,0.7,2.1,1.3,3.2,1.8c6.7,3.6,14.1,5.6,21.7,6c0.9,0,1.9,0.1,2.8,0.1s1.9,0,2.8-0.1c7.6-0.4,15.1-2.5,21.8-6.1l0.8-0.4
			c8-4.5,14.8-11,19.5-18.9l0.9-1.5l0.4-0.7l5.6,3.2l5.8,3.3l0.1,0c4.7-8.6,7.3-18.1,7.9-27.8h-13.3c0.1-1.2,0.1-2.3,0.1-3.5
			c0-0.7,0-1.4,0-2.1c-1.1-28.1-24.2-50.2-52.3-50.2L-17702.2-2098.2z M-17649.2-2045.9c0,0.1,0,0.1,0,0.2
			c0,27.7-22.5,50.2-50.2,50.2c-27.7,0-50.2-22.5-50.2-50.2c0-0.1,0-0.1,0-0.2c0-27.7,22.5-50.2,50.2-50.2
			S-17649.2-2073.6-17649.2-2045.9C-17649.2-2045.9-17649.2-2045.9-17649.2-2045.9z"/>
		<path id="Path_76" class="st0" d="M-17699.4-1967.2v2.4c23.8,0,46.4-10.5,61.8-28.7l-3.1-0.1
			C-17655.6-1976.8-17677-1967.2-17699.4-1967.2z"/>
		<path id="Path_77" class="st0" d="M-17699.4-2124.5v-2.4c-28.2,0-54.3,14.6-69,38.6l2.2,1
			C-17752-2110.4-17726.7-2124.5-17699.4-2124.5z"/>
		<path id="Path_78" class="st0" d="M-17624.8-2045.9c0-41.2-33.4-74.7-74.7-74.7v2.2c40,0,72.5,32.5,72.5,72.5
			c0,40-32.5,72.5-72.5,72.5s-72.5-32.5-72.5-72.5l0,0h-2.2c-0.2,41.2,33.2,74.8,74.4,74.9s74.8-33.2,74.9-74.4
			C-17624.8-2045.5-17624.8-2045.7-17624.8-2045.9L-17624.8-2045.9z"/>
	</g>
</g>
</svg>
