<?xml version="1.0" encoding="utf-8"?>
<!-- Generator: Adobe Illustrator 23.1.0, SVG Export Plug-In . SVG Version: 6.00 Build 0)  -->
<svg version="1.1" id="Calque_1" xmlns="http://www.w3.org/2000/svg" xmlns:xlink="http://www.w3.org/1999/xlink" x="0px" y="0px"
	 viewBox="0 0 564 519" style="enable-background:new 0 0 564 519;" xml:space="preserve">
<style type="text/css">
	.st0{clip-path:url(#SVGID_2_);fill:#FFFFFF;}
	.st1{clip-path:url(#SVGID_2_);fill:#46ADF9;}
	.st2{clip-path:url(#SVGID_2_);fill:#BCD1D9;}
	.st3{clip-path:url(#SVGID_4_);fill:#46ADF9;}
	.st4{clip-path:url(#SVGID_6_);fill:#BCD1D9;}
	.st5{clip-path:url(#SVGID_6_);fill:#FFFFFF;}
</style>
<g>
	<defs>
		<rect id="SVGID_1_" width="564" height="519"/>
	</defs>
	<clipPath id="SVGID_2_">
		<use xlink:href="#SVGID_1_"  style="overflow:visible;"/>
	</clipPath>
	<path class="st0" d="M283.35,350.15c-60.95,0-110.54-49.59-110.54-110.54s49.59-110.54,110.54-110.54s110.54,49.59,110.54,110.54
		C393.89,300.56,344.3,350.15,283.35,350.15 M283.35,139.99c-54.93,0-99.62,44.69-99.62,99.62c0,54.93,44.69,99.62,99.62,99.62
		s99.62-44.69,99.62-99.62S338.27,139.99,283.35,139.99L283.35,139.99z"/>
	<path class="st0" d="M283.29,410.34c-94.38,0-171.16-76.78-171.16-171.16c0-94.38,76.78-171.16,171.16-171.16
		s171.16,76.78,171.16,171.16C454.45,333.56,377.67,410.34,283.29,410.34 M283.29,69.01c-93.83,0-170.17,76.34-170.17,170.17
		s76.34,170.17,170.17,170.17s170.17-76.34,170.17-170.17C453.46,145.35,377.12,69.01,283.29,69.01L283.29,69.01z M283.29,395.42
		c-86.15,0-156.24-70.09-156.24-156.23c0-86.15,70.09-156.23,156.24-156.23s156.23,70.09,156.23,156.23
		C439.52,325.33,369.44,395.41,283.29,395.42L283.29,395.42z M283.29,83.94c-85.6,0-155.24,69.64-155.24,155.24
		s69.64,155.24,155.24,155.24s155.24-69.64,155.24-155.24S368.89,83.94,283.29,83.94z"/>
	<path class="st1" d="M283.54,390.3l-1.25,0l0.02-2.98l1.23,0V390.3z M287.56,390.24l-0.08-2.98l0.98-0.03l0.1,2.98L287.56,390.24z
		 M278.27,390.21l-1.01-0.04l0.12-2.98l0.98,0.04L278.27,390.21z M292.57,390.02l-0.18-2.97l0.98-0.06l0.2,2.97L292.57,390.02z
		 M273.25,389.97l-1-0.07l0.22-2.97l0.98,0.07L273.25,389.97z M297.58,389.63l-0.28-2.97l0.98-0.1l0.3,2.96L297.58,389.63z
		 M268.25,389.56l-1-0.1l0.31-2.96l0.98,0.1L268.25,389.56z M302.57,389.08l-0.38-2.96l0.98-0.13l0.4,2.95L302.57,389.08z
		 M263.26,388.98l-1-0.14l0.42-2.95l0.97,0.13L263.26,388.98z M307.53,388.35l-0.47-2.94l0.97-0.16l0.5,2.94L307.53,388.35z
		 M258.3,388.23l-0.99-0.17l0.51-2.93l0.97,0.17L258.3,388.23z M312.48,387.47l-0.58-2.92l0.97-0.19l0.59,2.92L312.48,387.47z
		 M253.36,387.32l-0.99-0.2l0.61-2.91l0.96,0.2L253.36,387.32z M317.39,386.42l-0.67-2.9l0.96-0.23l0.7,2.9L317.39,386.42z
		 M248.45,386.24l-0.97-0.23l0.7-2.9l0.96,0.23L248.45,386.24z M322.26,385.2l-0.77-2.88l0.95-0.26l0.79,2.87L322.26,385.2z
		 M243.59,385l-0.97-0.27l0.8-2.87l0.95,0.26L243.59,385z M327.09,383.83l-0.86-2.85l0.94-0.29l0.89,2.85L327.09,383.83z
		 M238.76,383.6l-0.96-0.3l0.89-2.84l0.95,0.3L238.76,383.6z M331.88,382.29l-0.96-2.82l0.93-0.32l0.98,2.81L331.88,382.29z
		 M233.97,382.03l-0.95-0.33l0.99-2.81l0.94,0.33L233.97,382.03z M336.6,380.59l-1.05-2.79l0.92-0.35l1.07,2.78L336.6,380.59z
		 M229.24,380.31l-0.94-0.36l1.09-2.77l0.92,0.36L229.24,380.31z M341.25,378.74l-1.14-2.75l0.9-0.38l1.17,2.74L341.25,378.74z
		 M224.57,378.42l-0.93-0.4l1.18-2.73l0.9,0.39L224.57,378.42z M345.84,376.74l-1.24-2.71l0.89-0.41l1.26,2.7L345.84,376.74z
		 M219.97,376.38l-0.92-0.43l1.28-2.69l0.89,0.42L219.97,376.38z M350.36,374.58l-1.33-2.67l0.88-0.44l1.34,2.66L350.36,374.58z
		 M215.44,374.19l-0.9-0.46l1.35-2.65l0.88,0.45L215.44,374.19z M354.81,372.28l-1.41-2.62l0.86-0.47l1.43,2.61L354.81,372.28z
		 M210.98,371.85l-0.88-0.49l1.45-2.6l0.86,0.48L210.98,371.85z M359.18,369.83l-1.5-2.57l0.85-0.5l1.52,2.56L359.18,369.83z
		 M206.61,369.36l-0.86-0.52l1.53-2.55l0.85,0.5L206.61,369.36z M363.46,367.23l-1.58-2.53l0.83-0.52l1.6,2.51L363.46,367.23z
		 M202.33,366.73l-0.85-0.55l1.62-2.5l0.83,0.53L202.33,366.73z M367.66,364.49l-1.67-2.47l0.81-0.55l1.69,2.46L367.66,364.49z
		 M198.13,363.96l-0.82-0.57l1.7-2.45l0.81,0.56L198.13,363.96z M371.77,361.62l-1.75-2.41l0.79-0.58l1.76,2.4L371.77,361.62z
		 M194.03,361.05l-0.81-0.6l1.78-2.39l0.79,0.59L194.03,361.05z M375.79,358.61l-1.83-2.35l0.78-0.61l1.84,2.34L375.79,358.61z
		 M190.03,358.01l-0.79-0.62l1.85-2.33l0.77,0.61L190.03,358.01z M379.7,355.47l-1.9-2.29l0.75-0.63l1.92,2.28L379.7,355.47z
		 M186.13,354.84l-0.77-0.65l1.93-2.26l0.75,0.63L186.13,354.84z M383.5,352.2l-1.98-2.22l0.74-0.66l1.99,2.21L383.5,352.2z
		 M182.34,351.54l-0.74-0.67l2-2.21l0.73,0.66L182.34,351.54z M387.2,348.81l-2.05-2.16l0.71-0.68l2.07,2.15L387.2,348.81z
		 M178.66,348.12l-0.72-0.7l2.08-2.13l0.71,0.69L178.66,348.12z M390.79,345.29l-2.12-2.09l0.69-0.7l2.14,2.08L390.79,345.29z
		 M175.1,344.59l-0.7-0.72l2.15-2.07l0.69,0.71L175.1,344.59z M394.26,341.66l-2.19-2.02l0.66-0.72l2.2,2.01L394.26,341.66z
		 M171.66,340.93l-0.63-0.7l2.17-2.05l0.67,0.73L171.66,340.93z M397.6,337.92l-2.25-1.95l0.64-0.75l2.26,1.93L397.6,337.92z
		 M168.34,337.17l-0.65-0.77l2.28-1.92l0.63,0.75L168.34,337.17z M400.82,334.07l-2.31-1.88l0.61-0.77l2.33,1.86L400.82,334.07z
		 M165.14,333.3l-0.62-0.79l2.34-1.84l0.61,0.77L165.14,333.3z M403.92,330.11l-2.37-1.8l0.59-0.78l2.39,1.78L403.92,330.11z
		 M162.08,329.33l-0.6-0.81l2.4-1.76l0.58,0.79L162.08,329.33z M406.88,326.05l-2.43-1.72l0.56-0.8l2.45,1.7L406.88,326.05z
		 M159.15,325.26l-0.57-0.83l2.46-1.68l0.55,0.8L159.15,325.26z M409.71,321.89l-2.49-1.64l0.54-0.83l2.5,1.62L409.71,321.89z
		 M156.35,321.1l-0.54-0.84l2.51-1.61l0.53,0.83L156.35,321.1z M412.4,317.64l-2.54-1.56l0.51-0.84l2.55,1.53L412.4,317.64z
		 M153.7,316.85l-0.51-0.86l2.57-1.51l0.5,0.84L153.7,316.85z M414.95,313.31l-2.6-1.46l0.48-0.86l2.6,1.45L414.95,313.31z
		 M151.19,312.52l-0.49-0.88l2.61-1.43l0.47,0.86L151.19,312.52z M417.35,308.88l-2.64-1.38l0.45-0.88l2.65,1.36L417.35,308.88z
		 M148.82,308.1l-0.46-0.89l2.66-1.35l0.45,0.88L148.82,308.1z M419.6,304.39l-2.68-1.29l0.42-0.89l2.7,1.27L419.6,304.39z
		 M146.6,303.61l-0.43-0.91l2.7-1.25l0.41,0.88L146.6,303.61z M421.71,299.81l-2.73-1.2l0.4-0.91l2.74,1.18L421.71,299.81z
		 M144.54,299.04l-0.39-0.92l2.74-1.17l0.39,0.91L144.54,299.04z M423.65,295.17l-2.76-1.11l0.36-0.91l2.77,1.09L423.65,295.17z
		 M142.62,294.42l-0.36-0.93l2.78-1.08l0.36,0.92L142.62,294.42z M425.45,290.46l-2.8-1.01l0.33-0.93l2.81,1L425.45,290.46z
		 M140.86,289.72l-0.34-0.95l2.82-0.98l0.33,0.93L140.86,289.72z M427.08,285.69l-2.84-0.91l0.3-0.95l2.84,0.9L427.08,285.69z
		 M139.26,284.96l-0.3-0.96l2.85-0.88l0.29,0.93L139.26,284.96z M428.55,280.89l-2.86-0.83l0.27-0.94l2.87,0.8L428.55,280.89z
		 M137.81,280.15l-0.27-0.97l2.87-0.79l0.26,0.95L137.81,280.15z M429.86,276.04l-2.89-0.73l0.24-0.95l2.89,0.71L429.86,276.04z
		 M136.53,275.3l-0.24-0.98l2.9-0.69l0.23,0.95L136.53,275.3z M431,271.15l-2.91-0.63l0.21-0.96l2.91,0.61L431,271.15z
		 M135.42,270.4l-0.2-0.98l2.92-0.6l0.2,0.97L135.42,270.4z M431.99,266.22l-2.93-0.52l0.17-0.98l2.93,0.51L431.99,266.22z
		 M134.46,265.47l-0.17-0.98l2.94-0.51l0.17,0.97L134.46,265.47z M432.8,261.26l-2.95-0.43l0.14-0.98l2.95,0.42L432.8,261.26z
		 M133.67,260.51l-0.14-0.99l2.95-0.4l0.13,0.98L133.67,260.51z M433.44,256.29l-2.96-0.34l0.11-0.97l2.96,0.31L433.44,256.29z
		 M133.05,255.53l-0.1-1l2.96-0.3l0.1,0.98L133.05,255.53z M433.93,251.29l-2.97-0.24l0.07-0.98l2.97,0.22L433.93,251.29z
		 M132.59,250.52l-0.07-1l2.97-0.21l0.07,0.99L132.59,250.52z M434.24,246.27l-2.98-0.13l0.04-0.99l2.98,0.12L434.24,246.27z
		 M132.3,245.51l-0.04-1l2.98-0.1l0.04,0.98L132.3,245.51z M434.39,241.25l-2.98-0.03l0.01-0.99l2.98,0.02L434.39,241.25z
		 M132.18,240.5l-0.01-1l2.98-0.01l0.01,0.99L132.18,240.5z M431.4,236.29l-0.02-0.98l2.98-0.08l0.02,1.01L431.4,236.29z
		 M135.2,235.55l-2.98-0.07l0.03-1.01l2.98,0.1L135.2,235.55z M431.22,231.38l-0.05-0.98l2.97-0.17l0.06,1L431.22,231.38z
		 M135.39,230.63l-2.97-0.17l0.06-1l2.97,0.18L135.39,230.63z M430.89,226.47l-0.09-0.99l2.97-0.27l0.09,0.99L430.89,226.47z
		 M135.76,225.72l-2.97-0.27l0.09-0.99l2.97,0.28L135.76,225.72z M430.39,221.56l-0.12-0.97l2.96-0.38l0.12,1L430.39,221.56z
		 M136.28,220.83l-2.96-0.37l0.13-0.99l2.95,0.38L136.28,220.83z M429.72,216.69l-0.15-0.97l2.94-0.47l0.16,0.99L429.72,216.69z
		 M136.97,215.95l-2.94-0.46l0.16-0.99l2.94,0.48L136.97,215.95z M428.9,211.84l-0.18-0.97l2.92-0.57l0.19,0.99L428.9,211.84z
		 M137.82,211.11l-2.93-0.57l0.19-0.98l2.92,0.57L137.82,211.11z M427.91,207.02l-0.22-0.96l2.9-0.66l0.22,0.98L427.91,207.02z
		 M138.83,206.29l-2.9-0.66l0.23-0.98l2.9,0.68L138.83,206.29z M426.76,202.23l-0.25-0.96l2.88-0.76l0.25,0.97L426.76,202.23z
		 M140,201.51l-2.88-0.76l0.26-0.97l2.88,0.78L140,201.51z M425.46,197.49l-0.28-0.94l2.85-0.86l0.29,0.96L425.46,197.49z
		 M141.33,196.77l-2.85-0.86l0.29-0.96l2.85,0.87L141.33,196.77z M423.99,192.79l-0.31-0.94l2.82-0.95l0.32,0.95L423.99,192.79z
		 M142.83,192.06l-2.83-0.95l0.32-0.95l2.82,0.96L142.83,192.06z M422.37,188.14l-0.35-0.93l2.79-1.05l0.35,0.94L422.37,188.14z
		 M144.49,187.4l-2.79-1.04l0.36-0.95l2.78,1.07L144.49,187.4z M420.6,183.56l-0.38-0.91l2.75-1.14l0.38,0.92L420.6,183.56z
		 M146.29,182.81l-2.76-1.14l0.39-0.93l2.75,1.16L146.29,182.81z M418.67,179.04l-0.4-0.89l2.71-1.23l0.41,0.92L418.67,179.04z
		 M148.25,178.28l-2.72-1.23l0.42-0.92l2.7,1.25L148.25,178.28z M416.6,174.6l-0.43-0.88l2.67-1.32l0.44,0.9L416.6,174.6z
		 M150.36,173.82l-2.67-1.32l0.45-0.9l2.66,1.33L150.36,173.82z M414.38,170.22l-0.46-0.86l2.62-1.41l0.47,0.88L414.38,170.22z
		 M152.62,169.44l-2.63-1.41l0.48-0.89l2.61,1.43L152.62,169.44z M412.01,165.91l-0.49-0.85l2.58-1.49l0.5,0.87L412.01,165.91z
		 M155.02,165.13l-2.58-1.49l0.51-0.87l2.57,1.51L155.02,165.13z M409.5,161.69c-0.17-0.28-0.34-0.55-0.51-0.83l2.52-1.58
		c0.18,0.29,0.36,0.57,0.53,0.86L409.5,161.69z M157.57,160.9l-2.53-1.58l0.54-0.86l2.51,1.6L157.57,160.9z M406.86,157.55
		l-0.55-0.82l2.47-1.66l0.56,0.83L406.86,157.55z M160.24,156.77l-2.47-1.66l0.57-0.83l2.46,1.68L160.24,156.77z M404.07,153.5
		l-0.57-0.8l2.42-1.74l0.59,0.82L404.07,153.5z M163.06,152.72l-2.42-1.74l0.59-0.81l2.4,1.76L163.06,152.72z M401.15,149.54
		l-0.6-0.78l2.36-1.82l0.61,0.8L401.15,149.54z M166.01,148.78l-2.36-1.82l0.62-0.79l2.34,1.84L166.01,148.78z M398.11,145.68
		l-0.62-0.76l2.3-1.9l0.64,0.78L398.11,145.68z M169.08,144.93l-2.29-1.9l0.64-0.77l2.28,1.91L169.08,144.93z M394.94,141.92
		l-0.65-0.74l2.23-1.97l0.66,0.75L394.94,141.92z M172.28,141.19l-2.23-1.97l0.67-0.75l2.22,1.99L172.28,141.19z M391.64,138.27
		l-0.67-0.72l2.17-2.05l0.69,0.73L391.64,138.27z M175.6,137.55l-2.16-2.05l0.69-0.73l2.15,2.06L175.6,137.55z M388.23,134.72
		l-0.7-0.69l2.1-2.12l0.71,0.71L388.23,134.72z M179.04,134.03l-2.1-2.12l0.71-0.7l2.08,2.13L179.04,134.03z M384.7,131.29
		l-0.72-0.67l2.03-2.19l0.73,0.69L384.7,131.29z M182.6,130.62l-2.03-2.18l0.74-0.68l2.01,2.2L182.6,130.62z M381.06,127.98
		l-0.74-0.65l1.95-2.25l0.76,0.66L381.06,127.98z M186.25,127.33l-1.95-2.25l0.76-0.65l1.95,2.26L186.25,127.33z M377.31,124.78
		l-0.76-0.63l1.88-2.31l0.78,0.64L377.31,124.78z M190.02,124.17l-1.88-2.31l0.78-0.63l1.86,2.32L190.02,124.17z M373.45,121.71
		l-0.78-0.6l1.8-2.37l0.8,0.61L373.45,121.71z M193.89,121.13l-1.8-2.37l0.8-0.6l1.79,2.39L193.89,121.13z M369.5,118.78l-0.8-0.57
		l1.72-2.43l0.82,0.58L369.5,118.78z M197.85,118.22l-1.72-2.43l0.82-0.58l1.71,2.44L197.85,118.22z M365.45,115.97l-0.82-0.54
		l1.64-2.49l0.84,0.56L365.45,115.97z M201.91,115.45l-1.64-2.49l0.84-0.55l1.62,2.5L201.91,115.45z M361.31,113.3l-0.84-0.52
		l1.56-2.54l0.86,0.53L361.31,113.3z M206.06,112.81l-1.56-2.54l0.86-0.52l1.54,2.55L206.06,112.81z M357.08,110.76l-0.86-0.49
		l1.47-2.59l0.88,0.5L357.08,110.76z M210.29,110.31l-1.47-2.59l0.88-0.49l1.45,2.6L210.29,110.31z M352.77,108.37l-0.87-0.46
		l1.39-2.64l0.89,0.47L352.77,108.37z M214.6,107.95l-1.39-2.64l0.89-0.46l1.37,2.65L214.6,107.95z M348.37,106.12l-0.88-0.43
		l1.29-2.68l0.9,0.44L348.37,106.12z M218.98,105.74l-1.3-2.68l0.91-0.43l1.28,2.69L218.98,105.74z M343.91,104.02l-0.9-0.4
		l1.2-2.73l0.92,0.41L343.91,104.02z M223.43,103.68l-1.21-2.72l0.92-0.4l1.19,2.73L223.43,103.68z M339.38,102.07l-0.91-0.37
		l1.11-2.76l0.93,0.38L339.38,102.07z M227.95,101.76L226.83,99l0.93-0.37l1.1,2.77L227.95,101.76z M334.78,100.27l-0.93-0.34
		l1.02-2.8l0.95,0.35L334.78,100.27z M232.54,100l-1.02-2.8l0.94-0.34l1,2.8L232.54,100z M330.12,98.63l-0.94-0.31l0.93-2.83
		l0.96,0.32L330.12,98.63z M237.19,98.38l-0.93-2.83l0.95-0.31l0.91,2.84L237.19,98.38z M325.41,97.14l-0.95-0.28l0.83-2.86
		l0.97,0.29L325.41,97.14z M241.89,96.93l-0.83-2.86l0.96-0.28l0.82,2.86L241.89,96.93z M320.66,95.82l-0.95-0.25l0.73-2.89
		l0.97,0.25L320.66,95.82z M246.64,95.63l-0.74-2.89l0.97-0.24l0.72,2.89L246.64,95.63z M315.88,94.65l-0.96-0.21l0.64-2.91
		l0.98,0.22L315.88,94.65z M251.43,94.49l-0.64-2.91l0.98-0.21l0.62,2.91L251.43,94.49z M311.06,93.65l-0.97-0.18l0.54-2.93
		l0.99,0.18L311.06,93.65z M256.25,93.51l-0.54-2.93l0.99-0.18l0.52,2.93L256.25,93.51z M306.21,92.81l-0.97-0.15l0.44-2.95
		l0.99,0.15L306.21,92.81z M261.1,92.7l-0.44-2.95l0.99-0.15l0.42,2.95L261.1,92.7z M301.33,92.13l-0.98-0.12l0.34-2.96l1,0.12
		L301.33,92.13z M265.98,92.04l-0.34-2.96l1-0.11l0.33,2.96L265.98,92.04z M296.44,91.62l-0.98-0.08l0.24-2.97l1,0.08L296.44,91.62z
		 M270.88,91.55l-0.25-2.97l1-0.08l0.22,2.97L270.88,91.55z M291.53,91.27l-0.98-0.05l0.14-2.97l1.01,0.05L291.53,91.27z
		 M275.79,91.23l-0.15-2.98l1-0.05l0.13,2.98L275.79,91.23z M286.61,91.08l-0.99-0.02l0.05-2.98l1,0.02L286.61,91.08z M280.7,91.06
		l-0.05-2.98l1-0.01l0.03,2.98L280.7,91.06z"/>
	<path class="st2" d="M277.37,109.6c72.4-2.49,133.68,53.97,136.9,126.51c0.02,0.45,0.01,0.9,0.03,1.35l12.69-0.56
		c-0.02-0.45-0.01-0.9-0.03-1.35c-3.53-79.53-70.75-141.43-150.15-138.63L277.37,109.6z"/>
	<path class="st2" d="M179.98,142.67l-2.29-2.23c9.67-9.92,20.69-18.44,32.73-25.31c6.66-3.8,13.6-7.07,20.77-9.78l1.13,2.99
		c-7.01,2.66-13.8,5.86-20.32,9.57C200.23,124.62,189.45,132.96,179.98,142.67"/>
	<path class="st1" d="M283.17,422.18h-0.31l0.03-6.95h0.28h0.68l0.03,6.95H283.17z M278.82,422.13l-1.02-0.03l0.21-6.95l0.97,0.03
		L278.82,422.13z M287.93,422.12l-0.17-6.95l0.97-0.03l0.21,6.95L287.93,422.12z M273.76,421.94l-1.01-0.06l0.4-6.94l0.97,0.05
		L273.76,421.94z M292.98,421.92l-0.37-6.94l0.97-0.05l0.41,6.94L292.98,421.92z M268.71,421.61l-1.01-0.08l0.59-6.93l0.97,0.08
		L268.71,421.61z M263.67,421.14l-1-0.11l0.77-6.91l0.97,0.11L263.67,421.14z M258.65,420.53l-1-0.14l0.97-6.88l0.97,0.13
		L258.65,420.53z M253.64,419.78l-1-0.17l1.17-6.85l0.96,0.16L253.64,419.78z M248.66,418.89l-0.99-0.19l1.35-6.82l0.96,0.19
		L248.66,418.89z M243.7,417.87l-0.99-0.22l1.54-6.78l0.96,0.21L243.7,417.87z M238.76,416.7l-0.99-0.25l1.73-6.73l0.95,0.24
		L238.76,416.7z M233.85,415.39l-0.97-0.28l1.91-6.68l0.95,0.27L233.85,415.39z M228.98,413.94l-0.97-0.3l2.1-6.63l0.93,0.29
		L228.98,413.94z M224.16,412.37l-0.96-0.33l2.29-6.56l0.93,0.32L224.16,412.37z M219.38,410.66l-0.95-0.36l2.47-6.5l0.92,0.35
		L219.38,410.66z M214.65,408.81l-0.94-0.38l2.65-6.42l0.9,0.37L214.65,408.81z M209.98,406.84l-0.92-0.41l2.82-6.35l0.9,0.4
		L209.98,406.84z M205.37,404.73l-0.92-0.44l3-6.27l0.88,0.42L205.37,404.73z M200.82,402.5l-0.91-0.46l3.18-6.18l0.87,0.44
		L200.82,402.5z M196.33,400.15l-0.89-0.48l3.34-6.1l0.86,0.47L196.33,400.15z M191.91,397.67l-0.88-0.51l3.52-6l0.84,0.49
		L191.91,397.67z M187.56,395.08l-0.86-0.54l3.68-5.9l0.82,0.51L187.56,395.08z M183.28,392.36l-0.85-0.56l3.85-5.79l0.81,0.53
		L183.28,392.36z M179.08,389.53l-0.83-0.58l4-5.68l0.79,0.56L179.08,389.53z M174.96,386.58l-0.81-0.6l4.15-5.58l0.78,0.58
		L174.96,386.58z M170.93,383.52l-0.79-0.62l4.3-5.46l0.77,0.6L170.93,383.52z M166.98,380.36l-0.78-0.64l4.45-5.34l0.75,0.62
		L166.98,380.36z M163.12,377.09l-0.76-0.67l4.6-5.22l0.73,0.64L163.12,377.09z M159.35,373.71l-0.74-0.69l4.74-5.09l0.71,0.66
		L159.35,373.71z M155.68,370.23l-0.72-0.7l4.88-4.95l0.7,0.68L155.68,370.23z M152.1,366.66l-0.71-0.73l5.01-4.82l0.67,0.7
		L152.1,366.66z M148.63,362.99l-0.68-0.74l5.14-4.69l0.66,0.72L148.63,362.99z M145.25,359.22l-0.66-0.76l5.26-4.54l0.64,0.74
		L145.25,359.22z M141.99,355.37l-0.65-0.79l5.39-4.38l0.61,0.75L141.99,355.37z M138.82,351.42l-0.62-0.8l5.51-4.24l0.6,0.77
		L138.82,351.42z M135.77,347.4l-0.59-0.81l5.62-4.1l0.58,0.79L135.77,347.4z M132.84,343.29l-0.57-0.82l5.72-3.95l0.56,0.81
		L132.84,343.29z M130.01,339.1l-0.55-0.84l5.83-3.78l0.53,0.82L130.01,339.1z M127.31,334.84l-0.52-0.86l5.94-3.62l0.51,0.83
		L127.31,334.84z M124.72,330.5l-0.5-0.86l6.03-3.47l0.49,0.85L124.72,330.5z M122.26,326.1l-0.48-0.88l6.13-3.29l0.46,0.86
		L122.26,326.1z M119.92,321.64l-0.46-0.91l6.22-3.1l0.43,0.86L119.92,321.64z M117.7,317.1l-0.43-0.91l6.3-2.94l0.41,0.88
		L117.7,317.1z M115.61,312.51l-0.4-0.93l6.39-2.75l0.39,0.89L115.61,312.51z M113.64,307.85l-0.38-0.94l6.46-2.58l0.36,0.91
		L113.64,307.85z M111.8,303.13l-0.35-0.95l6.53-2.38l0.34,0.91L111.8,303.13z M110.1,298.36l-0.32-0.96l6.59-2.2l0.31,0.92
		L110.1,298.36z M108.53,293.55l-0.3-0.97l6.65-2.02l0.28,0.93L108.53,293.55z M107.09,288.7l-0.27-0.97l6.7-1.85l0.26,0.95
		L107.09,288.7z M105.79,283.81l-0.24-0.98l6.75-1.65l0.23,0.95L105.79,283.81z M104.63,278.89l-0.22-1l6.8-1.45l0.21,0.94
		L104.63,278.89z M103.6,273.93l-0.19-1.01l6.84-1.26l0.18,0.95L103.6,273.93z M102.71,268.94l-0.16-0.99l6.86-1.1l0.16,0.97
		L102.71,268.94z M101.96,263.94l-0.13-1.01l6.89-0.9l0.13,0.96L101.96,263.94z M101.35,258.92l-0.11-1.02l6.92-0.69l0.1,0.96
		L101.35,258.92z M100.88,253.89l-0.08-1l6.93-0.53l0.07,0.98L100.88,253.89z"/>
	<path class="st2" d="M135.51,246.74c-0.66-23.8,5.03-49.14,16.01-71.34l3.58,1.77c-10.7,21.63-16.24,46.3-15.6,69.46L135.51,246.74
		z"/>
	<path class="st2" d="M283.29,408.85c-46.38,0-89.72-18.43-122.03-51.9l3.57-3.45c31.37,32.49,73.43,50.38,118.46,50.38
		c39.7-0.01,78.05-14.37,107.99-40.44l3.26,3.75C363.7,394.04,324.19,408.84,283.29,408.85"/>
	<path class="st2" d="M424.73,340.66l-5.64-4.06c20.54-28.54,31.39-64.07,31.39-99.26h6.95
		C457.43,273.99,446.12,310.93,424.73,340.66"/>
	<path class="st2" d="M283.23,374.98c12.11-0.37,24.11-2.42,35.66-6.09c19.32-6.15,36.96-16.68,51.53-30.78l2.78,2.87
		c-15.02,14.53-33.19,25.39-53.11,31.72c-11.9,3.78-24.27,5.9-36.75,6.28L283.23,374.98z"/>
	<path class="st2" d="M283.29,363.23c-68.4,0-124.05-55.65-124.05-124.05s55.65-124.05,124.05-124.05s124.05,55.65,124.05,124.05
		C407.34,307.58,351.69,363.23,283.29,363.23 M283.29,116.12c-67.85,0-123.06,55.2-123.06,123.06c0,67.85,55.2,123.05,123.06,123.05
		s123.05-55.2,123.05-123.05S351.14,116.12,283.29,116.12z"/>
	<path class="st0" d="M283.17,448.91c-110.82,0.01-203.66-87.2-209.34-199.1l0.99-0.05c5.83,114.95,104.09,203.71,219.04,197.89
		c55.59-2.82,106.82-27.18,144.24-68.6c37.42-41.42,56.48-94.85,53.65-150.44c-2.82-55.59-27.18-106.82-68.6-144.24
		c-41.42-37.42-94.84-56.48-150.44-53.65l-0.05-0.99c55.86-2.83,109.54,16.31,151.15,53.91s66.1,89.07,68.93,144.92
		c2.83,55.86-16.31,109.54-53.91,151.16c-37.6,41.62-89.06,66.09-144.92,68.93C290.32,448.82,286.73,448.91,283.17,448.91"/>
	<polygon class="st1" points="384.78,190.73 384.48,190.11 387.45,188.67 387.76,189.32 	"/>
	<path class="st1" d="M336.63,341.92l-1.52-2.93c0.41-0.21,0.82-0.43,1.22-0.64l1.56,2.91C337.47,341.48,337.05,341.7,336.63,341.92
		 M339.95,340.12l-1.61-2.88c0.4-0.22,0.8-0.45,1.2-0.68l1.65,2.86C340.78,339.66,340.37,339.89,339.95,340.12L339.95,340.12z
		 M343.23,338.22l-1.7-2.83c0.39-0.24,0.79-0.48,1.17-0.72l1.74,2.8C344.04,337.73,343.63,337.97,343.23,338.22z M346.44,336.21
		l-1.8-2.77c0.39-0.25,0.77-0.5,1.15-0.76l1.83,2.74C347.23,335.69,346.84,335.95,346.44,336.21L346.44,336.21z M349.58,334.09
		l-1.89-2.7c0.38-0.26,0.75-0.53,1.13-0.8l1.92,2.68C350.35,333.55,349.97,333.82,349.58,334.09L349.58,334.09z M352.65,331.87
		l-1.98-2.64c0.37-0.28,0.73-0.55,1.1-0.83l2.01,2.62C353.41,331.3,353.03,331.59,352.65,331.87L352.65,331.87z M355.64,329.56
		l-2.06-2.58c0.36-0.29,0.72-0.58,1.07-0.87l2.09,2.55C356.38,328.96,356.01,329.26,355.64,329.56L355.64,329.56z M358.55,327.15
		l-2.14-2.51c0.35-0.3,0.69-0.6,1.04-0.9l2.18,2.48C359.27,326.53,358.91,326.84,358.55,327.15L358.55,327.15z M361.38,324.65
		l-2.23-2.43c0.34-0.31,0.68-0.62,1.01-0.93l2.25,2.41C362.07,324.01,361.73,324.33,361.38,324.65L361.38,324.65z M364.13,322.05
		l-2.31-2.36c0.33-0.32,0.65-0.64,0.98-0.97l2.33,2.33C364.8,321.39,364.46,321.72,364.13,322.05z M366.78,319.37l-2.38-2.28
		c0.32-0.33,0.63-0.66,0.94-1l2.41,2.25C367.43,318.69,367.11,319.03,366.78,319.37L366.78,319.37z M369.35,316.6l-2.45-2.21
		c0.31-0.34,0.61-0.68,0.91-1.03l2.48,2.17C369.98,315.9,369.67,316.25,369.35,316.6z M371.83,313.75l-2.53-2.12
		c0.3-0.35,0.59-0.71,0.88-1.06l2.55,2.09C372.43,313.02,372.13,313.38,371.83,313.75z M374.21,310.81l-2.6-2.04
		c0.28-0.36,0.57-0.73,0.85-1.09l2.62,2.01C374.79,310.07,374.5,310.44,374.21,310.81L374.21,310.81z M376.5,307.8l-2.66-1.95
		c0.27-0.37,0.54-0.74,0.81-1.12l2.68,1.92C377.05,307.04,376.78,307.42,376.5,307.8L376.5,307.8z M378.68,304.72l-2.72-1.87
		c0.26-0.38,0.52-0.76,0.77-1.14l2.75,1.83C379.22,303.94,378.95,304.33,378.68,304.72L378.68,304.72z M380.77,301.56l-2.78-1.78
		c0.25-0.39,0.49-0.78,0.73-1.17l2.8,1.74C381.27,300.76,381.02,301.16,380.77,301.56z M382.75,298.34l-2.84-1.68
		c0.24-0.4,0.47-0.79,0.7-1.19l2.86,1.65C383.23,297.53,382.99,297.93,382.75,298.34L382.75,298.34z M384.62,295.06l-2.89-1.59
		c0.22-0.4,0.44-0.81,0.65-1.21l2.91,1.55C385.08,294.23,384.85,294.64,384.62,295.06L384.62,295.06z M386.39,291.71l-2.94-1.49
		c0.21-0.41,0.41-0.82,0.62-1.23l2.96,1.46C386.82,290.87,386.61,291.29,386.39,291.71L386.39,291.71z M388.05,288.31l-2.99-1.4
		c0.19-0.41,0.39-0.83,0.58-1.25l3.01,1.36C388.45,287.45,388.25,287.88,388.05,288.31L388.05,288.31z M389.6,284.85l-3.03-1.3
		c0.18-0.42,0.36-0.85,0.54-1.27l3.05,1.26C389.97,283.99,389.79,284.42,389.6,284.85L389.6,284.85z M391.04,281.35l-3.07-1.2
		c0.17-0.43,0.33-0.86,0.49-1.29l3.09,1.16C391.38,280.47,391.21,280.91,391.04,281.35L391.04,281.35z M392.36,277.8l-3.11-1.1
		c0.15-0.43,0.3-0.87,0.45-1.3l3.13,1.06C392.67,276.91,392.51,277.36,392.36,277.8L392.36,277.8z M393.56,274.22l-3.14-1
		c0.14-0.44,0.28-0.88,0.41-1.32l3.16,0.96C393.85,273.32,393.71,273.77,393.56,274.22L393.56,274.22z M394.65,270.59l-3.17-0.9
		c0.13-0.44,0.25-0.89,0.37-1.33l3.19,0.86C394.91,269.68,394.78,270.14,394.65,270.59L394.65,270.59z M395.62,266.93l-3.2-0.79
		c0.11-0.45,0.22-0.9,0.32-1.34l3.21,0.76C395.85,266.01,395.74,266.47,395.62,266.93L395.62,266.93z M396.47,263.24l-3.23-0.69
		c0.1-0.45,0.19-0.9,0.28-1.35l3.23,0.65C396.67,262.31,396.57,262.78,396.47,263.24L396.47,263.24z M397.2,259.52l-3.25-0.59
		c0.08-0.45,0.16-0.9,0.24-1.36l3.25,0.54C397.37,258.59,397.29,259.06,397.2,259.52L397.2,259.52z M397.82,255.78l-3.26-0.48
		c0.07-0.46,0.13-0.91,0.19-1.37l3.27,0.44C397.95,254.85,397.88,255.32,397.82,255.78L397.82,255.78z M398.3,252.03l-3.28-0.38
		c0.05-0.45,0.1-0.91,0.15-1.37l3.28,0.33C398.41,251.08,398.36,251.56,398.3,252.03L398.3,252.03z M398.67,248.25l-3.29-0.26
		c0.04-0.46,0.07-0.92,0.1-1.38l3.29,0.23C398.74,247.31,398.71,247.78,398.67,248.25L398.67,248.25z M398.91,244.47l-3.3-0.16
		c0.02-0.46,0.04-0.92,0.06-1.38l3.3,0.12C398.95,243.52,398.93,244,398.91,244.47L398.91,244.47z M399.03,240.68l-3.3-0.05
		c0.01-0.46,0.01-0.92,0.01-1.38l3.3,0.01C399.04,239.73,399.03,240.2,399.03,240.68L399.03,240.68z M395.72,236.94
		c-0.01-0.46-0.02-0.92-0.03-1.38l3.3-0.1c0.02,0.48,0.03,0.95,0.04,1.42L395.72,236.94z M395.59,233.27
		c-0.02-0.46-0.05-0.92-0.08-1.38l3.29-0.21c0.03,0.47,0.06,0.95,0.08,1.42L395.59,233.27z M395.35,229.6
		c-0.04-0.46-0.08-0.92-0.12-1.38l3.28-0.32c0.05,0.47,0.09,0.94,0.13,1.41L395.35,229.6z M394.98,225.94
		c-0.06-0.46-0.11-0.92-0.17-1.37l3.27-0.42c0.06,0.47,0.12,0.94,0.18,1.41L394.98,225.94z M394.49,222.29
		c-0.07-0.45-0.14-0.91-0.22-1.36l3.26-0.53c0.08,0.47,0.15,0.94,0.22,1.4L394.49,222.29z M393.88,218.66
		c-0.08-0.45-0.17-0.9-0.26-1.35l3.24-0.64c0.09,0.47,0.18,0.93,0.27,1.4L393.88,218.66z M393.15,215.06c-0.1-0.45-0.2-0.9-0.3-1.35
		l3.21-0.75c0.11,0.46,0.21,0.92,0.31,1.38L393.15,215.06z M392.3,211.47c-0.11-0.45-0.23-0.89-0.35-1.33l3.19-0.86
		c0.12,0.46,0.24,0.92,0.36,1.38L392.3,211.47z M391.33,207.92c-0.13-0.44-0.26-0.88-0.39-1.32l3.16-0.96
		c0.14,0.45,0.27,0.91,0.4,1.36L391.33,207.92z M390.25,204.4c-0.14-0.44-0.29-0.88-0.43-1.31l3.13-1.06
		c0.15,0.45,0.3,0.9,0.45,1.35L390.25,204.4z M389.05,200.92c-0.16-0.43-0.32-0.86-0.48-1.3l3.09-1.16
		c0.17,0.44,0.33,0.89,0.49,1.33L389.05,200.92z M387.74,197.48c-0.17-0.43-0.34-0.85-0.52-1.28l3.05-1.26
		c0.18,0.44,0.36,0.88,0.54,1.32L387.74,197.48z M386.31,194.08c-0.19-0.42-0.37-0.84-0.56-1.26l3.01-1.36
		c0.2,0.43,0.39,0.87,0.58,1.3L386.31,194.08z"/>
	<polygon class="st1" points="333.8,343.34 332.36,340.37 332.99,340.06 334.45,343.02 	"/>
	<path class="st0" d="M101.69,252.63c-2.46-48.43,14.14-94.97,46.74-131.06c32.6-36.08,77.22-57.31,125.65-59.76l0.04,0.8
		c-48.22,2.45-92.65,23.58-125.1,59.5c-32.45,35.92-48.98,82.26-46.53,130.48L101.69,252.63z"/>
	<path class="st1" d="M283.35,360.14c-66.46,0-120.53-54.07-120.53-120.53s54.07-120.53,120.53-120.53s120.53,54.07,120.53,120.53
		C403.88,306.07,349.81,360.14,283.35,360.14 M283.35,120.41c-65.73,0-119.2,53.47-119.2,119.2s53.47,119.2,119.2,119.2
		s119.2-53.47,119.2-119.2S349.07,120.41,283.35,120.41L283.35,120.41z"/>
	
		<rect x="273.2" y="29.69" transform="matrix(0.999 -0.0442 0.0442 0.999 -1.7718 12.1352)" class="st0" width="0.9" height="32.92"/>
</g>
<g>
	<defs>
		<rect id="SVGID_3_" x="58.35" y="1.99" width="213.51" height="244.78"/>
	</defs>
	<clipPath id="SVGID_4_">
		<use xlink:href="#SVGID_3_"  style="overflow:visible;"/>
	</clipPath>
	<path class="st3" d="M283.82,451.3l-1.74-0.01l0.03-4.15l1.71,0.01V451.3z M289.42,451.22l-0.12-4.15l1.37-0.04l0.14,4.15
		L289.42,451.22z M276.48,451.19l-1.4-0.05l0.17-4.15l1.37,0.05L276.48,451.19z M296.41,450.91l-0.25-4.15l1.37-0.09l0.28,4.14
		L296.41,450.91z M269.48,450.84l-1.4-0.1l0.3-4.14l1.37,0.1L269.48,450.84z M303.39,450.37l-0.39-4.14l1.37-0.13l0.42,4.13
		L303.39,450.37z M262.5,450.27l-1.39-0.14l0.44-4.13l1.37,0.14L262.5,450.27z M310.35,449.6l-0.53-4.12l1.36-0.18l0.55,4.12
		L310.35,449.6z M255.55,449.46l-1.39-0.19l0.58-4.11l1.36,0.18L255.55,449.46z M317.28,448.59l-0.65-4.1l1.35-0.22l0.69,4.1
		L317.28,448.59z M248.63,448.42l-1.38-0.24l0.71-4.09l1.35,0.23L248.63,448.42z M324.18,447.36l-0.8-4.07l1.35-0.27l0.83,4.07
		L324.18,447.36z M241.74,447.15l-1.38-0.28l0.85-4.07l1.34,0.28L241.74,447.15z M331.02,445.89l-0.94-4.05l1.34-0.32l0.97,4.04
		L331.02,445.89z M234.9,445.65l-1.36-0.33l0.98-4.04l1.34,0.32L234.9,445.65z M337.81,444.2l-1.07-4.01l1.33-0.36l1.1,4.01
		L337.81,444.2z M228.12,443.92l-1.35-0.37l1.12-4l1.32,0.37L228.12,443.92z M344.55,442.28l-1.2-3.98l1.31-0.4l1.24,3.97
		L344.55,442.28z M221.39,441.97l-1.34-0.42l1.25-3.96l1.32,0.41L221.39,441.97z M351.22,440.13l-1.34-3.93l1.3-0.45l1.37,3.92
		L351.22,440.13z M214.71,439.78l-1.32-0.46l1.38-3.92l1.31,0.46L214.71,439.78z M357.8,437.77l-1.47-3.88l1.28-0.49l1.5,3.88
		L357.8,437.77z M208.11,437.37l-1.31-0.51l1.52-3.87l1.28,0.5L208.11,437.37z M364.29,435.19l-1.6-3.84l1.26-0.53l1.63,3.82
		L364.29,435.19z M201.6,434.74l-1.29-0.55l1.65-3.81l1.26,0.54L201.6,434.74z M370.69,432.4l-1.73-3.78l1.24-0.57l1.75,3.77
		L370.69,432.4z M195.19,431.9l-1.28-0.6l1.78-3.75l1.24,0.58L195.19,431.9z M376.99,429.39l-1.85-3.72l1.23-0.61l1.87,3.71
		L376.99,429.39z M188.87,428.84l-1.25-0.64l1.89-3.7l1.23,0.63L188.87,428.84z M383.19,426.18l-1.97-3.66l1.2-0.65l2,3.64
		L383.19,426.18z M182.66,425.58l-1.23-0.68l2.02-3.63l1.2,0.66L182.66,425.58z M389.29,422.76l-2.09-3.59l1.18-0.69l2.12,3.57
		L389.29,422.76z M176.56,422.11l-1.21-0.72l2.14-3.56l1.18,0.7L176.56,422.11z M395.26,419.14l-2.2-3.52l1.16-0.73l2.23,3.5
		L395.26,419.14z M170.59,418.44l-1.18-0.76l2.26-3.49l1.15,0.74L170.59,418.44z M401.12,415.32l-2.32-3.44l1.13-0.77l2.35,3.42
		L401.12,415.32z M164.74,414.58l-1.15-0.79l2.36-3.42l1.14,0.78L164.74,414.58z M406.85,411.31l-2.44-3.36l1.11-0.81l2.46,3.35
		L406.85,411.31z M159.02,410.52l-1.13-0.83l2.48-3.33l1.11,0.82L159.02,410.52z M412.44,407.12l-2.55-3.28l1.08-0.85l2.57,3.26
		L412.44,407.12z M153.44,406.28l-1.1-0.87l2.59-3.25l1.08,0.85L153.44,406.28z M417.9,402.74l-2.65-3.2l1.05-0.88l2.68,3.18
		L417.9,402.74z M148.01,401.86l-1.07-0.91l2.7-3.16l1.05,0.89L148.01,401.86z M423.21,398.18l-2.76-3.1l1.02-0.92l2.78,3.09
		L423.21,398.18z M142.73,397.27l-1.04-0.94l2.79-3.08l1.02,0.92L142.73,397.27z M428.36,393.45l-2.86-3.02l0.99-0.95l2.88,2.99
		L428.36,393.45z M137.59,392.5l-1-0.97l2.9-2.98l0.99,0.96L137.59,392.5z M433.36,388.55l-2.96-2.92l0.96-0.98l2.98,2.89
		L433.36,388.55z M132.63,387.57l-0.97-1.01l2.99-2.88l0.96,0.99L132.63,387.57z M438.19,383.49l-3.05-2.82l0.93-1.01l3.07,2.8
		L438.19,383.49z M127.83,382.47l-0.88-0.97l3.02-2.85l0.93,1.02L127.83,382.47z M442.86,378.27l-3.14-2.72l0.9-1.04l3.16,2.7
		L442.86,378.27z M123.2,377.23l-0.91-1.07l3.18-2.67l0.88,1.04L123.2,377.23z M447.35,372.9l-3.22-2.62l0.86-1.07l3.25,2.59
		L447.35,372.9z M118.74,371.83l-0.87-1.1l3.26-2.57l0.85,1.08L118.74,371.83z M451.67,367.38l-3.31-2.51l0.82-1.09l3.33,2.48
		L451.67,367.38z M114.47,366.3l-0.83-1.13l3.35-2.46l0.81,1.1L114.47,366.3z M455.8,361.72l-3.39-2.4l0.78-1.12l3.41,2.37
		L455.8,361.72z M110.38,360.63l-0.8-1.16l3.43-2.34l0.77,1.12L110.38,360.63z M459.75,355.92l-3.47-2.28l0.75-1.15l3.49,2.26
		L459.75,355.92z M106.48,354.82l-0.75-1.17l3.5-2.24l0.74,1.16L106.48,354.82z M463.49,350l-3.54-2.17l0.71-1.17l3.56,2.14
		L463.49,350z M102.79,348.89l-0.72-1.21l3.58-2.11l0.7,1.17L102.79,348.89z M467.05,343.95l-3.62-2.04l0.67-1.2l3.63,2.02
		L467.05,343.95z M99.28,342.85l-0.68-1.22l3.64-2l0.66,1.2L99.28,342.85z M470.4,337.79l-3.68-1.92l0.63-1.22l3.69,1.9
		L470.4,337.79z M95.99,336.69l-0.64-1.24l3.71-1.88l0.62,1.22L95.99,336.69z M473.54,331.52l-3.74-1.8l0.59-1.24l3.76,1.77
		L473.54,331.52z M92.9,330.43l-0.59-1.27l3.77-1.75l0.58,1.23L92.9,330.43z M476.47,325.14l-3.8-1.67l0.55-1.26l3.81,1.65
		L476.47,325.14z M90.01,324.07l-0.55-1.28l3.82-1.63l0.54,1.26L90.01,324.07z M479.19,318.66l-3.85-1.55l0.5-1.27l3.87,1.51
		L479.19,318.66z M87.34,317.62l-0.51-1.3l3.87-1.51l0.5,1.28L87.34,317.62z M481.69,312.09l-3.91-1.41l0.47-1.3l3.91,1.39
		L481.69,312.09z M84.89,311.07l-0.47-1.33l3.93-1.36l0.45,1.29L84.89,311.07z M483.97,305.45l-3.95-1.27l0.42-1.32l3.96,1.26
		L483.97,305.45z M82.65,304.43l-0.43-1.34l3.97-1.23l0.41,1.3L82.65,304.43z M486.02,298.75l-3.99-1.16l0.37-1.31l4,1.12
		L486.02,298.75z M80.64,297.72l-0.38-1.35l4.01-1.09l0.37,1.32L80.64,297.72z M487.84,291.99l-4.03-1.02l0.33-1.33l4.04,0.98
		L487.84,291.99z M78.85,290.95l-0.33-1.37l4.04-0.96l0.32,1.33L78.85,290.95z M489.43,285.17l-4.06-0.88l0.28-1.34l4.07,0.85
		L489.43,285.17z M77.29,284.12l-0.28-1.36l4.07-0.84l0.28,1.35L77.29,284.12z M490.8,278.3l-4.09-0.73l0.24-1.36l4.09,0.72
		L490.8,278.3z M75.96,277.25l-0.24-1.37l4.09-0.71l0.24,1.36L75.96,277.25z M491.93,271.39l-4.11-0.6l0.2-1.36l4.11,0.58
		L491.93,271.39z M74.86,270.34l-0.19-1.39l4.12-0.56l0.19,1.36L74.86,270.34z M492.84,264.45l-4.13-0.48l0.15-1.36l4.13,0.44
		L492.84,264.45z M74,263.39l-0.15-1.4l4.13-0.41l0.14,1.36L74,263.39z M493.51,257.48l-4.14-0.33l0.1-1.37l4.14,0.31L493.51,257.48
		z M73.36,256.41l-0.1-1.39l4.14-0.29l0.1,1.38L73.36,256.41z M493.95,250.49l-4.15-0.18l0.06-1.38l4.15,0.17L493.95,250.49z
		 M72.95,249.42l-0.05-1.39l4.15-0.15l0.05,1.37L72.95,249.42z M494.16,243.49l-4.15-0.05l0.01-1.37l4.15,0.02L494.16,243.49z
		 M72.78,242.44l-0.01-1.4l4.15-0.01l0.01,1.37L72.78,242.44z M489.99,236.57l-0.03-1.36l4.15-0.11l0.03,1.4L489.99,236.57z
		 M76.99,235.54l-4.15-0.1l0.04-1.4l4.15,0.13L76.99,235.54z M489.74,229.72l-0.08-1.37l4.15-0.24l0.08,1.4L489.74,229.72z
		 M77.27,228.68l-4.15-0.24l0.09-1.39l4.15,0.25L77.27,228.68z M489.27,222.87l-0.12-1.37l4.14-0.38l0.12,1.39L489.27,222.87z
		 M77.77,221.84l-4.14-0.38l0.13-1.39l4.13,0.39L77.77,221.84z M488.57,216.04l-0.17-1.36l4.12-0.52l0.17,1.4L488.57,216.04z
		 M78.5,215.01l-4.12-0.51l0.18-1.39l4.12,0.53L78.5,215.01z M487.65,209.24l-0.21-1.36l4.1-0.65l0.22,1.38L487.65,209.24z
		 M79.46,208.21l-4.1-0.64l0.22-1.38l4.1,0.67L79.46,208.21z M486.5,202.48l-0.26-1.35l4.08-0.79l0.26,1.37L486.5,202.48z
		 M80.65,201.46l-4.08-0.79l0.27-1.37l4.07,0.8L80.65,201.46z M485.12,195.76l-0.3-1.35l4.05-0.92l0.31,1.36L485.12,195.76z
		 M82.06,194.74l-4.05-0.92l0.32-1.36l4.04,0.95L82.06,194.74z M483.52,189.08l-0.35-1.34l4.02-1.06l0.35,1.35L483.52,189.08z
		 M83.69,188.07l-4.01-1.06l0.36-1.35l4.01,1.08L83.69,188.07z M481.7,182.46l-0.39-1.32l3.98-1.2l0.4,1.34L481.7,182.46z
		 M85.55,181.47l-3.98-1.2l0.41-1.34l3.97,1.21L85.55,181.47z M479.65,175.91l-0.44-1.31l3.94-1.33l0.44,1.32L479.65,175.91z
		 M87.64,174.9l-3.94-1.32l0.45-1.33l3.93,1.34L87.64,174.9z M477.39,169.44l-0.48-1.29l3.89-1.46l0.49,1.31L477.39,169.44z
		 M89.94,168.41l-3.89-1.45l0.5-1.32l3.88,1.49L89.94,168.41z M474.92,163.05l-0.52-1.27l3.84-1.59l0.53,1.29L474.92,163.05z
		 M92.46,162.01l-3.84-1.59l0.54-1.3l3.83,1.61L92.46,162.01z M472.23,156.75l-0.56-1.24l3.78-1.72l0.57,1.28L472.23,156.75z
		 M95.19,155.69l-3.79-1.71l0.59-1.28l3.77,1.74L95.19,155.69z M469.35,150.55l-0.6-1.23l3.72-1.84l0.61,1.25L469.35,150.55z
		 M98.13,149.47l-3.72-1.84l0.62-1.25l3.72,1.86L98.13,149.47z M466.25,144.45l-0.64-1.21l3.66-1.97l0.66,1.23L466.25,144.45z
		 M101.28,143.36l-3.66-1.96l0.67-1.24l3.65,1.99L101.28,143.36z M462.95,138.45l-0.68-1.19l3.59-2.08l0.7,1.21L462.95,138.45z
		 M104.63,137.35l-3.59-2.08l0.71-1.21l3.58,2.1L104.63,137.35z M459.45,132.55c-0.24-0.39-0.48-0.77-0.72-1.16l3.52-2.21
		c0.25,0.4,0.5,0.8,0.74,1.2L459.45,132.55z M108.18,131.46l-3.53-2.2l0.75-1.19l3.51,2.23L108.18,131.46z M455.77,126.79
		l-0.76-1.14l3.45-2.32l0.77,1.16L455.77,126.79z M111.91,125.69l-3.45-2.32l0.79-1.16l3.43,2.34L111.91,125.69z M451.88,121.13
		l-0.8-1.11l3.37-2.43l0.82,1.14L451.88,121.13z M115.84,120.05l-3.37-2.43l0.82-1.13l3.35,2.45L115.84,120.05z M447.82,115.61
		l-0.83-1.08l3.29-2.54l0.85,1.11L447.82,115.61z M119.95,114.55l-3.29-2.54l0.86-1.11l3.27,2.56L119.95,114.55z M443.57,110.23
		l-0.87-1.05l3.2-2.65l0.89,1.08L443.57,110.23z M124.23,109.19l-3.2-2.65l0.9-1.08l3.18,2.67L124.23,109.19z M439.15,104.99
		l-0.91-1.03l3.11-2.75l0.92,1.05L439.15,104.99z M128.7,103.97l-3.11-2.75l0.93-1.05l3.09,2.78L128.7,103.97z M434.55,99.89
		l-0.94-1l3.02-2.85l0.96,1.02L434.55,99.89z M133.33,98.9l-3.02-2.85l0.96-1.01l3.01,2.87L133.33,98.9z M429.8,94.95l-0.97-0.97
		l2.92-2.95l0.99,0.99L429.8,94.95z M138.12,93.99l-2.92-2.95l0.99-0.98l2.91,2.97L138.12,93.99z M424.88,90.17l-1-0.94l2.82-3.05
		l1.02,0.96L424.88,90.17z M143.08,89.23l-2.83-3.04l1.03-0.95l2.8,3.07L143.08,89.23z M419.8,85.55l-1.04-0.9l2.72-3.14l1.05,0.92
		L419.8,85.55z M148.18,84.65l-2.72-3.14l1.05-0.91l2.71,3.15L148.18,84.65z M414.57,81.09l-1.06-0.87l2.62-3.22l1.08,0.89
		L414.57,81.09z M153.44,80.24l-2.62-3.22l1.09-0.88l2.6,3.24L153.44,80.24z M409.19,76.82l-1.09-0.83l2.51-3.31l1.12,0.85
		L409.19,76.82z M158.83,76l-2.51-3.31l1.12-0.84l2.49,3.33L158.83,76z M403.68,72.72l-1.12-0.8l2.41-3.39l1.14,0.81L403.68,72.72z
		 M164.36,71.95l-2.4-3.39l1.14-0.8l2.38,3.41L164.36,71.95z M398.03,68.8l-1.14-0.76l2.28-3.47l1.17,0.78L398.03,68.8z
		 M170.01,68.08l-2.29-3.46l1.17-0.77l2.26,3.48L170.01,68.08z M392.26,65.08l-1.17-0.72l2.17-3.54l1.19,0.74L392.26,65.08z
		 M175.79,64.4l-2.17-3.54l1.2-0.73l2.14,3.56L175.79,64.4z M386.36,61.54l-1.19-0.68l2.05-3.61l1.22,0.7L386.36,61.54z
		 M181.69,60.91l-2.06-3.61l1.22-0.69l2.03,3.63L181.69,60.91z M380.35,58.21l-1.21-0.64l1.93-3.68l1.24,0.66L380.35,58.21z
		 M187.69,57.63l-1.93-3.68l1.24-0.64l1.91,3.69L187.69,57.63z M374.22,55.07l-1.23-0.6l1.8-3.74l1.27,0.61L374.22,55.07z
		 M193.81,54.54L192,50.81l1.26-0.61l1.78,3.75L193.81,54.54z M368,52.14l-1.25-0.56l1.68-3.8l1.29,0.57L368,52.14z M200.01,51.67
		l-1.68-3.8l1.28-0.56l1.66,3.81L200.01,51.67z M361.68,49.42l-1.27-0.52l1.55-3.85l1.3,0.53L361.68,49.42z M206.31,49l-1.56-3.85
		l1.3-0.52l1.53,3.86L206.31,49z M355.27,46.92l-1.3-0.48l1.42-3.9l1.32,0.49L355.27,46.92z M212.71,46.54l-1.43-3.9l1.32-0.48
		l1.4,3.91L212.71,46.54z M348.78,44.62l-1.31-0.43l1.29-3.95l1.34,0.44L348.78,44.62z M219.19,44.29l-1.29-3.95l1.33-0.43
		l1.27,3.96L219.19,44.29z M342.21,42.55l-1.32-0.39l1.15-3.99l1.35,0.4L342.21,42.55z M225.75,42.26l-1.16-3.99l1.34-0.39
		l1.14,3.99L225.75,42.26z M335.59,40.71l-1.33-0.34l1.02-4.03l1.36,0.35L335.59,40.71z M232.37,40.45l-1.03-4.03l1.36-0.34l1,4.03
		L232.37,40.45z M328.92,39.08l-1.34-0.3l0.89-4.06l1.37,0.3L328.92,39.08z M239.05,38.86l-0.89-4.06l1.37-0.3l0.86,4.06
		L239.05,38.86z M322.2,37.69l-1.35-0.25l0.75-4.09l1.38,0.26L322.2,37.69z M245.77,37.5l-0.75-4.09l1.38-0.25l0.73,4.09
		L245.77,37.5z M315.44,36.52l-1.36-0.21l0.61-4.11l1.39,0.21L315.44,36.52z M252.54,36.36l-0.62-4.11l1.39-0.2l0.59,4.11
		L252.54,36.36z M308.64,35.57l-1.36-0.16l0.47-4.13l1.39,0.17L308.64,35.57z M259.34,35.45l-0.48-4.13l1.39-0.16l0.45,4.13
		L259.34,35.45z M301.81,34.85l-1.37-0.12l0.34-4.14l1.39,0.12L301.81,34.85z M266.17,34.76l-0.35-4.14l1.4-0.11l0.31,4.14
		L266.17,34.76z M294.97,34.36l-1.37-0.07l0.2-4.15l1.4,0.07L294.97,34.36z M273.02,34.31l-0.21-4.15l1.4-0.07l0.18,4.15
		L273.02,34.31z M288.11,34.1l-1.37-0.03l0.07-4.15l1.4,0.03L288.11,34.1z M279.87,34.08l-0.07-4.15l1.4-0.02l0.04,4.15
		L279.87,34.08z"/>
</g>
<g>
	<defs>
		<rect id="SVGID_5_" width="564" height="519"/>
	</defs>
	<clipPath id="SVGID_6_">
		<use xlink:href="#SVGID_5_"  style="overflow:visible;"/>
	</clipPath>
	<polygon class="st4" points="1.86,249.08 139.38,246.3 139.43,249.18 1.9,251.96 	"/>
	<polygon class="st4" points="414.38,236.62 564.04,231.04 564.17,233.91 414.5,239.5 	"/>
	<polygon class="st4" points="71.93,425.06 163.25,351.61 165.15,353.78 73.83,427.22 	"/>
	<polygon class="st4" points="504.97,414.31 420.24,335.26 418.34,337.43 503.08,416.47 	"/>
	<polygon class="st4" points="283.19,513.45 284.98,374.83 282.1,374.83 280.31,513.45 	"/>
	<path class="st5" d="M299.51,226.85l27.55-28.73c0.25-0.26,0.67-0.27,0.93-0.02c0.13,0.12,0.2,0.3,0.2,0.48v73.21
		c0,0.36-0.3,0.66-0.66,0.66h-14.55c-0.36,0-0.66-0.29-0.66-0.65v0v-34.89c0-0.36-0.3-0.66-0.66-0.66c-0.17,0-0.34,0.07-0.46,0.19
		l-10.76,10.69c-0.26,0.26-0.67,0.25-0.93,0c-0.12-0.12-0.19-0.29-0.19-0.46V227.3C299.33,227.13,299.4,226.97,299.51,226.85"/>
	<path class="st5" d="M220.72,272.61h37.63c0.36,0,0.66-0.29,0.66-0.66c0-0.07-0.01-0.14-0.03-0.2l-4.27-13.32
		c-0.07-0.24-0.01-0.5,0.17-0.68l22.22-21.26c0.26-0.25,0.68-0.24,0.93,0.02c0.12,0.12,0.18,0.28,0.18,0.45v30.24
		c0,0.36,0.29,0.66,0.65,0.66c0.07,0,0.13-0.01,0.2-0.03l24.23-7.59c0.35-0.11,0.54-0.48,0.43-0.82c-0.05-0.16-0.16-0.3-0.31-0.38
		l-9.69-5.34c-0.21-0.11-0.34-0.34-0.34-0.58v-53.59c0-0.36-0.29-0.66-0.66-0.66c-0.17,0-0.34,0.07-0.47,0.19l-72.01,72.41
		c-0.26,0.26-0.26,0.67,0,0.93C220.38,272.54,220.55,272.61,220.72,272.61"/>
</g>
</svg>
