<?xml version="1.0" encoding="utf-8"?>
<!-- Generator: Adobe Illustrator 23.1.0, SVG Export Plug-In . SVG Version: 6.00 Build 0)  -->
<svg version="1.1" id="Calque_1" xmlns="http://www.w3.org/2000/svg" xmlns:xlink="http://www.w3.org/1999/xlink" x="0px" y="0px"
	 viewBox="0 0 200 200" style="enable-background:new 0 0 200 200;" xml:space="preserve">
<style type="text/css">
	.st0{fill:#3874BA;}
	.st1{fill:#173153;}
</style>
<path id="Path-4" class="st0" d="M137.76,87.87l43.94-45.79c0.4-0.41,1.06-0.42,1.48-0.02c0.01,0,0.01,0.01,0.02,0.02
	c0.22,0.2,0.35,0.48,0.34,0.78v116.68c-0.01,0.57-0.47,1.04-1.04,1.04h-23.22c-0.58,0-1.04-0.47-1.04-1.04V103.9
	c0.01-0.58-0.45-1.05-1.03-1.06c0,0,0,0,0,0c-0.29-0.01-0.57,0.1-0.76,0.31l-17.16,17.02c-0.4,0.41-1.06,0.42-1.48,0.02
	c-0.01,0-0.01-0.01-0.02-0.02c-0.21-0.2-0.32-0.47-0.31-0.76V88.59C137.48,88.32,137.58,88.07,137.76,87.87z"/>
<path id="Path-9" class="st1" d="M12.06,160.79h60.05c0.57,0.02,1.04-0.43,1.06-1c0-0.01,0-0.02,0-0.03c0.02-0.11,0.02-0.23,0-0.34
	l-6.86-21.22c-0.11-0.38,0-0.8,0.28-1.07l35.44-33.88c0.42-0.4,1.08-0.4,1.49,0c0.18,0.19,0.28,0.45,0.28,0.72v48.21
	c0,0.58,0.47,1.04,1.04,1.04c0.11,0.01,0.22,0.01,0.33,0l38.63-12.09c0.55-0.17,0.87-0.75,0.7-1.3c-0.08-0.27-0.26-0.49-0.51-0.61
	l-15.44-8.5c-0.34-0.18-0.55-0.54-0.55-0.93V44.35c0.03-0.58-0.41-1.07-0.98-1.1c-0.03,0-0.05,0-0.08,0c-0.28,0-0.56,0.12-0.76,0.31
	L11.36,159c-0.41,0.4-0.42,1.06-0.02,1.48c0,0.01,0.01,0.01,0.02,0.02C11.54,160.68,11.79,160.79,12.06,160.79z"/>
</svg>
