<?xml version="1.0" encoding="utf-8"?>
<!-- Generator: Adobe Illustrator 25.4.1, SVG Export Plug-In . SVG Version: 6.00 Build 0)  -->
<svg version="1.1" id="Layer_1" xmlns="http://www.w3.org/2000/svg" xmlns:xlink="http://www.w3.org/1999/xlink" x="0px" y="0px"
	 viewBox="0 0 100 100" style="enable-background:new 0 0 100 100;" xml:space="preserve">
<style type="text/css">
	.st0{fill:#FFFFFF;}
</style>
<g>
	<g>
		<path class="st0" d="M48.7,76.3c-7.8-0.2-15.5-1.2-23.1-2.9c-1.5-0.3-2.1-1.1-2-2.7c0.7-9.1,4.9-16,12.6-20.9
			c1-0.6,1.8-0.6,2.7,0.2c3.6,2.8,7.6,4.1,12.1,3.7c3.4-0.2,6.4-1.4,9.1-3.5c1.5-1.1,2-1.2,3.6-0.2c6.7,4.4,10.8,10.6,11.9,18.6
			c0.1,0.7,0.2,1.4,0.2,2.1c0.1,1.4-0.5,2.2-1.8,2.5c-4.1,0.8-8.2,1.6-12.3,2.1C57.5,76,53.1,76,48.7,76.3z M71.6,69.7
			c-0.3-5.2-3.8-12-9.3-15.5c-8.3,5.2-16.5,5.2-24.9,0c-5.3,3.8-8.5,8.9-9.4,15.5C42.6,72.7,57.1,72.7,71.6,69.7z"/>
		<path class="st0" d="M50.1,49.7c-6.8,0.3-13-5.4-13.3-12.3C36.5,30,42,24,49.4,23.8c7-0.3,13.1,5.4,13.4,12.3
			C63,43.5,57.5,49.4,50.1,49.7z M49.8,45.5c4.8,0,8.7-4,8.8-8.8c0-4.9-4-8.8-8.8-8.8c-4.8,0-8.7,4-8.7,8.8
			C41.1,41.6,45,45.5,49.8,45.5z"/>
	</g>
	<path class="st0" d="M49.8,1c-27.1,0-49,22-49,49c0,27.1,22,49,49,49s49-22,49-49C98.8,23,76.9,1,49.8,1z M49.8,94.6
		C25.2,94.6,5.3,74.6,5.3,50c0-24.6,19.9-44.5,44.5-44.5c24.6,0,44.5,19.9,44.5,44.5C94.3,74.6,74.4,94.6,49.8,94.6z"/>
</g>
</svg>
