<?xml version="1.0" encoding="utf-8"?>
<!-- Generator: Adobe Illustrator 23.1.0, SVG Export Plug-In . SVG Version: 6.00 Build 0)  -->
<svg version="1.1" xmlns="http://www.w3.org/2000/svg" xmlns:xlink="http://www.w3.org/1999/xlink" x="0px" y="0px"
	 viewBox="0 0 351.4 107.5" style="enable-background:new 0 0 351.4 107.5;" xml:space="preserve">
<style type="text/css">
	.st0{fill:#FFFFFF;}
	.st1{fill:#0377E0;}
	.st2{display:none;fill:#FFFFFF;}
</style>
<g id="Calque_2">
</g>
<g id="Layer_1">
	<path id="Path" class="st0" d="M338.4,21.8c-0.6-0.7-1.4-1.1-2.3-1.1c-0.3,0-0.7,0.1-1,0.2c-0.3,0.2-0.5,0.5-0.5,0.8
		c0,0.3,0.2,0.6,0.5,0.7c0.4,0.2,0.8,0.3,1.3,0.4l1.6,0.4c0.6,0.1,1.1,0.3,1.6,0.6c0.5,0.3,0.9,0.7,1.3,1.2c0.4,0.6,0.5,1.3,0.5,2
		c0,0.7-0.2,1.4-0.5,2.1c-0.4,0.5-0.8,1-1.4,1.3c-0.6,0.3-1.2,0.6-1.9,0.7c-0.7,0.1-1.4,0.2-2.1,0.2c-0.9,0-1.8-0.1-2.7-0.4
		c-0.9-0.2-1.7-0.7-2.3-1.4l2.4-2.7c0.3,0.4,0.8,0.8,1.3,1c0.5,0.2,1,0.4,1.6,0.4c0.4,0,0.8-0.1,1.3-0.2c0.3-0.1,0.6-0.4,0.6-0.7
		c0-0.3-0.2-0.6-0.5-0.8c-0.4-0.2-0.8-0.3-1.3-0.4l-1.6-0.4c-0.6-0.1-1.1-0.3-1.6-0.6c-0.5-0.3-0.9-0.7-1.2-1.1
		c-0.3-0.6-0.5-1.3-0.5-1.9c0-0.7,0.1-1.4,0.5-2c0.3-0.5,0.7-1,1.2-1.4c0.5-0.4,1.1-0.6,1.7-0.8c0.7-0.2,1.3-0.2,2-0.3
		c0.9,0,1.7,0.1,2.6,0.4c0.8,0.2,1.6,0.7,2.2,1.3L338.4,21.8z"/>
	<path id="Path-2" class="st0" d="M347.9,21.2v4.3c0,0.4,0.1,0.7,0.1,1c0,0.3,0.1,0.5,0.2,0.7c0.1,0.3,0.3,0.4,0.6,0.5
		c0.3,0.1,0.7,0.2,1,0.2c0.3,0,0.6,0,0.9-0.1c0.3,0,0.6-0.1,0.8-0.3v3.3c-0.4,0.2-0.9,0.3-1.4,0.3c-0.5,0.1-0.9,0.1-1.4,0.1
		c-0.6,0-1.2-0.1-1.8-0.3c-0.5-0.1-1.1-0.3-1.5-0.7c-0.4-0.3-0.8-0.7-1-1.2c-0.3-0.6-0.4-1.2-0.4-1.8v-6.1h-2.5v-2.9
		c0-0.2,0.1-0.3,0.3-0.3c0,0,0,0,0,0h2.3v-0.9l1.2-0.9c0.6-0.4,1.1-0.9,1.8-1.3c0.2-0.1,0.4-0.3,0.5-0.4h0.2
		c0.1,0.1,0.1,0.1,0.2,0.2s0.1,0.4,0.1,0.6V18h3.2c0.2,0,0.3,0.1,0.3,0.3c0,0,0,0,0,0v2.9L347.9,21.2z"/>
	<path id="Path-3" class="st0" d="M298.5,42.7l27.8-28.9v72.6H311V50.7l-12.5,12.4V42.7z"/>
	<path id="Path-4" class="st1" d="M85.3,38.9l29.4-30.7c0.3-0.3,0.7-0.3,1,0c0,0,0,0,0,0c0.1,0.1,0.2,0.3,0.2,0.5v78.2
		c0,0.4-0.3,0.7-0.7,0.7H99.7c-0.4,0-0.7-0.3-0.7-0.7V49.6c0-0.4-0.3-0.7-0.7-0.7c0,0,0,0,0,0c-0.2,0-0.4,0.1-0.5,0.2L86.3,60.6
		c-0.3,0.3-0.7,0.3-1,0c0,0,0,0,0,0c-0.1-0.1-0.2-0.3-0.2-0.5V39.4C85.1,39.2,85.1,39,85.3,38.9z"/>
	<path id="Path-5" class="st0" d="M170.9,62.9v23.9c0,0.4-0.3,0.7-0.7,0.7c0,0,0,0,0,0h-12.6c-0.4,0-0.7-0.3-0.7-0.7c0,0,0,0,0,0
		v-24c0-1.5-0.3-2.9-0.8-4.3c-0.6-1.3-1.4-2.5-2.3-3.4c-1-1-2.2-1.8-3.5-2.3c-4-1.7-8.6-0.8-11.6,2.3c-1,1-1.8,2.2-2.4,3.4
		c-0.5,1.4-0.8,2.8-0.8,4.3c0,1.4,0.3,2.8,0.8,4.1c0.6,1.3,1.4,2.4,2.3,3.4c1,1,2.2,1.8,3.4,2.3c1.7,0.7,3.6,1,5.5,0.7
		c0.5,0,0.9-0.1,1.4-0.2l0.6-0.1c0.1,0,0.3-0.1,0.4-0.1c0.6,0,1.1,0.5,1.1,1.1l0,0V86c0,0.3-0.1,0.5-0.3,0.7
		c-0.2,0.2-0.5,0.4-0.8,0.4c-1.2,0.2-2.5,0.3-3.7,0.4c-3.3,0-6.6-0.7-9.7-2c-2.9-1.2-5.5-3-7.8-5.3c-2.3-2.2-4.1-4.9-5.3-7.8
		c-1.3-3-1.9-6.2-1.9-9.5c0-3.3,0.7-6.6,2-9.6c1.2-2.9,3-5.6,5.2-7.8c2.2-2.2,4.9-4,7.8-5.2c12.5-5.3,27,0.5,32.3,13
		C170.3,56.4,170.9,59.6,170.9,62.9z"/>
	<path id="Path-6" class="st0" d="M212.8,38c-2.4,1.2-4.6,2.8-6.4,4.8c-2.6,2.6-4.7,5.6-6.2,9c-0.1,0.1-0.1,0.2-0.1,0.4l-0.8,0.1
		c-1.1,0.1-2.1,0.4-3.1,0.8c-1.3,0.6-2.5,1.3-3.5,2.3c-1,1-1.7,2.1-2.3,3.4c-0.5,1.3-0.8,2.8-0.8,4.2v24c0,0.4-0.3,0.7-0.7,0.7
		c0,0,0,0,0,0h-12.5c-0.4,0-0.7-0.3-0.7-0.7V62.9c-0.1-3.3,0.5-6.5,1.9-9.5c1.2-2.9,3-5.5,5.2-7.8c2.3-2.2,4.9-4.1,7.8-5.4
		c3.3-1.3,6.7-1.9,10.2-1.9l11.6-0.5C212.9,37.7,213,37.9,212.8,38z"/>
	<path id="Path-7" class="st0" d="M296.3,61.7v25.2c0,0.4-0.3,0.7-0.7,0.7c0,0,0,0,0,0h-13.3V66.8c0-2,0.2-4.1,0-6.2
		c-0.6-4.9-4.7-8.6-9.7-8.6c-3,0-5.7,1.4-7.6,3.6c-2.2,2.8-2.2,6.3-2.2,9.7v21.5c0,0.4-0.3,0.7-0.7,0.7c0,0,0,0,0,0H249V28.4
		l12.6-12.9c0.3-0.3,0.7-0.3,1,0c0.1,0.1,0.2,0.3,0.2,0.5v24.6c1.1-0.6,2.3-1,3.6-1.4c0.6-0.2,1.1-0.3,1.7-0.4
		c1.6-0.3,3.2-0.5,4.8-0.5c1.7,0,3.4,0.2,5.1,0.7C288.6,41.4,296.2,50.8,296.3,61.7z"/>
	<path id="Path-8" class="st0" d="M244.7,79.3c-0.4,0.8-1.1,1.4-1.8,1.9c-0.7,0.6-1.4,1.2-2.2,1.7c-2.3,1.7-4.9,2.9-7.6,3.6
		c-2.2,0.6-4.4,1-6.6,1c-2,0-3.9-0.2-5.8-0.6c-8.8-2.2-15.7-8.9-18.1-17.6c-0.3-1.2-0.5-2.4-0.7-3.6c-0.1-1.2-0.2-2.4-0.1-3.6
		c0.1-1.2,0.2-2.4,0.4-3.6c0.2-1.2,0.6-2.4,0.9-3.5c0.8-2.3,1.9-4.5,3.3-6.5c0.7-1,1.5-2,2.3-2.8c0.9-0.9,1.8-1.8,2.9-2.5
		c2.1-1.6,4.5-2.8,7-3.6c1.2-0.4,2.5-0.8,3.8-1c1.3-0.2,2.6-0.3,3.9-0.3h1.1c0.9,0,1.7,0.1,2.6,0.3c0.9,0.1,1.7,0.3,2.6,0.5
		c1.7,0.4,3.3,1,4.9,1.8c1.5,0.8,3,1.7,4.4,2.8c0.6,0.4,1.1,0.9,1.6,1.4c0.3,0.2,0.5,0.5,0.8,0.7c0.4,0.4,0.7,0.8,0.5,1.4
		c-0.1,0.2-0.3,0.4-0.5,0.6c-1.5,1.4-3,2.9-4.5,4.4c-0.7,0.7-1.5,1.4-2.2,2.1l-1.1,1.1c-0.3,0.3-0.6,0.6-1,0.7
		c-0.5,0-0.9-0.2-1.2-0.5c-0.3-0.3-0.7-0.6-1-0.9c-0.7-0.6-1.5-1.1-2.3-1.4c-0.3-0.1-0.6-0.3-0.9-0.4c-4.9-1.7-10.4,0.3-13.1,4.7
		c-0.2,0.4-0.4,0.8-0.6,1.2c-2.3,5.5,0.3,11.7,5.7,14c3.9,1.6,8.4,0.8,11.5-2c0.6-0.5,1.3-1.2,2.1-0.9c0.3,0.1,0.5,0.3,0.7,0.5
		c0.5,0.5,1.1,1,1.5,1.5c0.5,0.5,1.1,1,1.5,1.5c1,1,2,2,3.1,3l1.3,1.3C244.4,78,245.1,78.5,244.7,79.3z"/>
	<path id="Path-9" class="st0" d="M1,87.8h40.3c0.4,0,0.7-0.3,0.7-0.7c0,0,0,0,0,0c0-0.1,0-0.2,0-0.2l-4.6-14.2
		c-0.1-0.3,0-0.5,0.2-0.7l23.8-22.7c0.3-0.3,0.7-0.3,1,0c0.1,0.1,0.2,0.3,0.2,0.5V82c0,0.4,0.3,0.7,0.7,0.7c0.1,0,0.1,0,0.2,0
		l25.9-8.1c0.4-0.1,0.6-0.5,0.5-0.9c-0.1-0.2-0.2-0.3-0.3-0.4l-10.3-5.7c-0.2-0.1-0.4-0.4-0.4-0.6V9.7c0-0.4-0.3-0.7-0.7-0.7
		c0,0,0,0-0.1,0c-0.2,0-0.4,0.1-0.5,0.2l-77,77.4c-0.3,0.3-0.3,0.7,0,1c0,0,0,0,0,0C0.7,87.7,0.8,87.8,1,87.8z"/>
	<path id="Composite_Path" class="st2" d="M0,114.9l6.2-14.2h0.2l6.2,14.2H9.4l-3.9-10l2-1.3l-4.8,11.3H0z M4.2,110h4.1l0.9,2.3H3.4
		L4.2,110z"/>
	<path id="Path-10" class="st2" d="M12.4,101.3h9.2v2.6h-3.3v11h-2.7v-11h-3.2V101.3z"/>
	<path id="Path-11" class="st2" d="M23.3,101.3h9.2v2.6h-3.3v11h-2.7v-11h-3.2V101.3z"/>
	<path id="Composite_Path-2" class="st2" d="M32.5,114.9l6.2-14.2h0.2l6.2,14.2h-3.1l-3.9-10l2-1.3l-4.7,11.3L32.5,114.9z M36.7,110
		h4.1l0.9,2.3h-5.9L36.7,110z"/>
	<path id="Path-12" class="st2" d="M56.2,113.8c-0.3,0.2-0.5,0.4-0.8,0.5c-0.5,0.2-1,0.4-1.5,0.6c-0.6,0.2-1.3,0.2-1.9,0.2
		c-1,0-2-0.2-2.9-0.6c-0.8-0.3-1.5-0.8-2.1-1.5c-0.6-0.6-1-1.4-1.3-2.2c-0.3-0.8-0.5-1.7-0.5-2.6c0-1,0.1-1.9,0.5-2.8
		c0.3-0.8,0.7-1.6,1.3-2.3c0.6-0.6,1.3-1.1,2.1-1.5c0.9-0.4,1.8-0.5,2.7-0.5c0.8,0,1.6,0.1,2.4,0.4c0.6,0.2,1.2,0.5,1.7,0.8
		l-1.1,2.5c-0.4-0.3-0.8-0.5-1.2-0.7c-0.6-0.3-1.2-0.4-1.8-0.4c-0.5,0-1,0.1-1.5,0.3c-0.5,0.2-0.9,0.5-1.3,0.9
		c-0.4,0.4-0.7,0.9-0.9,1.4c-0.2,0.5-0.3,1.1-0.3,1.7c0,0.6,0.1,1.2,0.3,1.8c0.2,0.5,0.5,1,0.8,1.4c0.4,0.4,0.8,0.7,1.3,0.9
		c0.5,0.2,1.1,0.3,1.7,0.3c0.6,0,1.3-0.1,1.9-0.3c0.4-0.2,0.8-0.4,1.2-0.7L56.2,113.8z"/>
	<path id="Path-13" class="st2" d="M61.7,106.1l-0.1,0.7l0.4-0.5l4.4-5h3.5l-5.6,6.1l5.7,7.5h-3.4l-4.2-5.8l-0.7,0.7v5.2h-2.7v-13.7
		h2.7V106.1z"/>
	<rect id="Path-14" x="77.3" y="109.5" class="st2" width="3.5" height="2.3"/>
	<rect id="Path-15" x="89.7" y="101.3" class="st2" width="2.7" height="13.7"/>
	<path id="Path-16" class="st2" d="M95,101.3h9.2v2.6h-3.3v11h-2.7v-11H95V101.3z"/>
	<path id="Path-17" class="st2" d="M106.9,101.1l1.3,0.5c-0.3,0.3-0.5,0.7-0.7,1.1c-0.2,0.4-0.2,0.9-0.1,1.4l-2,0.1
		c-0.2-0.8,0.1-1.7,0.6-2.3C106.3,101.5,106.6,101.3,106.9,101.1z"/>
	<path id="Path-18" class="st2" d="M117.7,104.6c-0.5-0.3-1-0.5-1.6-0.7c-0.5-0.2-1-0.3-1.5-0.3c-0.5,0-1,0.1-1.4,0.4
		c-0.3,0.2-0.5,0.6-0.5,1c0,0.3,0.1,0.6,0.4,0.9c0.3,0.3,0.6,0.5,1,0.7c0.4,0.2,0.8,0.4,1.3,0.5c0.4,0.2,0.8,0.3,1.2,0.5
		c0.4,0.2,0.7,0.5,1,0.8c0.3,0.3,0.6,0.7,0.8,1.1c0.2,0.5,0.3,1.1,0.3,1.7c0,0.7-0.2,1.4-0.5,1.9c-0.4,0.6-0.9,1.1-1.6,1.4
		c-0.8,0.4-1.7,0.6-2.6,0.6c-0.5,0-1.1-0.1-1.6-0.2c-0.5-0.1-1.1-0.3-1.6-0.5c-0.5-0.2-1-0.5-1.5-0.8l1.2-2.1c0.7,0.5,1.4,0.8,2.2,1
		c0.3,0.1,0.7,0.1,1,0.2c0.3,0,0.7,0,1-0.1c0.3-0.1,0.6-0.2,0.8-0.5c0.2-0.3,0.3-0.6,0.3-0.9c0-0.3-0.1-0.5-0.3-0.7
		c-0.2-0.2-0.4-0.5-0.7-0.6c-0.3-0.2-0.7-0.3-1-0.5c-0.4-0.2-0.9-0.3-1.3-0.6c-0.4-0.2-0.9-0.5-1.3-0.8c-0.9-0.7-1.3-1.7-1.3-2.8
		c0-0.7,0.2-1.4,0.5-2.1c0.4-0.6,0.9-1,1.6-1.3c0.7-0.4,1.4-0.5,2.2-0.6c0.9,0,1.8,0.1,2.7,0.4c0.6,0.2,1.3,0.6,1.8,0.9L117.7,104.6
		z"/>
	<path id="Path-19" class="st2" d="M130.8,110.7l-5-9.4h3.3l3.5,7.1l-0.8,0.1l3.5-7.1h3.3l-5.1,9.4v4.3h-2.7L130.8,110.7z"/>
	<path id="Composite_Path-3" class="st2" d="M138.4,108.1c0-0.9,0.2-1.8,0.6-2.7c0.7-1.7,2-3,3.7-3.8c0.9-0.4,1.8-0.6,2.7-0.6
		c0.9,0,1.8,0.2,2.7,0.6c1.7,0.7,3,2.1,3.8,3.8c0.7,1.7,0.7,3.7,0,5.4c-0.4,0.8-0.9,1.6-1.5,2.2c-0.6,0.6-1.4,1.1-2.2,1.5
		c-1.7,0.7-3.7,0.7-5.4,0c-0.8-0.3-1.6-0.9-2.2-1.5c-0.6-0.6-1.1-1.4-1.5-2.2C138.6,110,138.4,109,138.4,108.1z M141.2,108.1
		c0,0.6,0.1,1.2,0.3,1.7c0.2,0.5,0.5,1,0.9,1.4c0.4,0.4,0.8,0.7,1.4,0.9c0.5,0.2,1.1,0.3,1.7,0.3c0.6,0,1.1-0.1,1.6-0.3
		c0.5-0.2,0.9-0.5,1.3-0.9c0.4-0.4,0.7-0.9,0.9-1.4c0.2-0.5,0.3-1.1,0.3-1.7c0-0.6-0.1-1.2-0.3-1.7c-0.2-0.5-0.5-1-0.9-1.4
		c-0.4-0.4-0.8-0.7-1.3-0.9c-0.5-0.2-1.1-0.3-1.7-0.3c-1.1,0-2.2,0.4-3,1.3c-0.4,0.4-0.7,0.9-0.9,1.4
		C141.3,106.9,141.2,107.5,141.2,108.1L141.2,108.1z"/>
	<path id="Path-20" class="st2" d="M157.5,109.9c0,0.4,0.1,0.9,0.4,1.2c0.3,0.4,0.6,0.7,1,1c0.4,0.2,0.9,0.4,1.4,0.4
		c0.5,0,1-0.1,1.5-0.4c0.4-0.2,0.8-0.6,1-1c0.2-0.4,0.4-0.8,0.4-1.2v-8.6h2.6v8.7c0,0.9-0.2,1.9-0.7,2.7c-0.5,0.8-1.2,1.4-2,1.8
		c-0.9,0.4-1.8,0.7-2.8,0.7c-1,0-1.9-0.2-2.8-0.7c-0.8-0.4-1.5-1-2-1.8c-0.5-0.8-0.8-1.7-0.8-2.7v-8.7h2.7L157.5,109.9z"/>
	<path id="Composite_Path-4" class="st2" d="M173.3,101.3c0.8,0,1.5,0.1,2.3,0.3c0.6,0.2,1.2,0.5,1.7,0.9c0.4,0.4,0.8,0.9,1,1.4
		c0.2,0.6,0.4,1.2,0.4,1.9c0,0.6-0.1,1.1-0.3,1.7c-0.2,0.6-0.4,1.1-0.8,1.5c-0.4,0.5-0.9,0.9-1.5,1.1c-0.7,0.3-1.5,0.4-2.3,0.4h-1.9
		v4.3h-2.7v-13.7H173.3z M173.8,108c0.3,0,0.7-0.1,1-0.2c0.3-0.1,0.5-0.3,0.6-0.5c0.1-0.2,0.3-0.4,0.3-0.7c0.1-0.2,0.1-0.4,0.1-0.6
		c0-0.2,0-0.4-0.1-0.6c0-0.2-0.1-0.5-0.3-0.7c-0.1-0.3-0.4-0.5-0.6-0.6c-0.3-0.2-0.7-0.3-1.1-0.2h-1.9v4.1L173.8,108z M176.3,109.6
		l3.4,5.3h-3.1l-3.4-5.2L176.3,109.6z"/>
	<path id="Composite_Path-5" class="st2" d="M191.9,101.3c1.2-0.1,2.4,0.2,3.4,0.9c0.8,0.6,1.3,1.6,1.3,2.6c0,0.7-0.2,1.5-0.6,2.1
		c-0.4,0.6-1,1-1.7,1.3c-0.8,0.3-1.6,0.4-2.4,0.4l-0.4-1.5c1,0,2,0.1,3,0.5c0.8,0.3,1.5,0.7,2.1,1.3c0.5,0.6,0.8,1.3,0.8,2.1
		c0,0.6-0.1,1.3-0.4,1.9c-0.3,0.5-0.6,0.9-1.1,1.3c-0.5,0.3-1,0.5-1.5,0.7c-0.6,0.2-1.2,0.2-1.8,0.2h-4.6v-13.6H191.9z M192.3,106.8
		c0.4,0,0.9-0.2,1.2-0.5c0.2-0.3,0.4-0.7,0.4-1.1c0-0.4-0.1-0.8-0.5-1.1c-0.4-0.2-0.8-0.4-1.3-0.3h-1.4v3L192.3,106.8z M192.3,112.4
		c0.4,0,0.7,0,1.1-0.2c0.3-0.1,0.6-0.3,0.8-0.5c0.2-0.3,0.3-0.6,0.3-0.9c0-0.3-0.1-0.7-0.3-0.9c-0.2-0.2-0.5-0.4-0.9-0.4
		c-0.4-0.1-0.7-0.1-1.1-0.1h-1.5v3L192.3,112.4z"/>
	<path id="Path-21" class="st2" d="M199.9,101.3h9.3v2.6h-6.6v2.9h5.9v2.6h-5.9v2.9h6.9v2.6h-9.6V101.3z"/>
	<path id="Path-22" class="st2" d="M219.6,104.6c-0.5-0.3-1-0.5-1.6-0.7c-0.5-0.2-1-0.3-1.5-0.3c-0.5,0-1,0.1-1.4,0.4
		c-0.3,0.2-0.5,0.6-0.5,1c0,0.3,0.1,0.6,0.4,0.9c0.3,0.3,0.6,0.5,1,0.7c0.4,0.2,0.8,0.4,1.3,0.5c0.4,0.2,0.8,0.3,1.2,0.5
		c0.4,0.2,0.7,0.5,1.1,0.8c0.3,0.3,0.6,0.7,0.7,1.1c0.2,0.5,0.3,1.1,0.3,1.7c0,0.7-0.2,1.3-0.5,1.9c-0.4,0.6-0.9,1.1-1.6,1.4
		c-0.8,0.4-1.7,0.6-2.6,0.6c-0.5,0-1.1-0.1-1.6-0.2c-1.1-0.2-2.2-0.7-3.1-1.3l1.2-2.1c0.7,0.5,1.4,0.8,2.2,1
		c0.3,0.1,0.7,0.1,1.1,0.2c0.3,0,0.7,0,1-0.1c0.3-0.1,0.6-0.2,0.8-0.5c0.2-0.2,0.4-0.6,0.3-0.9c0-0.3-0.1-0.5-0.3-0.7
		c-0.2-0.2-0.4-0.5-0.7-0.6c-0.3-0.2-0.7-0.3-1-0.5c-0.4-0.2-0.9-0.3-1.3-0.6c-0.4-0.2-0.9-0.5-1.3-0.8c-0.4-0.3-0.7-0.7-0.9-1.1
		c-0.3-0.5-0.4-1.1-0.4-1.7c0-0.7,0.2-1.4,0.5-2.1c0.4-0.6,0.9-1.1,1.5-1.4c0.7-0.4,1.5-0.5,2.2-0.6c0.9,0,1.8,0.1,2.7,0.4
		c0.6,0.2,1.3,0.6,1.9,0.9L219.6,104.6z"/>
	<path id="Path-23" class="st2" d="M222.2,101.3h9.2v2.6h-3.3v11h-2.7v-11h-3.2L222.2,101.3z"/>
	<path id="Composite_Path-6" class="st2" d="M240,114.9v-13.7h4.1c1.2,0,2.4,0.2,3.5,0.6c0.9,0.3,1.7,0.9,2.4,1.6
		c0.6,0.7,1,1.4,1.3,2.3c0.3,0.8,0.4,1.7,0.4,2.5c0,0.9-0.2,1.9-0.6,2.7c-0.4,0.8-0.9,1.5-1.5,2.1c-0.6,0.6-1.4,1-2.2,1.3
		c-0.8,0.3-1.7,0.5-2.6,0.5H240z M242.7,112.3h1.6c0.6,0,1.3-0.1,1.9-0.3c0.5-0.2,1-0.4,1.4-0.8c0.4-0.4,0.7-0.8,0.9-1.3
		c0.2-0.6,0.3-1.2,0.3-1.8c0-0.8-0.1-1.5-0.4-2.2c-0.2-0.5-0.6-1-1.1-1.3c-0.4-0.3-0.8-0.5-1.3-0.6c-0.4-0.1-0.7-0.2-1.1-0.2h-2.2
		L242.7,112.3z"/>
	<path id="Path-24" class="st2" d="M254.4,101.3h9.3v2.6H257v2.9h5.9v2.6H257v2.9h6.9v2.6h-9.6L254.4,101.3z"/>
	<path id="Path-25" class="st2" d="M266.7,101.3h8.5v2.6h-5.9v3.1h5.1v2.6h-5.1v5.4h-2.7L266.7,101.3z"/>
	<path id="Path-26" class="st2" d="M277.9,101.3h9.3v2.6h-6.6v2.9h5.9v2.6h-5.9v2.9h6.9v2.6h-9.6V101.3z"/>
	<path id="Path-27" class="st2" d="M302.5,115.5l-10.4-9.3l0.8,0.4l0,8.3h-2.7v-14.2h0.1l10.1,9.3l-0.6-0.3l0-8.5h2.7L302.5,115.5
		L302.5,115.5z"/>
	<path id="Path-28" class="st2" d="M313.4,104.6c-0.5-0.3-1-0.5-1.6-0.7c-0.5-0.2-1-0.3-1.5-0.3c-0.5,0-1,0.1-1.4,0.4
		c-0.6,0.4-0.7,1.2-0.2,1.8c0,0,0.1,0.1,0.1,0.1c0.3,0.3,0.6,0.5,1,0.7c0.4,0.2,0.8,0.4,1.3,0.5c0.4,0.2,0.8,0.3,1.2,0.5
		c0.4,0.2,0.7,0.5,1,0.8c0.3,0.3,0.6,0.7,0.7,1.1c0.2,0.5,0.3,1.1,0.3,1.7c0,0.7-0.2,1.3-0.5,1.9c-0.4,0.6-0.9,1.1-1.6,1.4
		c-0.8,0.4-1.7,0.6-2.6,0.6c-0.5,0-1.1-0.1-1.6-0.2c-1.1-0.2-2.2-0.7-3.1-1.3l1.2-2.1c0.3,0.2,0.7,0.4,1,0.6
		c0.4,0.2,0.7,0.3,1.1,0.4c0.3,0.1,0.7,0.1,1.1,0.2c0.3,0,0.7,0,1-0.1c0.3-0.1,0.6-0.2,0.8-0.5c0.2-0.2,0.3-0.6,0.3-0.9
		c0-0.3-0.1-0.5-0.3-0.7c-0.2-0.2-0.5-0.5-0.7-0.6c-0.3-0.2-0.7-0.3-1-0.5c-0.4-0.2-0.9-0.3-1.3-0.6c-0.4-0.2-0.9-0.5-1.3-0.8
		c-0.9-0.7-1.4-1.7-1.3-2.8c0-0.7,0.2-1.4,0.5-2.1c0.4-0.6,0.9-1.1,1.5-1.4c0.7-0.3,1.5-0.5,2.2-0.6c0.9,0,1.8,0.1,2.7,0.4
		c0.6,0.2,1.3,0.6,1.9,0.9L313.4,104.6z"/>
	<path id="Path-29" class="st2" d="M316.9,101.3h9.3v2.6h-6.6v2.9h5.9v2.6h-5.9v2.9h6.9v2.6h-9.6L316.9,101.3z"/>
</g>
</svg>
