<svg id="Layer_1" data-name="Layer 1" xmlns="http://www.w3.org/2000/svg" viewBox="0 0 351.4 107.47"><defs><style>.cls-1{fill:#fff;}.cls-2{fill:#0377e0;}</style></defs><path id="Path" class="cls-1" d="M338.41,13.83a2.81,2.81,0,0,0-2.31-1.09,2.22,2.22,0,0,0-1,.24.85.85,0,0,0-.48.83.76.76,0,0,0,.49.7,7,7,0,0,0,1.25.4l1.62.37a6.11,6.11,0,0,1,1.62.62,3.6,3.6,0,0,1,1.26,1.16,3.52,3.52,0,0,1,.49,2,3.57,3.57,0,0,1-.55,2.06,4.15,4.15,0,0,1-1.4,1.3,5.92,5.92,0,0,1-1.91.69,11.49,11.49,0,0,1-2.1.2,9.76,9.76,0,0,1-2.74-.39,5.11,5.11,0,0,1-2.34-1.37l2.42-2.68A3.89,3.89,0,0,0,334,19.87a3.33,3.33,0,0,0,1.58.36,3.76,3.76,0,0,0,1.25-.2.73.73,0,0,0,.56-.73.82.82,0,0,0-.49-.76,5.6,5.6,0,0,0-1.25-.43L334,17.74a6.32,6.32,0,0,1-1.62-.6A3.37,3.37,0,0,1,331.14,16a3.52,3.52,0,0,1-.49-1.95,4,4,0,0,1,.46-2,4.19,4.19,0,0,1,1.23-1.35,5.37,5.37,0,0,1,1.74-.79,8.35,8.35,0,0,1,2-.25,9.43,9.43,0,0,1,2.59.37,4.9,4.9,0,0,1,2.2,1.33Z"/><path id="Path-2" class="cls-1" d="M347.89,13.23v4.3c0,.36.06.66.06,1a2,2,0,0,0,.24.74.83.83,0,0,0,.61.48,2,2,0,0,0,1,.18,4.06,4.06,0,0,0,.85-.06,1.3,1.3,0,0,0,.78-.3v3.33a4.67,4.67,0,0,1-1.39.3,9.34,9.34,0,0,1-1.4.13,8.67,8.67,0,0,1-1.82-.25,3.81,3.81,0,0,1-1.51-.67,2.7,2.7,0,0,1-1-1.21,4.06,4.06,0,0,1-.36-1.82V13.23h-2.55V10.32a.28.28,0,0,1,.27-.3h2.28V9.11l1.21-.85c.61-.42,1.15-.91,1.76-1.33a2.82,2.82,0,0,0,.55-.43h.18c.06.06.12.06.18.18s.06.37.06.55V10h3.22a.28.28,0,0,1,.3.27v2.94Z"/><path id="Path-3" class="cls-1" d="M298.48,34.75,326.25,5.83V78.4H311V42.71L298.48,55.12Z"/><path id="Path-4" class="cls-2" d="M85.25,30.91,114.7.22a.7.7,0,0,1,1,0,.68.68,0,0,1,.23.52v78.2a.71.71,0,0,1-.7.7H99.67a.7.7,0,0,1-.7-.7V41.65a.7.7,0,0,0-.69-.71.66.66,0,0,0-.51.21L86.27,52.56a.7.7,0,0,1-1,0,.66.66,0,0,1-.21-.51V31.39A.7.7,0,0,1,85.25,30.91Z"/><path id="Path-5" class="cls-1" d="M170.93,54.9V78.85a.67.67,0,0,1-.68.68H157.69a.7.7,0,0,1-.74-.66v-24a10.88,10.88,0,0,0-.8-4.25,11.1,11.1,0,0,0-2.34-3.44,11.52,11.52,0,0,0-3.46-2.35,10.37,10.37,0,0,0-11.58,2.35,11,11,0,0,0-2.4,3.44,12.14,12.14,0,0,0-.8,4.25,10.62,10.62,0,0,0,.8,4.13,12.11,12.11,0,0,0,2.34,3.38,11.39,11.39,0,0,0,3.45,2.34,10.6,10.6,0,0,0,5.48.74A7.81,7.81,0,0,0,149,65.3l.55-.12c.13,0,.25-.06.44-.06a1.11,1.11,0,0,1,1.11,1.1h0V78.05a1,1,0,0,1-.31.74,1.22,1.22,0,0,1-.8.37c-1.23.18-2.46.31-3.7.37a23.43,23.43,0,0,1-9.68-2,23.84,23.84,0,0,1-7.76-5.29,24.28,24.28,0,0,1-5.3-7.82,23.39,23.39,0,0,1-1.91-9.48,23,23,0,0,1,2-9.6,22.36,22.36,0,0,1,5.23-7.82,24.45,24.45,0,0,1,7.83-5.23A24.61,24.61,0,0,1,170.93,54.9Z"/><path id="Path-6" class="cls-1" d="M212.82,30a26.17,26.17,0,0,0-6.45,4.75,29.5,29.5,0,0,0-6.17,9,1.15,1.15,0,0,0-.12.37l-.79.06a9.47,9.47,0,0,0-3.09.8,12.55,12.55,0,0,0-3.51,2.28,11.71,11.71,0,0,0-2.28,3.38,11,11,0,0,0-.8,4.19V78.85a.7.7,0,0,1-.72.68H176.36a.68.68,0,0,1-.68-.68V54.9a22.5,22.5,0,0,1,1.85-9.54,24.07,24.07,0,0,1,5.24-7.76,26.24,26.24,0,0,1,7.82-5.36,26.74,26.74,0,0,1,10.23-1.91l11.59-.55C212.93,29.72,213,29.94,212.82,30Z"/><path id="Path-7" class="cls-1" d="M296.27,53.67V78.85a.7.7,0,0,1-.72.68H282.28V58.78c0-2,.19-4.12,0-6.16A9.7,9.7,0,0,0,272.61,44,9.88,9.88,0,0,0,265,47.64c-2.16,2.83-2.16,6.34-2.16,9.73V78.85a.7.7,0,0,1-.72.68H249V20.36L261.64,7.5a.72.72,0,0,1,1,0,.75.75,0,0,1,.21.49V32.61a18.18,18.18,0,0,1,3.58-1.35,16.63,16.63,0,0,1,1.72-.43,23.64,23.64,0,0,1,4.75-.49A20,20,0,0,1,278,31,23.3,23.3,0,0,1,296.27,53.67Z"/><path id="Path-8" class="cls-1" d="M244.69,71.28a5.7,5.7,0,0,1-1.79,1.9,14.4,14.4,0,0,1-2.21,1.67,23.28,23.28,0,0,1-7.58,3.63,23.79,23.79,0,0,1-6.65,1,22.66,22.66,0,0,1-5.8-.61,25.06,25.06,0,0,1-18.11-17.61,22.71,22.71,0,0,1-.68-3.57,23.15,23.15,0,0,1-.12-3.63,24.63,24.63,0,0,1,.43-3.63,34.84,34.84,0,0,1,.93-3.51,22.69,22.69,0,0,1,3.32-6.47,17.6,17.6,0,0,1,2.34-2.83,18.79,18.79,0,0,1,2.9-2.52,22.31,22.31,0,0,1,7-3.57,24.48,24.48,0,0,1,3.76-1,28.79,28.79,0,0,1,3.94-.3h1.11a17.34,17.34,0,0,1,2.59.25,17.82,17.82,0,0,1,2.59.55,23.68,23.68,0,0,1,4.87,1.84,26.13,26.13,0,0,1,4.37,2.83,18,18,0,0,1,1.61,1.42,9.23,9.23,0,0,1,.8.73c.37.44.74.8.5,1.42a2.27,2.27,0,0,1-.5.61c-1.48,1.42-3,2.9-4.5,4.38-.73.7-1.48,1.38-2.21,2.09l-1.08,1.06a1.84,1.84,0,0,1-1,.66,1.38,1.38,0,0,1-1.2-.53c-.33-.32-.67-.64-1-.93A11,11,0,0,0,231,45.18c-.29-.14-.58-.27-.87-.38A11.16,11.16,0,0,0,217,49.54c-.18.37-.36.8-.55,1.17a10.72,10.72,0,0,0,17.19,12c.55-.55,1.29-1.17,2.09-.92a2.45,2.45,0,0,1,.74.49A14.77,14.77,0,0,1,238,63.77c.49.49,1.05,1,1.54,1.47,1,1,2,2,3.08,3l1.3,1.29C244.39,70,245.13,70.48,244.69,71.28Z"/><path id="Path-9" class="cls-1" d="M1,79.78H41.25a.69.69,0,0,0,.71-.69.62.62,0,0,0,0-.23L37.36,64.64a.72.72,0,0,1,.19-.72L61.3,41.21a.72.72,0,0,1,1,0,.71.71,0,0,1,.19.48V74a.7.7,0,0,0,.7.7.83.83,0,0,0,.22,0l25.89-8.1a.7.7,0,0,0,.47-.87.66.66,0,0,0-.34-.41l-10.35-5.7a.71.71,0,0,1-.37-.62V1.74A.7.7,0,0,0,78,1a.75.75,0,0,0-.51.21L.53,78.58a.7.7,0,0,0,0,1A.66.66,0,0,0,1,79.78Z"/><path id="Composite_Path" data-name="Composite Path" class="cls-1" d="M0,106.92,6.16,92.73h.15l6.16,14.19H9.36l-3.94-10,2-1.34L2.65,106.92ZM4.22,102H8.31l.95,2.26H3.38Z"/><path id="Path-10" class="cls-1" d="M12.42,93.26h9.21v2.6H18.31v11h-2.7v-11H12.42Z"/><path id="Path-11" class="cls-1" d="M23.3,93.26h9.21v2.6H29.19v11h-2.7v-11H23.3Z"/><path id="Composite_Path-2" data-name="Composite Path-2" class="cls-1" d="M32.45,106.92l6.17-14.19h.15l6.16,14.19H41.81l-3.93-10,1.95-1.34-4.72,11.32ZM36.67,102h4.11l.94,2.26H35.84Z"/><path id="Path-12" class="cls-1" d="M56.24,105.78a4.61,4.61,0,0,1-.82.5,8,8,0,0,1-1.48.56,7,7,0,0,1-1.93.22,7.76,7.76,0,0,1-2.89-.58A6.32,6.32,0,0,1,47,105a6.54,6.54,0,0,1-1.35-2.17,7.34,7.34,0,0,1-.46-2.62,8.12,8.12,0,0,1,.47-2.85A6.74,6.74,0,0,1,47,95.1a6.09,6.09,0,0,1,2.11-1.47,7,7,0,0,1,2.71-.52,7.14,7.14,0,0,1,2.43.37,8.24,8.24,0,0,1,1.73.8L54.9,96.82a8.47,8.47,0,0,0-1.23-.73,4,4,0,0,0-1.77-.38,3.67,3.67,0,0,0-1.5.32,3.83,3.83,0,0,0-1.26.92,4.54,4.54,0,0,0-.87,1.38,4.6,4.6,0,0,0-.31,1.72,5.51,5.51,0,0,0,.28,1.8,4.16,4.16,0,0,0,.83,1.4,3.7,3.7,0,0,0,1.3.9,4.28,4.28,0,0,0,1.7.31,4.45,4.45,0,0,0,1.87-.35,4.17,4.17,0,0,0,1.19-.74Z"/><path id="Path-13" class="cls-1" d="M61.66,98.12l-.07.69.41-.52,4.45-5h3.49L64.3,99.38,70,106.92H66.55l-4.22-5.83-.67.67v5.16H58.93V93.26h2.73Z"/><rect id="Path-14" class="cls-1" x="77.28" y="101.54" width="3.5" height="2.27"/><rect id="Path-15" class="cls-1" x="89.74" y="93.26" width="2.69" height="13.65"/><path id="Path-16" class="cls-1" d="M95,93.26h9.21v2.6h-3.32v11h-2.7v-11H95Z"/><path id="Path-17" class="cls-1" d="M106.94,93.1l1.34.51a2.82,2.82,0,0,0-.66,1.08,2.34,2.34,0,0,0-.14,1.36l-2,.12a2.76,2.76,0,0,1,.62-2.34A3.6,3.6,0,0,1,106.94,93.1Z"/><path id="Path-18" class="cls-1" d="M117.71,96.56a11.28,11.28,0,0,0-1.59-.7,4.81,4.81,0,0,0-1.51-.28,2.42,2.42,0,0,0-1.38.36,1.23,1.23,0,0,0-.5,1,1.2,1.2,0,0,0,.39.87,3.91,3.91,0,0,0,1,.68,11.58,11.58,0,0,0,1.26.53,10.23,10.23,0,0,1,1.17.53,4.4,4.4,0,0,1,1,.76,3.54,3.54,0,0,1,.75,1.13,4.29,4.29,0,0,1,.27,1.66,3.57,3.57,0,0,1-.54,1.93,3.82,3.82,0,0,1-1.57,1.44,5.44,5.44,0,0,1-2.57.55,8.38,8.38,0,0,1-1.58-.16,8.59,8.59,0,0,1-1.59-.48,7.84,7.84,0,0,1-1.5-.83l1.19-2.1a6.64,6.64,0,0,0,2.2,1,4.67,4.67,0,0,0,1,.15,3.63,3.63,0,0,0,1-.14,1.8,1.8,0,0,0,.82-.48,1.28,1.28,0,0,0,.32-.92,1.18,1.18,0,0,0-.27-.74,2.85,2.85,0,0,0-.72-.62,7.52,7.52,0,0,0-1-.48c-.43-.16-.86-.34-1.31-.55a7,7,0,0,1-1.25-.77,3.34,3.34,0,0,1-1.3-2.8,3.84,3.84,0,0,1,.53-2.06A3.67,3.67,0,0,1,112,93.75a5.13,5.13,0,0,1,2.21-.56,7.61,7.61,0,0,1,2.68.39,9.16,9.16,0,0,1,1.85.93Z"/><path id="Path-19" class="cls-1" d="M130.82,102.67l-5-9.41h3.32l3.53,7.09-.8.05,3.48-7.14h3.32l-5.12,9.41v4.25h-2.7Z"/><path id="Composite_Path-3" data-name="Composite Path-3" class="cls-1" d="M138.45,100.11a6.62,6.62,0,0,1,.55-2.67,7.15,7.15,0,0,1,3.7-3.77,6.86,6.86,0,0,1,2.72-.56,6.72,6.72,0,0,1,2.69.56,7.32,7.32,0,0,1,3.76,3.77,6.85,6.85,0,0,1,0,5.38,7,7,0,0,1-1.52,2.21,7.17,7.17,0,0,1-2.24,1.5,7,7,0,0,1-5.41,0,6.82,6.82,0,0,1-2.21-1.5,6.64,6.64,0,0,1-1.49-2.21A6.84,6.84,0,0,1,138.45,100.11Zm2.79,0a4.08,4.08,0,0,0,.33,1.69,4.42,4.42,0,0,0,.9,1.4,4.07,4.07,0,0,0,1.36.93,4.21,4.21,0,0,0,1.68.34,4,4,0,0,0,1.63-.34,3.88,3.88,0,0,0,1.3-.93,4.33,4.33,0,0,0,.87-1.4,4.24,4.24,0,0,0,.32-1.69,4.3,4.3,0,0,0-.33-1.73,4.22,4.22,0,0,0-.89-1.4,4,4,0,0,0-1.32-.94,4.1,4.1,0,0,0-1.66-.33,4,4,0,0,0-3,1.27,4.12,4.12,0,0,0-.89,1.4A4.46,4.46,0,0,0,141.24,100.11Z"/><path id="Path-20" class="cls-1" d="M157.52,101.87a2.27,2.27,0,0,0,.39,1.24,3.18,3.18,0,0,0,1,1,2.87,2.87,0,0,0,1.4.37,3,3,0,0,0,1.49-.37,2.9,2.9,0,0,0,1-1,2.26,2.26,0,0,0,.38-1.24V93.26h2.65v8.66a4.85,4.85,0,0,1-.74,2.67,5.16,5.16,0,0,1-2,1.82,6,6,0,0,1-2.8.66,6,6,0,0,1-2.78-.66,5.2,5.2,0,0,1-2-1.82,4.73,4.73,0,0,1-.75-2.66V93.27h2.69Z"/><path id="Composite_Path-4" data-name="Composite Path-4" class="cls-1" d="M173.29,93.26a7.32,7.32,0,0,1,2.28.33,4.55,4.55,0,0,1,1.68.93,3.89,3.89,0,0,1,1,1.44,4.61,4.61,0,0,1,.35,1.9,5.65,5.65,0,0,1-.25,1.68,4.3,4.3,0,0,1-.81,1.52,4,4,0,0,1-1.5,1.1,5.66,5.66,0,0,1-2.3.42h-1.93v4.34h-2.69V93.26Zm.47,6.72a2.38,2.38,0,0,0,1-.2,1.79,1.79,0,0,0,.64-.52,2.27,2.27,0,0,0,.33-.66,2.31,2.31,0,0,0,.1-.64,3.43,3.43,0,0,0-.06-.56,2.12,2.12,0,0,0-.27-.7,1.62,1.62,0,0,0-.62-.6,2.22,2.22,0,0,0-1.13-.24h-1.93V100Zm2.52,1.67,3.38,5.27h-3.14l-3.45-5.2Z"/><path id="Composite_Path-5" data-name="Composite Path-5" class="cls-1" d="M191.93,93.26a5.91,5.91,0,0,1,3.4.87,2.9,2.9,0,0,1,1.26,2.57,3.43,3.43,0,0,1-.62,2.1,3.78,3.78,0,0,1-1.69,1.26,6.78,6.78,0,0,1-2.44.42L191.41,99a8.76,8.76,0,0,1,3,.47,4.84,4.84,0,0,1,2.07,1.32,3.08,3.08,0,0,1,.76,2.07,4.19,4.19,0,0,1-.4,1.88,3.53,3.53,0,0,1-1.08,1.25,4.62,4.62,0,0,1-1.54.68,6.48,6.48,0,0,1-1.76.21h-4.55V93.26Zm.32,5.59a1.42,1.42,0,0,0,1.17-.49,1.72,1.72,0,0,0,.38-1.09,1.25,1.25,0,0,0-.47-1.06,2.11,2.11,0,0,0-1.27-.35h-1.45v3Zm.09,5.56a3.61,3.61,0,0,0,1.08-.15,1.69,1.69,0,0,0,.76-.5,1.36,1.36,0,0,0,.27-.87,1.2,1.2,0,0,0-.33-.9,1.88,1.88,0,0,0-.86-.42,5.24,5.24,0,0,0-1.11-.12h-1.54v3Z"/><path id="Path-21" class="cls-1" d="M199.93,93.26h9.32v2.6h-6.63v2.92h5.87v2.59h-5.87v2.95h6.89v2.6h-9.58Z"/><path id="Path-22" class="cls-1" d="M219.59,96.56a11.28,11.28,0,0,0-1.59-.7,4.92,4.92,0,0,0-1.52-.28,2.37,2.37,0,0,0-1.37.36,1.23,1.23,0,0,0-.5,1,1.2,1.2,0,0,0,.39.87,3.91,3.91,0,0,0,1,.68,11.58,11.58,0,0,0,1.26.53,12.31,12.31,0,0,1,1.17.53,4.4,4.4,0,0,1,1.05.76,3.26,3.26,0,0,1,.74,1.13,4.3,4.3,0,0,1,.28,1.66,3.65,3.65,0,0,1-.54,1.93,3.82,3.82,0,0,1-1.57,1.44,5.43,5.43,0,0,1-2.56.55,8.41,8.41,0,0,1-1.59-.16,8.14,8.14,0,0,1-3.09-1.31l1.18-2.1a6.64,6.64,0,0,0,2.2,1,4.67,4.67,0,0,0,1.06.15,3.55,3.55,0,0,0,1-.14,1.72,1.72,0,0,0,.81-.48,1.21,1.21,0,0,0,.33-.92,1.11,1.11,0,0,0-.27-.74,2.66,2.66,0,0,0-.72-.62,7.52,7.52,0,0,0-1-.48c-.43-.16-.86-.34-1.3-.55a6.75,6.75,0,0,1-1.26-.77,3.53,3.53,0,0,1-.94-1.13,3.45,3.45,0,0,1-.36-1.67,3.93,3.93,0,0,1,.52-2.06,3.88,3.88,0,0,1,1.49-1.38,5.22,5.22,0,0,1,2.23-.56,7.61,7.61,0,0,1,2.68.39,9.16,9.16,0,0,1,1.85.93Z"/><path id="Path-23" class="cls-1" d="M222.19,93.26h9.21v2.6h-3.32v11h-2.7v-11h-3.2Z"/><path id="Composite_Path-6" data-name="Composite Path-6" class="cls-1" d="M240,106.92V93.26h4.09a9,9,0,0,1,3.51.62A6.12,6.12,0,0,1,250,95.51a6.45,6.45,0,0,1,1.29,2.28,8.14,8.14,0,0,1,.41,2.54,6.49,6.49,0,0,1-.55,2.74,6.37,6.37,0,0,1-1.49,2.07,6.59,6.59,0,0,1-2.2,1.32,7.63,7.63,0,0,1-2.63.46Zm2.69-2.6h1.6a5.86,5.86,0,0,0,1.86-.27,3.94,3.94,0,0,0,1.43-.79,3.21,3.21,0,0,0,.93-1.31,4.63,4.63,0,0,0,.33-1.8,4.69,4.69,0,0,0-.44-2.18,3.6,3.6,0,0,0-1.07-1.31,4.09,4.09,0,0,0-1.31-.64,4.37,4.37,0,0,0-1.13-.18h-2.2Z"/><path id="Path-24" class="cls-1" d="M254.35,93.26h9.33v2.6h-6.63v2.92h5.87v2.59h-5.87v2.95h6.89v2.6h-9.58Z"/><path id="Path-25" class="cls-1" d="M266.71,93.26h8.55v2.6h-5.85V99h5.07v2.6h-5.07v5.36h-2.69Z"/><path id="Path-26" class="cls-1" d="M277.85,93.26h9.33v2.6h-6.63v2.92h5.87v2.59h-5.87v2.95h6.89v2.6h-9.59Z"/><path id="Path-27" class="cls-1" d="M302.46,107.47,292.1,98.12l.8.45.05,8.34h-2.73V92.73h.11L300.47,102l-.6-.26-.05-8.52h2.71v14.21Z"/><path id="Path-28" class="cls-1" d="M313.36,96.56a11.28,11.28,0,0,0-1.59-.7,4.81,4.81,0,0,0-1.51-.28,2.42,2.42,0,0,0-1.38.36,1.27,1.27,0,0,0-.12,1.92,4.15,4.15,0,0,0,1,.68,11.58,11.58,0,0,0,1.26.53,10.23,10.23,0,0,1,1.17.53,4.4,4.4,0,0,1,1.05.76,3.26,3.26,0,0,1,.74,1.13,4.3,4.3,0,0,1,.28,1.66,3.65,3.65,0,0,1-.54,1.93,3.89,3.89,0,0,1-1.57,1.44,5.44,5.44,0,0,1-2.57.55,8.57,8.57,0,0,1-1.59-.16,8.3,8.3,0,0,1-3.09-1.31l1.19-2.1a6.16,6.16,0,0,0,1.05.62,6,6,0,0,0,1.14.42,4.75,4.75,0,0,0,1.06.15,3.5,3.5,0,0,0,1-.14,1.75,1.75,0,0,0,.82-.48,1.25,1.25,0,0,0,.33-.92,1.18,1.18,0,0,0-.27-.74,2.71,2.71,0,0,0-.73-.62,6.47,6.47,0,0,0-1-.48c-.42-.16-.85-.34-1.3-.55a7,7,0,0,1-1.25-.77,3.38,3.38,0,0,1-1.31-2.8,4,4,0,0,1,.53-2.06,3.81,3.81,0,0,1,1.49-1.38,5.3,5.3,0,0,1,2.24-.56,7.55,7.55,0,0,1,2.67.39,9.16,9.16,0,0,1,1.85.93Z"/><path id="Path-29" class="cls-1" d="M316.89,93.26h9.32v2.6h-6.63v2.92h5.87v2.59h-5.87v2.95h6.89v2.6h-9.58Z"/></svg>