<?xml version="1.0" encoding="utf-8"?>
<!-- Generator: Adobe Illustrator 23.1.0, SVG Export Plug-In . SVG Version: 6.00 Build 0)  -->
<svg version="1.1" id="Layer_1" xmlns="http://www.w3.org/2000/svg" xmlns:xlink="http://www.w3.org/1999/xlink" x="0px" y="0px"
	 viewBox="0 0 106.1 70.8" style="enable-background:new 0 0 106.1 70.8;" xml:space="preserve">
	<style type="text/css">
		.st0{display:none;}
		.st1{fill:none;stroke:#1276E0;stroke-miterlimit:10;}
	</style>
	<g id="SilhV3.tif" class="st0"></g>
	<g id="zaAjrQ.tif" class="st0"></g>
	<g>
		<path class="st1" d="M52,2c0.7,0,1.3,0,2,0c0.1,0.1,0.2,0.1,0.3,0.2c3.8,0.4,6.8,2.1,9.4,4.8c3.3,3.5,5,7.7,5.4,12.4
			c0.5,6.4-1.1,12.1-5.5,16.9c-2,2.2-4.5,3.6-7.6,4.4c0.6,0.1,0.9,0.2,1.2,0.2c6.6,0.7,12.6,2.8,18,6.7c5.2,3.7,9.1,8.4,11.1,14.5
			c0.7,2.2,1.1,4.4,1.6,6.7c-23.3,0-46.6,0-70,0c0.1-0.3,0.2-0.6,0.2-1c0.4-3.4,1.4-6.7,3.1-9.7c5.2-9.1,13.3-14.3,23.4-16.5
			c1.6-0.4,3.3-0.6,5.2-0.9c-3.7-1-6.6-2.9-8.7-5.8c-4.8-6.6-5.7-13.8-2.9-21.4c1.7-4.8,4.8-8.4,9.6-10.4C49.2,2.6,50.6,2.4,52,2z"/>
		<path class="st1" d="M90.4,68.8c0-3.2-0.9-6.1-2.2-8.9c-4-8.8-10.8-14.4-19.8-17.6c-1.8-0.7-2.4-2.2-3.1-3.6
			c-0.1-0.1,0.1-0.5,0.3-0.6c4.9-5.2,6.6-11.4,6-18.4c0-0.1,0-0.3,0-0.4c-0.3-2.2-0.3-2.2,1.8-2.8c4.9-1.4,8.8,0.3,12.1,3.9
			c5.6,6.4,4.9,17.5-1.3,23.2c-1.4,1.3-3,2.2-4.8,2.7c-0.3,0.1-0.6,0.2-0.8,0.3v0.1c1.9,0.3,3.8,0.6,5.7,1
			c7.3,1.9,13.2,5.8,17.1,12.4c1.3,2.3,2.2,4.8,2.6,7.4c0,0.2,0.1,0.4,0.2,0.6c0.2,0.7-0.1,0.8-0.8,0.8
			C98.9,68.8,94.7,68.8,90.4,68.8z"/>
		<path class="st1" d="M2,67.6c0.3-1.4,0.6-2.9,1.1-4.2c2.4-6.9,7.3-11.6,13.8-14.6c3-1.4,6.6-2.4,11.3-2.7C28,46.1,28,46,27.9,46
			c-5.8-1.3-9.1-5.2-10.5-10.7c-1.5-6-0.4-11.5,3.9-16.2c3.4-3.7,8.5-4.7,12.7-2.8c0.6,0.3,0.8,0.5,0.7,1.2c-1,5.9-0.1,11.5,3.2,16.6
			c0.7,1.1,1.6,2.1,2.5,3.1c0.4,0.4,0.5,0.7,0.2,1.2c-0.2,0.2-0.3,0.5-0.4,0.8c-0.6,1.2-1.5,2-2.8,2.5c-7.7,2.8-13.8,7.5-18,14.6
			c-2,3.4-3.3,7.1-3.7,11.1c0,0.2,0,0.4-0.1,0.6c0,0,0,0-0.2,0.2c-4.4,0-8.9,0-13.4,0C2,68,2,67.8,2,67.6z"/>
	</g>
</svg>
