<?xml version="1.0" encoding="utf-8"?>
<!-- Generator: Adobe Illustrator 23.1.0, SVG Export Plug-In . SVG Version: 6.00 Build 0)  -->
<svg version="1.1" id="Layer_1" xmlns="http://www.w3.org/2000/svg" xmlns:xlink="http://www.w3.org/1999/xlink" x="0px" y="0px"
	 viewBox="0 0 95.1 70.8" style="enable-background:new 0 0 95.1 70.8;" xml:space="preserve">
<style type="text/css">
	.st0{display:none;}
	.st1{fill:none;stroke:#172F53;stroke-miterlimit:10;}
</style>
<g id="SilhV3.tif" class="st0">
</g>
<g id="zaAjrQ.tif" class="st0">
</g>
<g>
	<path class="st1" d="M93.1,11.1v27.6c0,0-5.9,1.2-7.1,1.3c-1.2,0.2-5,1.4-7.8-1.3C74,34.6,58.8,19.6,58.8,19.6S56.2,17,52,19.2
		c-3.8,2-9.6,5-11.9,6.2c-4.5,2.4-8.2-1.4-8.2-4.3c0-2.2,1.4-3.8,3.4-4.9C40.7,12.9,52.2,6.5,57,3.9c2.9-1.5,5-1.7,9,1.7
		c4.9,4.1,9.3,7.9,9.3,7.9s1.4,1.2,3.7,0.7C84.4,13,93.1,11.1,93.1,11.1z M32.9,57.9c0.7-1.9,0.5-4-0.9-5.4
		c-1.3-1.3-3.1-1.6-4.9-1.2c0.5-1.7,0.2-3.6-1.1-4.9c-1.3-1.3-3.1-1.6-4.9-1.2c0.5-1.7,0.2-3.6-1.1-4.9c-2-2-5.4-2-7.7,0.2
		c-2.2,2.2-3.7,6.1-1.7,8.4s4.3,0.9,6.1,0.5c-0.5,1.7-2,3.4-0.1,5.6c1.8,2.3,4.3,0.9,6.1,0.5c-0.5,1.7-1.9,3.5-0.2,5.6
		c1.7,2.1,4.6,1,6.5,0.4c-0.7,1.9-2.3,3.9-0.3,6.2c2,2.3,6.6,1.2,8.9-0.9c2.3-2.2,2.5-5.6,0.5-7.6C36.8,57.6,34.7,57.3,32.9,57.9z
		 M74.1,43.5C57.8,27.1,65.5,34.8,56.7,26c0,0-2.6-2.6-6.1-1.1c-2.4,1.1-5.6,2.5-8,3.7c-2.6,1.4-4.5,1.8-5.4,1.8
		c-5,0-9.1-4.1-9.1-9.1c0-3.3,1.7-6.1,4.3-7.7c3.6-2.5,12-7,12-7s-2.5-3.2-8.1-3.2C30.7,3.3,19,11,19,11s-3.3,2.1-8,0.2L1.9,8v31.6
		c0,0,2.6,0.8,4.9,1.7c0.5-1.5,1.4-2.9,2.6-4c3.9-3.7,10.3-3.7,13.8-0.1c1.1,1.1,1.8,2.4,2.2,3.9c1.4,0.4,2.7,1.2,3.7,2.3
		c1.1,1.1,1.8,2.4,2.2,3.9c1.4,0.4,2.7,1.2,3.7,2.3c1.2,1.2,1.9,2.7,2.3,4.2c1.5,0.4,2.8,1.2,3.9,2.3c2.1,2.2,2.9,5.1,2.4,8l0,0
		c0,0,1.3,1.5,2.1,2.3c1.6,1.6,4.1,1.6,5.7,0c1.6-1.6,1.6-4.1,0-5.7c-0.1-0.1-5.6-5.9-5.2-6.3c0.4-0.4,7.5,6.9,7.7,7.1
		c1.6,1.6,4.1,1.6,5.7,0c1.6-1.6,1.6-4.1,0-5.7c-0.1-0.1-0.4-0.4-0.5-0.5c0,0-7-6.3-6.5-6.8s9.3,7.6,9.3,7.6c1.6,1.4,4,1.4,5.5-0.1
		s1.5-3.8,0.2-5.4c0-0.1-6.7-7-6.1-7.5c0.5-0.5,7.1,6.2,7.1,6.2c1.6,1.6,4.1,1.6,5.7,0C75.8,47.7,75.8,45.1,74.1,43.5
		C74.2,43.5,74.2,43.5,74.1,43.5z"/>
</g>
</svg>
