<?xml version="1.0" encoding="utf-8"?>
<!-- Generator: Adobe Illustrator 25.4.1, SVG Export Plug-In . SVG Version: 6.00 Build 0)  -->
<svg version="1.1" id="Layer_1" xmlns="http://www.w3.org/2000/svg" xmlns:xlink="http://www.w3.org/1999/xlink" x="0px" y="0px"
	 viewBox="0 0 53 88" style="enable-background:new 0 0 53 88;" xml:space="preserve">
<style type="text/css">
	.st0{fill:none;}
	.st1{fill:none;stroke:#686E72;stroke-width:4;}
	.st2{clip-path:url(#SVGID_00000121962778061859870960000006861325873023124148_);}
	.st3{fill:none;stroke:#FFFFFF;stroke-width:4;}
	.st4{fill:#686E72;}
</style>
<g id="Group_1627" transform="translate(-1426 -2854)">
	<g id="Group_1626">
		<g id="Rectangle_639" transform="translate(1431 2854)">
			<path class="st0" d="M21.7,1.8L21.7,1.8c13.8,0,25,11.2,25,25v34c0,13.8-11.2,25-25,25l0,0c-13.8,0-25-11.2-25-25v-34
				C-3.3,12.9,7.9,1.8,21.7,1.8z"/>
			<path class="st1" d="M21.7,3.8L21.7,3.8c12.7,0,23,10.3,23,23v34c0,12.7-10.3,23-23,23l0,0c-12.7,0-23-10.3-23-23v-34
				C-1.3,14,9,3.8,21.7,3.8z"/>
		</g>
		<g>
			<defs>
				<rect id="SVGID_1_" x="1422.7" y="2907.8" width="64" height="36"/>
			</defs>
			<clipPath id="SVGID_00000021822801770836736270000010844651882321570484_">
				<use xlink:href="#SVGID_1_"  style="overflow:visible;"/>
			</clipPath>
			<g id="Mask_Group_4" style="clip-path:url(#SVGID_00000021822801770836736270000010844651882321570484_);">
				<g id="Rectangle_640" transform="translate(1431 2854)">
					<path class="st0" d="M21.7,1.8L21.7,1.8c13.8,0,25,11.2,25,25v34c0,13.8-11.2,25-25,25l0,0c-13.8,0-25-11.2-25-25v-34
						C-3.3,12.9,7.9,1.8,21.7,1.8z"/>
					<path class="st3" d="M21.7,3.8L21.7,3.8c12.7,0,23,10.3,23,23v34c0,12.7-10.3,23-23,23l0,0c-12.7,0-23-10.3-23-23v-34
						C-1.3,14,9,3.8,21.7,3.8z"/>
				</g>
			</g>
		</g>
	</g>
	<circle id="Ellipse_14" class="st4" cx="1453.2" cy="2915.3" r="3.5"/>
</g>
</svg>
