<?xml version="1.0" encoding="utf-8"?>
<!-- Generator: Adobe Illustrator 23.1.0, SVG Export Plug-In . SVG Version: 6.00 Build 0)  -->
<svg version="1.1" id="Calque_1" xmlns="http://www.w3.org/2000/svg" xmlns:xlink="http://www.w3.org/1999/xlink" x="0px" y="0px"
	 viewBox="0 0 1139 503" style="enable-background:new 0 0 1139 503;" xml:space="preserve">
<style type="text/css">
	.st0{fill:#FFFFFF;fill-opacity:0.7;}
	.st1{fill:#DCA86E;}
	.st2{fill:url(#SVGID_1_);}
	.st3{fill:#2167BE;}
	.st4{fill:url(#SVGID_2_);}
	.st5{fill:#277FD9;}
	.st6{fill:#FEC4AD;}
	.st7{fill:url(#SVGID_3_);}
	.st8{fill:#FF5E69;}
	.st9{fill:url(#SVGID_4_);}
	.st10{fill:#F8D2A1;}
	.st11{fill:none;stroke:#D4DBE2;stroke-width:0.25;stroke-miterlimit:10;}
	.st12{fill:#FFBA01;}
	.st13{fill:#D2DCEB;}
	.st14{fill:#50CC85;}
	.st15{fill:#77E6A6;}
	.st16{fill:#F3BA7A;}
	.st17{fill:#A6AEBA;}
	.st18{fill:#B6BFCC;}
	.st19{fill:#FFFFFF;}
	.st20{fill:none;stroke:#B9B9B9;stroke-width:0.5;stroke-miterlimit:10;}
</style>
<path class="st0" d="M255,156.4c-74.9,11.6-83.9,85.1-83.9,85.1v237.3h728.1c0,0,142-405.2,0-372.7c-39.8,9.1-50.9,52.7-91.7,50.3
	c-49.1-2.9-42.8-80.8-91.7-86.4c-67.1-7.7-60.3,75.4-112.3,72.2c-32.9-2-43.3-33.9-76.2-36.1c-57-3.8-36.1,85.1-118.8,85.1
	C347.1,191.2,315.8,147,255,156.4z"/>
<path class="st1" d="M793.6,377.7l47.2,102l5.3,0l-40.8-108.6L793.6,377.7z"/>
<path class="st1" d="M744.8,379.9l-47.2,99.8l-5.3,0l40.8-102.1L744.8,379.9z"/>
<linearGradient id="SVGID_1_" gradientUnits="userSpaceOnUse" x1="585.7946" y1="57.6444" x2="619.4249" y2="33.1485" gradientTransform="matrix(1 0 0 -1 0 504)">
	<stop  offset="0" style="stop-color:#343A44"/>
	<stop  offset="0.3" style="stop-color:#232D3E"/>
	<stop  offset="0.64" style="stop-color:#182439"/>
	<stop  offset="1" style="stop-color:#142138"/>
</linearGradient>
<path class="st2" d="M624.9,457.8l-24,21l-28.3-19.9c0,0,9.6-3.2,26.1,1.2l16.9-14.2L624.9,457.8z"/>
<path class="st3" d="M763.7,342.1c0,0-53,27.2-71.8,35.3c-18.8,8.1-82.4,71.9-82.4,71.9s8.2,16.6,12.2,13.7
	c36-25.7,69.1-48.7,90.5-56.8c42.2-15.9,53.9-19.4,64.7-31.9C776.9,374.4,770.6,359.3,763.7,342.1z"/>
<linearGradient id="SVGID_2_" gradientUnits="userSpaceOnUse" x1="18941.1367" y1="43.0424" x2="20139.6504" y2="43.0424" gradientTransform="matrix(1 0 0 -1 0 504)">
	<stop  offset="0" style="stop-color:#343A44"/>
	<stop  offset="0.3" style="stop-color:#232D3E"/>
	<stop  offset="0.64" style="stop-color:#182439"/>
	<stop  offset="1" style="stop-color:#142138"/>
</linearGradient>
<path class="st4" d="M681.1,447.1l-6.9,31.1l-34.6,0.7c0,0,5.9-8.3,21.8-14.5l5.2-21.4L681.1,447.1z"/>
<path class="st5" d="M765,335.2c0,0-49.3,5.3-67.3,15c-18,9.7-32.3,98.4-32.3,98.4s14,7.6,15.7,2.9c8.5-23.1,18.3-45.7,29.4-67.7
	c17.7-3.2,58.8,16.7,88.4-12.5C798.9,371.3,773.3,351.8,765,335.2z"/>
<path class="st6" d="M850,275.3c-2.4,4.2-4.3,8.7-5.7,13.3l-20.3-1.9c0,0,10.5-15.8,9.7-25.5L850,275.3z"/>
<path class="st6" d="M845.6,242.5c-1.2-0.3-5.5-1.4-6.4-1.1c-1.2,0.5,0.2,2.1-0.6,3.1c-1.4,1.6-4.2,1.6-6,2.6c-2,1-3.6,2.5-4.8,4.4
	c-1.7,2.9,4.3,9.4,5.3,14.2c2,10.2,14.8,11.7,25.2,8.6c3.9-1.4,7.1-4.2,9.2-7.7c2.4-3.8,1-10.2-0.9-14c-1.4-2.3-3.4-4.3-5.7-5.7
	c-1.9-1.3-2.4-6.7-4.7-7.1C856.3,239.7,848.2,243.1,845.6,242.5z"/>
<linearGradient id="SVGID_3_" gradientUnits="userSpaceOnUse" x1="-8896.2188" y1="11333.9648" x2="-9599.4434" y2="12133.0879" gradientTransform="matrix(1 0 0 -1 0 504)">
	<stop  offset="0" style="stop-color:#343A44"/>
	<stop  offset="0.3" style="stop-color:#232D3E"/>
	<stop  offset="0.64" style="stop-color:#182439"/>
	<stop  offset="1" style="stop-color:#142138"/>
</linearGradient>
<path class="st7" d="M874.7,269.7c0,0-0.3-1.7,2.6-4.5c9.7-9.2-0.7-27.1-11.3-30.2c-5.4-1.6-8.9,0.1-10.8-5.3
	c0.1,0.4-2.2,1.4-2.4,1.6c-0.6,0.4-1.1,0.9-1.4,1.6c-0.3,0.6-0.5,1.3-0.5,2.1c-0.2,7.8,6.8,15.1,12.1,20.1c2.4,2.2-3.5,0.7-5.8,1.1
	c-1.5,0.3-5.5,4.5-6.4,5.2c2.2,2.8,4.2,0.3,7.2,1.6c2.8,1.2,1,4.8-1.6,5.2c-1,0.3-2.1,0.2-3.1-0.2c-1-0.4-1.9-1-2.5-1.8
	c-1.8,1-2.1,6.9-3.6,8.5c2,1.1,13.6,3.1,16.3,3.1c2.5,0,4.9-0.7,7-2.2C872.5,274.1,874,272.1,874.7,269.7z"/>
<path class="st8" d="M849.3,278.4c4.3,47.4-50.4,92.9-50.4,92.9s-35.7,1.3-33.9-36.1c0,0,2.8-6.8,24.9-26.8
	c14.7-13.4,25.1-33.3,35.5-32.9C853.7,276.5,849.3,278.4,849.3,278.4z"/>
<linearGradient id="SVGID_4_" gradientUnits="userSpaceOnUse" x1="68788.375" y1="172.4484" x2="81962.2344" y2="172.4484" gradientTransform="matrix(1 0 0 -1 0 504)">
	<stop  offset="0" style="stop-color:#343A44"/>
	<stop  offset="0.3" style="stop-color:#232D3E"/>
	<stop  offset="0.64" style="stop-color:#182439"/>
	<stop  offset="1" style="stop-color:#142138"/>
</linearGradient>
<path class="st9" d="M716.9,373.9c0,0,32.9,12.3,76.7-4.3c43.8-16.6,55.8-94.3,55.8-94.3l5,2.5c0,0-4.9,85.7-62.6,104.3
	c-44.1,14.2-74.9-2.7-74.9-2.7V373.9z"/>
<path class="st10" d="M844,325.8c0,0,5.3,18.2,5.5,27.3c0.3,9.1-3.6,39.9-3.6,39.9l8.4,1.1c0,0,7.4-36.7,7.6-48.7
	c0.2-12-6.7-31.4-6.7-31.4L844,325.8z"/>
<path class="st8" d="M843.5,326.5c6.1,26.5,3.5,62,3.5,62l9.1,0.6c9.9-20.8,9-66.8,3.8-86.2c-3.1-11.4-4.9-22.9-12.6-24.6
	c-4.8-1.1-14.7,2.4-16,7.2C828.3,295.8,840.5,313.5,843.5,326.5z"/>
<path class="st10" d="M842.3,397.5c-2,3.8-2.9,6.6-1.7,7.6c0.8,0.7,2.1-3,3.7-4.3c0.5,2.3,0.4,4.7-0.5,6.8c-1.1,2.7-1,5.1,1.1,5.3
	c2.1,0.2,5.5,0,6.2-1.7c0.7-1.7,2.5-8.9,3.4-11.3c0.9-2.4-0.3-5.2,0-6.5c0.3-1.4-6.2-3.7-6.2-3.7c-0.4,0.5-2.4,3.3-2.4,3.3
	c-0.7,0.9-1.5,1.7-2.3,2.4C843.1,396,842.6,396.7,842.3,397.5z"/>
<path class="st11" d="M792.8,25v63.2"/>
<path class="st12" d="M804,112.5c-0.2,2.2-1,4.3-2.3,6c-1.4,1.7-3.2,3-5.3,3.7c-2.1,0.7-4.3,0.7-6.4,0.1c-2.1-0.6-4-1.8-5.4-3.5
	c-1.4-1.7-2.3-3.7-2.6-5.9c-0.3-2.2,0.1-4.4,1.1-6.3c1-2,2.5-3.6,4.4-4.6c1.9-1.1,4.1-1.6,6.3-1.4c1.5,0.1,2.9,0.5,4.2,1.2
	c1.3,0.7,2.5,1.6,3.4,2.7c0.9,1.1,1.7,2.4,2.1,3.8C803.9,109.6,804.1,111,804,112.5z"/>
<path class="st13" d="M845.1,116.3H740.4L786.3,83h13.1L845.1,116.3z"/>
<path class="st11" d="M300.1,25v63.2"/>
<path class="st12" d="M311.3,112.5c-0.2,2.2-1,4.3-2.3,6c-1.4,1.7-3.2,3-5.3,3.7c-2.1,0.7-4.3,0.7-6.4,0.1c-2.1-0.6-4-1.8-5.4-3.5
	c-1.4-1.7-2.3-3.7-2.6-5.9c-0.3-2.2,0.1-4.4,1.1-6.3c1-2,2.5-3.6,4.5-4.6c1.9-1.1,4.1-1.6,6.3-1.4c2.9,0.2,5.7,1.6,7.6,3.8
	C310.6,106.7,311.5,109.6,311.3,112.5z"/>
<path class="st13" d="M352.4,116.3H247.8L293.6,83h13.1L352.4,116.3z"/>
<path class="st14" d="M447,259.4c1.6-3.7,3.7-7.1,6.2-10.2c4-4.8,10.1-12.8,10.1-12.8s-2.9,5.7-6.9,12.1
	C453.8,252.5,450.7,256.2,447,259.4z"/>
<path class="st14" d="M451.1,250c3.3-3,5.7-6.7,7.1-10.9c2.7-7.4,5.1-13,5.1-13c-3.1,4.4-5.9,9.1-8.2,13.9
	C452.6,245.7,451.1,250,451.1,250z"/>
<path class="st14" d="M447.3,258.3c1.3-5,2.3-10.1,2.8-15.2c0.5-6.7,0.4-11,0.4-11s-2.9,12.2-3.8,17.4
	C446.1,252.5,446.3,255.5,447.3,258.3z"/>
<path class="st14" d="M445.3,263.9c0.4-5.6-0.2-11.1-1.7-16.5c-1.4-4.1-2.3-8.4-2.6-12.7c-0.7,5-0.6,10.2,0.2,15.2
	C442.2,254.7,443.6,259.4,445.3,263.9z"/>
<path class="st14" d="M446,262c0,0,6.2-5.3,9.3-6.5c2.7-1.3,5.2-2.9,7.5-4.9c0,0-5.4,6.9-8.4,8.2C451.4,260.2,446,262,446,262z"/>
<path class="st14" d="M443.9,269.4c0.2-3.9-0.5-7.9-2.2-11.5c-1.4-3.2-2.6-6.6-3.4-10.1c0,0-0.2,9.1,1.7,12.6
	C441.8,263.8,443.9,269.4,443.9,269.4z"/>
<path class="st14" d="M444.5,265.9c2.1-1.4,4.5-2.4,7-2.9c1.5-0.1,2.9-0.4,4.3-0.9c-0.7,1-1.5,1.9-2.6,2.5c-1,0.6-2.2,1-3.4,1.2
	C445.6,266.4,444.5,265.9,444.5,265.9z"/>
<path class="st14" d="M442.1,273.9c0.8-3,1.8-7.6,2.8-10.7c2-5.4,4.6-10.6,7.6-15.6c-3.3,7.3-5.6,11.3-7.3,17.6
	c-0.6,2.5-1.8,5.9-2.4,8.2C442.7,274,442.2,274.5,442.1,273.9z"/>
<path class="st15" d="M443.7,261.8c-0.3-4.2-1.2-8.4-2.7-12.4c-2.4-6.2-5.6-16.4-5.6-16.4s0.9,6.7,2.7,14.6
	C439.3,252.6,441.2,257.4,443.7,261.8z"/>
<path class="st15" d="M442.8,250.9c-2.3-4.1-3.4-8.7-3.4-13.4c-0.1-8.3-0.6-14.8-0.6-14.8c1.6,5.5,2.7,11.2,3.5,16.9
	C442.7,246.2,442.8,250.9,442.8,250.9z"/>
<path class="st15" d="M443.8,260.6c0.4-5.5,1.2-10.9,2.5-16.2c1.9-6.9,3.4-11.2,3.4-11.2s-1.3,13.3-2.2,18.8
	C447,255.2,445.7,258.2,443.8,260.6z"/>
<path class="st15" d="M443.8,267c1.6-5.7,4.1-11.1,7.5-16c2.8-3.7,5.2-7.6,7-11.9c-1.1,5.3-2.9,10.4-5.5,15.2
	C450.1,258.7,447.1,263,443.8,267z"/>
<path class="st15" d="M443.8,264.8c0,0-4.4-7.4-7.1-9.8c-2.2-2.3-4.2-4.8-5.8-7.5c0,0,3,8.8,5.6,11.2
	C439,261.1,443.8,264.8,443.8,264.8z"/>
<path class="st15" d="M443.4,272.9c1.2-4,3.3-7.7,6.1-10.8c2.6-2.8,4.9-5.8,6.9-8.9c0,0-3,9.2-6,12.1
	C447.4,268.1,443.4,272.9,443.4,272.9z"/>
<path class="st15" d="M444,269.3c-1.7-2.1-3.7-3.9-6-5.3c-1.4-0.6-2.8-1.5-4-2.5c0.3,1.2,0.9,2.4,1.7,3.4c0.8,1,1.8,1.8,3,2.3
	C442.7,269.3,444,269.3,444,269.3z"/>
<path class="st14" d="M443.6,278.2c0.3-3.3,0.9-8.3,0.9-11.7c-0.2-6.1-0.9-12.3-2.2-18.3c0.8,8.4,1.8,13.3,1.2,20.1
	c-0.2,2.7-0.3,6.5-0.4,9C442.9,278,443.3,278.7,443.6,278.2z"/>
<path class="st14" d="M439,263.1c-1.6-3.7-3.7-7.1-6.2-10.2c-4-4.8-10.1-12.8-10.1-12.8s2.9,5.7,6.9,12.1
	C432.2,256.3,435.4,259.9,439,263.1z"/>
<path class="st14" d="M434.9,253.7c-3.3-3-5.7-6.7-7.1-10.9c-2.7-7.4-5.1-13-5.1-13c3.1,4.4,5.9,9.1,8.2,13.9
	C433.4,249.4,434.9,253.7,434.9,253.7z"/>
<path class="st14" d="M438.7,262c-1.3-5-2.3-10.1-2.8-15.2c-0.4-6.7-0.4-11-0.4-11s2.9,12.2,3.8,17.4
	C439.9,256.2,439.7,259.2,438.7,262z"/>
<path class="st14" d="M440.7,267.6c-0.4-5.6,0.2-11.1,1.7-16.5c1.4-4.1,2.3-8.4,2.6-12.7c0.7,5,0.6,10.2-0.2,15.2
	C443.8,258.4,442.4,263.1,440.7,267.6z"/>
<path class="st14" d="M440,265.7c0,0-6.2-5.3-9.3-6.5c-2.7-1.3-5.2-2.9-7.5-4.9c0,0,5.4,6.9,8.4,8.2
	C434.6,263.9,440,265.7,440,265.7z"/>
<path class="st14" d="M442.1,273.1c-0.2-3.9,0.5-7.9,2.2-11.5c1.4-3.2,2.6-6.6,3.4-10.1c0,0,0.2,9.1-1.7,12.6
	C444.2,267.5,442.1,273.1,442.1,273.1z"/>
<path class="st14" d="M441.5,269.6c-2.1-1.4-4.5-2.4-7-2.9c-1.5-0.1-2.9-0.4-4.3-0.9c0.7,1,1.5,1.9,2.6,2.5c1,0.6,2.2,1,3.4,1.2
	C440.4,270.1,441.5,269.6,441.5,269.6z"/>
<path class="st14" d="M443.9,277.6c-0.8-3-1.8-7.6-2.8-10.7c-2-5.4-4.6-10.6-7.6-15.6c3.3,7.2,5.7,11.3,7.3,17.6
	c0.7,2.5,1.8,5.9,2.4,8.2C443.3,277.7,443.8,278.2,443.9,277.6z"/>
<path class="st13" d="M451.7,298.5H435l-5.2-29.5h27.7L451.7,298.5z"/>
<path class="st1" d="M643.1,306.6l27.6,172.8l5.3,0l-21.9-172.8L643.1,306.6z"/>
<path class="st1" d="M452.7,306.7l-36,172.9l-7.2,0l28.2-172.9L452.7,306.7z"/>
<path class="st1" d="M693.3,296.5H396v13.3h297.3V296.5z"/>
<path class="st16" d="M707.6,296.5H381.8v8.8h325.8V296.5z"/>
<path class="st17" d="M616.4,291.8h-11.6l-11.6-73.8h8.8L616.4,291.8z"/>
<path class="st13" d="M613.1,291.8H568l-11.6-73.8h45.1L613.1,291.8z"/>
<path class="st13" d="M616.4,290.2h-49.1v5.5h49.1V290.2z"/>
<path class="st17" d="M678.3,290.2h-61.8v5.5h61.8V290.2z"/>
<path class="st17" d="M588.3,258.5c1.3,5.7,0.4,11.7-2.1,13.6c-2.4,1.9-5.5-1.2-6.8-6.8c-1.3-5.6-0.4-11.7,2.1-13.6
	C584,249.8,587,252.9,588.3,258.5z"/>
<path class="st17" d="M518.1,295.4h-6.4c-1.3,0-2.5-0.5-3.5-1.3c-1-0.8-1.6-2-1.8-3.3l-2.6-16.5H526l-2.6,16.5
	c-0.2,1.3-0.8,2.4-1.8,3.2C520.6,294.9,519.4,295.4,518.1,295.4z"/>
<path class="st17" d="M524.1,291.9h-0.7h-0.3l-0.2-0.2c-0.2-0.1-3.9-3-3.9-7.2s2.9-7.8,6.3-7.8c1,0,1.9,0.1,2.8,0.5
	c0.9,0.4,1.7,0.9,2.3,1.7c0.6,0.8,1,1.7,1.2,2.7c0.2,1,0.2,2-0.1,3C530.8,289.3,528,291.9,524.1,291.9z M523.8,289.9
	c4,0.1,5.3-3,5.7-5.6c0.2-0.7,0.2-1.4,0.1-2.1c-0.1-0.7-0.4-1.4-0.8-2c-0.5-0.5-1-0.9-1.6-1.1c-0.6-0.2-1.3-0.4-2-0.3
	c-2.4,0-4.3,2.6-4.3,5.7c0.1,1.1,0.4,2.1,0.9,3C522.3,288.4,523,289.2,523.8,289.9z"/>
<path class="st13" d="M501.7,296.9h28l4.5-5h-37L501.7,296.9z"/>
<path class="st18" d="M353.1,189.2H219v290.1h134.1V189.2z"/>
<path class="st13" d="M337.7,201.9H234.4v30.4h103.3V201.9z"/>
<path class="st19" d="M298.4,213.4h-24.7c-0.6,0-1.1,0.5-1.1,1.1v5.1c0,0.6,0.5,1.1,1.1,1.1h24.7c0.6,0,1.1-0.5,1.1-1.1v-5.1
	C299.6,213.9,299.1,213.4,298.4,213.4z"/>
<path class="st13" d="M337.7,240.6H234.4V271h103.3V240.6z"/>
<path class="st19" d="M298.4,252.1h-24.7c-0.6,0-1.1,0.5-1.1,1.1v5.1c0,0.6,0.5,1.1,1.1,1.1h24.7c0.6,0,1.1-0.5,1.1-1.1v-5.1
	C299.6,252.6,299.1,252.1,298.4,252.1z"/>
<path class="st13" d="M337.7,279.3H234.4v30.4h103.3V279.3z"/>
<path class="st19" d="M298.4,290.8h-24.7c-0.6,0-1.1,0.5-1.1,1.1v5.1c0,0.6,0.5,1.1,1.1,1.1h24.7c0.6,0,1.1-0.5,1.1-1.1V292
	C299.6,291.3,299.1,290.8,298.4,290.8z"/>
<path class="st13" d="M337.7,318.4H234.4v149.1h103.3V318.4z"/>
<path class="st19" d="M298.4,330h-24.7c-0.6,0-1.1,0.5-1.1,1.1v5.1c0,0.6,0.5,1.1,1.1,1.1h24.7c0.6,0,1.1-0.5,1.1-1.1v-5.1
	C299.6,330.5,299.1,330,298.4,330z"/>
<path class="st20" d="M122.2,478.8h818.5"/>
<path class="st19" d="M504,485v-11.6h4.1c0.8,0,1.5,0.1,2,0.4c0.5,0.3,0.9,0.6,1.2,1.1c0.3,0.5,0.4,1,0.4,1.6c0,0.5-0.1,0.9-0.3,1.2
	c-0.2,0.3-0.4,0.6-0.7,0.8c-0.3,0.2-0.6,0.3-0.9,0.4v0.1c0.4,0,0.7,0.1,1.1,0.4c0.4,0.2,0.7,0.6,0.9,1c0.2,0.4,0.4,0.9,0.4,1.6
	c0,0.6-0.1,1.1-0.4,1.6c-0.3,0.5-0.7,0.8-1.3,1.1s-1.3,0.4-2.2,0.4H504z M505.4,483.8h2.8c0.9,0,1.6-0.2,2-0.5
	c0.4-0.4,0.6-0.8,0.6-1.3c0-0.4-0.1-0.8-0.3-1.1c-0.2-0.3-0.5-0.6-0.9-0.8c-0.4-0.2-0.8-0.3-1.3-0.3h-2.9V483.8z M505.4,478.5h2.6
	c0.4,0,0.8-0.1,1.1-0.3c0.3-0.2,0.6-0.4,0.8-0.7c0.2-0.3,0.3-0.7,0.3-1.1c0-0.5-0.2-0.9-0.5-1.3c-0.4-0.4-0.9-0.5-1.7-0.5h-2.7
	V478.5z M514.2,485v-8.7h1.3v1.3h0.1c0.2-0.4,0.4-0.8,0.9-1.1c0.4-0.3,0.9-0.4,1.4-0.4c0.1,0,0.2,0,0.4,0c0.1,0,0.3,0,0.3,0v1.4
	c0,0-0.2,0-0.3-0.1c-0.2,0-0.3,0-0.5,0c-0.4,0-0.8,0.1-1.1,0.3c-0.3,0.2-0.6,0.4-0.8,0.7c-0.2,0.3-0.3,0.7-0.3,1.1v5.5H514.2z
	 M523.4,485.2c-0.8,0-1.5-0.2-2.1-0.6c-0.6-0.4-1.1-0.9-1.4-1.6c-0.3-0.7-0.5-1.5-0.5-2.4c0-0.9,0.2-1.7,0.5-2.4
	c0.3-0.7,0.8-1.2,1.4-1.6c0.6-0.4,1.3-0.6,2.1-0.6c0.8,0,1.5,0.2,2.1,0.6c0.6,0.4,1.1,0.9,1.4,1.6c0.3,0.7,0.5,1.5,0.5,2.4
	c0,0.9-0.2,1.7-0.5,2.4c-0.3,0.7-0.8,1.2-1.4,1.6C524.9,485,524.2,485.2,523.4,485.2z M523.4,484c0.6,0,1.1-0.2,1.5-0.5
	c0.4-0.3,0.7-0.7,0.9-1.2c0.2-0.5,0.3-1,0.3-1.6c0-0.6-0.1-1.1-0.3-1.6c-0.2-0.5-0.5-0.9-0.9-1.2c-0.4-0.3-0.9-0.5-1.5-0.5
	c-0.6,0-1.1,0.2-1.5,0.5c-0.4,0.3-0.7,0.7-0.9,1.2s-0.3,1-0.3,1.6c0,0.6,0.1,1.1,0.3,1.6s0.5,0.9,0.9,1.2
	C522.3,483.8,522.8,484,523.4,484z M531.1,485l-2.7-8.7h1.4l1.9,6.7h0.1l1.9-6.7h1.4l1.8,6.7h0.1l1.9-6.7h1.4l-2.7,8.7h-1.3
	l-1.9-6.7h-0.1l-1.9,6.7H531.1z M548.3,478.2l-1.2,0.3c-0.1-0.2-0.2-0.4-0.3-0.6c-0.1-0.2-0.3-0.4-0.6-0.5s-0.6-0.2-1-0.2
	c-0.5,0-1,0.1-1.3,0.4c-0.4,0.2-0.5,0.6-0.5,0.9c0,0.3,0.1,0.6,0.4,0.8c0.2,0.2,0.6,0.4,1.1,0.5l1.3,0.3c0.8,0.2,1.4,0.5,1.7,0.9
	c0.4,0.4,0.6,0.9,0.6,1.5c0,0.5-0.1,0.9-0.4,1.3c-0.3,0.4-0.7,0.7-1.2,0.9c-0.5,0.2-1.1,0.3-1.8,0.3c-0.9,0-1.6-0.2-2.2-0.6
	c-0.6-0.4-1-0.9-1.1-1.7l1.3-0.3c0.1,0.5,0.3,0.8,0.7,1.1c0.3,0.2,0.8,0.4,1.3,0.4c0.6,0,1.1-0.1,1.5-0.4c0.4-0.3,0.6-0.6,0.6-1
	c0-0.3-0.1-0.6-0.3-0.8c-0.2-0.2-0.5-0.4-1-0.5l-1.5-0.3c-0.8-0.2-1.4-0.5-1.8-0.9c-0.4-0.4-0.6-0.9-0.6-1.5c0-0.5,0.1-0.9,0.4-1.3
	c0.3-0.4,0.7-0.7,1.1-0.9c0.5-0.2,1-0.3,1.6-0.3c0.9,0,1.5,0.2,2,0.6C547.7,477.1,548.1,477.6,548.3,478.2z M554.1,485.2
	c-0.8,0-1.6-0.2-2.2-0.6c-0.6-0.4-1.1-0.9-1.4-1.6c-0.3-0.7-0.5-1.5-0.5-2.4c0-0.9,0.2-1.7,0.5-2.4c0.3-0.7,0.8-1.2,1.4-1.6
	c0.6-0.4,1.3-0.6,2.1-0.6c0.5,0,0.9,0.1,1.3,0.2c0.4,0.2,0.8,0.4,1.2,0.7c0.4,0.3,0.7,0.8,0.9,1.3s0.3,1.2,0.3,2.1v0.6H551v-1.2h5.4
	c0-0.5-0.1-0.9-0.3-1.3c-0.2-0.4-0.5-0.7-0.8-0.9c-0.4-0.2-0.8-0.3-1.3-0.3c-0.5,0-1,0.1-1.4,0.4c-0.4,0.3-0.7,0.6-0.9,1
	c-0.2,0.4-0.3,0.9-0.3,1.4v0.8c0,0.7,0.1,1.2,0.3,1.7c0.2,0.5,0.6,0.8,1,1c0.4,0.2,0.9,0.4,1.4,0.4c0.4,0,0.7,0,1-0.1
	c0.3-0.1,0.5-0.3,0.7-0.5c0.2-0.2,0.4-0.5,0.5-0.8l1.3,0.4c-0.1,0.4-0.4,0.8-0.7,1.2c-0.3,0.3-0.7,0.6-1.2,0.8
	C555.3,485.1,554.7,485.2,554.1,485.2z M564.5,485v-11.6h3.9c0.9,0,1.7,0.2,2.2,0.5c0.6,0.3,1,0.8,1.3,1.3c0.3,0.6,0.4,1.2,0.4,1.9
	c0,0.7-0.1,1.3-0.4,1.9c-0.3,0.6-0.7,1-1.3,1.3c-0.6,0.3-1.3,0.5-2.2,0.5h-2.8v-1.3h2.8c0.6,0,1.1-0.1,1.5-0.3
	c0.4-0.2,0.7-0.5,0.8-0.9c0.2-0.4,0.3-0.8,0.3-1.3c0-0.5-0.1-0.9-0.3-1.3c-0.2-0.4-0.4-0.7-0.8-0.9c-0.4-0.2-0.9-0.3-1.5-0.3h-2.5
	V485H564.5z M574.5,485v-8.7h1.3v1.3h0.1c0.2-0.4,0.4-0.8,0.9-1.1c0.4-0.3,0.9-0.4,1.4-0.4c0.1,0,0.2,0,0.4,0c0.1,0,0.3,0,0.3,0v1.4
	c0,0-0.1,0-0.3-0.1c-0.2,0-0.3,0-0.5,0c-0.4,0-0.8,0.1-1.1,0.3c-0.3,0.2-0.6,0.4-0.8,0.7c-0.2,0.3-0.3,0.7-0.3,1.1v5.5H574.5z
	 M583.7,485.2c-0.8,0-1.5-0.2-2.1-0.6c-0.6-0.4-1.1-0.9-1.4-1.6c-0.3-0.7-0.5-1.5-0.5-2.4c0-0.9,0.2-1.7,0.5-2.4
	c0.3-0.7,0.8-1.2,1.4-1.6c0.6-0.4,1.3-0.6,2.1-0.6c0.8,0,1.5,0.2,2.1,0.6c0.6,0.4,1.1,0.9,1.4,1.6c0.3,0.7,0.5,1.5,0.5,2.4
	c0,0.9-0.2,1.7-0.5,2.4c-0.3,0.7-0.8,1.2-1.4,1.6C585.2,485,584.5,485.2,583.7,485.2z M583.7,484c0.6,0,1.1-0.2,1.5-0.5
	s0.7-0.7,0.9-1.2c0.2-0.5,0.3-1,0.3-1.6c0-0.6-0.1-1.1-0.3-1.6c-0.2-0.5-0.5-0.9-0.9-1.2c-0.4-0.3-0.9-0.5-1.5-0.5
	c-0.6,0-1.1,0.2-1.5,0.5c-0.4,0.3-0.7,0.7-0.9,1.2c-0.2,0.5-0.3,1-0.3,1.6c0,0.6,0.1,1.1,0.3,1.6c0.2,0.5,0.5,0.9,0.9,1.2
	C582.6,483.8,583.1,484,583.7,484z M593.2,488.5c-0.6,0-1.2-0.1-1.7-0.3c-0.5-0.2-0.9-0.4-1.2-0.6c-0.3-0.3-0.6-0.5-0.7-0.9l1.1-0.8
	c0.1,0.2,0.3,0.3,0.5,0.5c0.2,0.2,0.4,0.4,0.8,0.5c0.3,0.2,0.8,0.2,1.3,0.2c0.7,0,1.3-0.2,1.7-0.5c0.5-0.3,0.7-0.9,0.7-1.6v-1.8
	h-0.1c-0.1,0.2-0.2,0.4-0.4,0.6c-0.2,0.2-0.4,0.4-0.8,0.6c-0.3,0.2-0.8,0.3-1.4,0.3c-0.7,0-1.3-0.2-1.9-0.5c-0.6-0.3-1-0.8-1.3-1.5
	c-0.3-0.6-0.5-1.4-0.5-2.3c0-0.9,0.2-1.7,0.5-2.3c0.3-0.7,0.8-1.2,1.3-1.5c0.6-0.4,1.2-0.6,1.9-0.6c0.6,0,1,0.1,1.4,0.3
	c0.3,0.2,0.6,0.4,0.8,0.6c0.2,0.2,0.3,0.4,0.4,0.6h0.1v-1.4h1.3v9c0,0.8-0.2,1.4-0.5,1.8c-0.3,0.5-0.8,0.8-1.4,1
	C594.5,488.3,593.9,488.5,593.2,488.5z M593.2,483.7c0.5,0,1-0.1,1.4-0.4c0.4-0.2,0.7-0.6,0.8-1.1c0.2-0.5,0.3-1,0.3-1.7
	c0-0.6-0.1-1.2-0.3-1.7c-0.2-0.5-0.5-0.9-0.8-1.1c-0.4-0.3-0.8-0.4-1.4-0.4c-0.6,0-1,0.1-1.4,0.4c-0.4,0.3-0.7,0.7-0.8,1.2
	c-0.2,0.5-0.3,1-0.3,1.6c0,0.6,0.1,1.1,0.3,1.6c0.2,0.5,0.5,0.8,0.9,1.1C592.1,483.5,592.6,483.7,593.2,483.7z M599.4,485v-8.7h1.3
	v1.3h0.1c0.2-0.4,0.4-0.8,0.9-1.1c0.4-0.3,0.9-0.4,1.4-0.4c0.1,0,0.2,0,0.4,0c0.1,0,0.3,0,0.3,0v1.4c0,0-0.2,0-0.3-0.1
	c-0.2,0-0.3,0-0.5,0c-0.4,0-0.8,0.1-1.1,0.3c-0.3,0.2-0.6,0.4-0.8,0.7c-0.2,0.3-0.3,0.7-0.3,1.1v5.5H599.4z M608,485.2
	c-0.6,0-1.1-0.1-1.5-0.3c-0.5-0.2-0.8-0.5-1.1-0.9c-0.3-0.4-0.4-0.9-0.4-1.5c0-0.5,0.1-0.9,0.3-1.2c0.2-0.3,0.5-0.6,0.8-0.7
	c0.3-0.2,0.7-0.3,1.1-0.4c0.4-0.1,0.8-0.2,1.2-0.2c0.5-0.1,1-0.1,1.3-0.2c0.3,0,0.6-0.1,0.7-0.2c0.2-0.1,0.2-0.2,0.2-0.5v0
	c0-0.6-0.2-1-0.5-1.3c-0.3-0.3-0.8-0.5-1.4-0.5c-0.6,0-1.1,0.1-1.5,0.4c-0.4,0.3-0.6,0.6-0.8,0.9l-1.3-0.5c0.2-0.5,0.5-0.9,0.9-1.2
	c0.4-0.3,0.8-0.5,1.3-0.6c0.5-0.1,0.9-0.2,1.3-0.2c0.3,0,0.6,0,1,0.1c0.4,0.1,0.7,0.2,1.1,0.4c0.3,0.2,0.6,0.5,0.9,0.9
	c0.2,0.4,0.3,1,0.3,1.7v5.8h-1.3v-1.2h-0.1c-0.1,0.2-0.2,0.4-0.5,0.6c-0.2,0.2-0.5,0.4-0.8,0.6C608.9,485.1,608.5,485.2,608,485.2z
	 M608.2,484c0.5,0,1-0.1,1.3-0.3c0.4-0.2,0.6-0.5,0.8-0.8c0.2-0.3,0.3-0.7,0.3-1v-1.2c-0.1,0.1-0.2,0.1-0.4,0.2
	c-0.2,0.1-0.4,0.1-0.7,0.1c-0.2,0-0.5,0.1-0.7,0.1c-0.2,0-0.4,0-0.6,0.1c-0.3,0-0.7,0.1-1,0.2c-0.3,0.1-0.5,0.2-0.7,0.4
	c-0.2,0.2-0.3,0.5-0.3,0.8c0,0.5,0.2,0.8,0.5,1.1C607.2,483.9,607.6,484,608.2,484z M614.4,485v-8.7h1.3v1.4h0.1
	c0.2-0.5,0.5-0.8,0.9-1.1c0.4-0.3,0.9-0.4,1.5-0.4c0.6,0,1.1,0.1,1.4,0.4c0.4,0.3,0.7,0.6,0.9,1.1h0.1c0.2-0.4,0.6-0.8,1-1.1
	c0.4-0.3,1-0.4,1.6-0.4c0.8,0,1.4,0.2,1.9,0.7c0.5,0.5,0.7,1.2,0.7,2.3v5.8h-1.3v-5.8c0-0.6-0.2-1.1-0.5-1.4
	c-0.4-0.3-0.8-0.4-1.2-0.4c-0.6,0-1.1,0.2-1.4,0.6c-0.3,0.4-0.5,0.8-0.5,1.4v5.7h-1.4v-6c0-0.5-0.2-0.9-0.5-1.2
	c-0.3-0.3-0.7-0.5-1.2-0.5c-0.3,0-0.7,0.1-1,0.3c-0.3,0.2-0.5,0.4-0.7,0.8c-0.2,0.3-0.3,0.7-0.3,1.1v5.5H614.4z M634.5,478.2
	l-1.2,0.3c-0.1-0.2-0.2-0.4-0.3-0.6c-0.1-0.2-0.3-0.4-0.6-0.5s-0.6-0.2-1-0.2c-0.5,0-1,0.1-1.3,0.4c-0.4,0.2-0.5,0.6-0.5,0.9
	c0,0.3,0.1,0.6,0.4,0.8c0.2,0.2,0.6,0.4,1.1,0.5l1.3,0.3c0.8,0.2,1.4,0.5,1.7,0.9c0.4,0.4,0.6,0.9,0.6,1.5c0,0.5-0.1,0.9-0.4,1.3
	c-0.3,0.4-0.7,0.7-1.2,0.9s-1.1,0.3-1.8,0.3c-0.9,0-1.6-0.2-2.2-0.6c-0.6-0.4-1-0.9-1.1-1.7l1.3-0.3c0.1,0.5,0.3,0.8,0.7,1.1
	c0.3,0.2,0.8,0.4,1.3,0.4c0.6,0,1.1-0.1,1.5-0.4c0.4-0.3,0.6-0.6,0.6-1c0-0.3-0.1-0.6-0.3-0.8c-0.2-0.2-0.5-0.4-1-0.5l-1.5-0.3
	c-0.8-0.2-1.4-0.5-1.8-0.9c-0.4-0.4-0.6-0.9-0.6-1.5c0-0.5,0.1-0.9,0.4-1.3c0.3-0.4,0.7-0.7,1.1-0.9c0.5-0.2,1-0.3,1.6-0.3
	c0.9,0,1.5,0.2,2,0.6C633.9,477.1,634.3,477.6,634.5,478.2z"/>
</svg>
