<svg width="41" height="46" viewBox="0 0 41 46" fill="none" xmlns="http://www.w3.org/2000/svg">
<rect x="6.70459" y="0.25" width="34.0462" height="45.0555" rx="3.75" fill="#F7F7F7" stroke="#D5D5D5" stroke-width="0.5"/>
<line x1="12.9077" y1="11.4686" x2="34.1669" y2="11.4686" stroke="#5887FF" stroke-width="0.6"/>
<line x1="12.9077" y1="17.5425" x2="34.1669" y2="17.5425" stroke="#5887FF" stroke-width="0.6"/>
<line x1="12.9077" y1="29.6907" x2="34.1669" y2="29.6907" stroke="#5887FF" stroke-width="0.6"/>
<line x1="12.9077" y1="23.6166" x2="34.1669" y2="23.6166" stroke="#5887FF" stroke-width="0.6"/>
<line x1="12.9077" y1="35.7648" x2="34.1669" y2="35.7648" stroke="#5887FF" stroke-width="0.6"/>
<path d="M21.9755 27.7261L1.60838 27.7139C0.723603 27.7133 0.00591688 28.4301 0.00538548 29.3149L0.000948549 36.7025C0.000417156 37.5873 0.717242 38.305 1.60202 38.3055L21.9691 38.3177C22.8539 38.3183 23.5716 37.6014 23.5721 36.7167L23.5766 29.3291C23.5771 28.4443 22.8603 27.7266 21.9755 27.7261Z" fill="#FF725E"/>
<path d="M9.38533 32.7354C9.38533 33.4946 8.81968 33.954 7.91616 33.954H7.23662V34.8879H6.45459V31.5092H7.91616C8.81968 31.5092 9.38533 31.9761 9.38533 32.7354ZM8.5919 32.7354C8.5919 32.3557 8.35273 32.1469 7.8744 32.1469H7.23662V33.32H7.8744C8.35273 33.32 8.5919 33.0922 8.5919 32.7354Z" fill="white"/>
<path d="M9.93896 31.5092H11.4575C12.5622 31.5092 13.3215 32.1735 13.3215 33.1985C13.3215 34.2235 12.5622 34.8879 11.4575 34.8879H9.93896V31.5092ZM11.4347 34.2463C11.7126 34.2463 11.9791 34.1359 12.1756 33.9394C12.3721 33.7429 12.4825 33.4764 12.4825 33.1985C12.4825 32.9206 12.3721 32.6541 12.1756 32.4576C11.9791 32.2611 11.7126 32.1507 11.4347 32.1507H10.721V34.2311L11.4347 34.2463Z" fill="white"/>
<path d="M14.7035 32.1355V33.0277H16.2676V33.6579H14.7035V34.8879H13.9253V31.5092H16.4878V32.1355H14.7035Z" fill="white"/>
</svg>
