<svg width="57" height="51" viewBox="0 0 57 51" fill="none" xmlns="http://www.w3.org/2000/svg">
<path d="M53.6279 31.0477C51.7786 29.3073 49.4399 28.1651 46.8836 27.8387V7.93226C46.8836 5.81108 46.0134 3.90745 44.6536 2.49333C43.2395 1.07921 41.3359 0.263367 39.2147 0.263367H7.66889C5.54771 0.263367 3.64408 1.1336 2.22996 2.49333C0.81584 3.90745 0 5.81108 0 7.93226V33.0057V35.3445V40.4027C0 42.5239 0.870229 44.4275 2.22996 45.8416C3.64408 47.2557 5.54771 48.0716 7.66889 48.0716H38.1813C40.1937 49.7033 42.6956 50.7366 45.4695 50.7366C48.6784 50.7366 51.5611 49.4313 53.6279 47.3645C55.6947 45.2977 57 42.4151 57 39.2061C57 35.9971 55.6947 33.1145 53.6279 31.0477ZM2.88263 7.93226C2.88263 6.62692 3.42653 5.43035 4.29676 4.61451C5.16698 3.74428 6.36355 3.20039 7.66889 3.20039H39.2147C40.52 3.20039 41.7166 3.74428 42.5868 4.61451C43.4571 5.48474 44.001 6.68131 44.001 7.98665V24.9561L35.9513 16.9065C35.4074 16.3626 34.4828 16.3082 33.8845 16.9065L21.7557 29.0897L13.5429 20.8225C12.999 20.2786 12.0744 20.2242 11.4761 20.8225L2.88263 29.5248V7.93226ZM7.6145 45.2977V45.1889C6.30916 45.1889 5.1126 44.645 4.24237 43.7748C3.42653 42.9046 2.88263 41.708 2.88263 40.4027V35.3445V33.6584L12.5095 23.9771L20.7223 32.1899C21.2662 32.7338 22.1908 32.7338 22.7891 32.1899L34.9179 20.0067L42.8588 28.0019C42.6956 28.0563 42.5324 28.1107 42.3693 28.1651C42.1517 28.2195 41.9342 28.2739 41.6622 28.3826C41.4447 28.437 41.2271 28.5458 41.0095 28.6002C40.8464 28.6546 40.7376 28.709 40.5744 28.8178C40.3569 28.9265 40.1937 28.9809 40.0305 29.0897C39.7586 29.2529 39.4866 29.416 39.2147 29.5792C39.0515 29.688 38.9427 29.7424 38.7796 29.8512C38.6708 29.9055 38.6164 29.9599 38.5076 30.0143C38.0181 30.3407 37.583 30.7214 37.2023 31.1565C35.1355 33.2233 33.8302 36.1059 33.8302 39.3149C33.8302 40.1307 33.9389 40.8922 34.1021 41.708C34.1565 41.9256 34.2109 42.0887 34.2653 42.3063C34.4284 42.8502 34.5916 43.3941 34.8092 43.938V43.9924C35.0267 44.4275 35.2443 44.917 35.5162 45.2977H7.6145ZM51.5067 45.2977C49.9294 46.875 47.8082 47.7996 45.4151 47.7996C43.1307 47.7996 41.0095 46.875 39.4866 45.4065C39.2691 45.1889 39.0515 44.917 38.834 44.6994C38.6708 44.5363 38.5076 44.3187 38.3445 44.1555C38.1269 43.8836 37.9637 43.5573 37.8006 43.2309C37.6918 43.0134 37.583 42.8502 37.4742 42.6326C37.3655 42.3607 37.2567 42.0344 37.2023 41.708C37.1479 41.4905 37.0391 41.2185 36.9847 41.001C36.876 40.4571 36.8216 39.8588 36.8216 39.2605C36.8216 36.8674 37.8006 34.7462 39.3235 33.1689C40.8464 31.5916 43.0219 30.667 45.4151 30.667C47.8082 30.667 49.9294 31.646 51.5067 33.1689C53.084 34.7462 54.0086 36.8674 54.0086 39.2605C54.0086 41.5992 53.0296 43.7204 51.5067 45.2977Z" fill="#5887FF"/>
</svg>
